<svg xmlns="http://www.w3.org/2000/svg" width="836" height="1254" viewBox="0 0 836 1254">
<g>
<path d="M 525.05 768.98 C484.76,770.33 391.96,770.03 354.50,768.45 C299.15,766.10 252.31,761.59 235.76,757.00 C218.54,752.23 203.93,740.74 200.55,729.31 C196.55,715.79 200.41,703.28 218.41,671.41 C239.48,634.11 249.32,617.86 253.96,612.70 C259.88,606.10 268.36,600.69 276.76,598.15 C285.35,595.56 289.42,595.13 312.00,594.51 C325.69,594.12 332.58,593.47 338.50,592.01 C343.84,590.68 349.92,590.02 356.80,590.01 L 367.10 590.00 L 368.15 593.00 C368.73,594.65 369.60,596.00 370.10,596.00 C370.59,596.00 371.00,596.45 371.00,597.00 C371.00,597.58 367.57,598.01 362.75,598.02 C352.67,598.05 347.52,599.17 344.54,601.96 C343.30,603.13 340.53,604.56 338.39,605.14 C330.14,607.37 324.19,611.80 318.20,620.17 C310.94,630.31 299.24,648.74 297.99,652.00 C297.46,653.38 296.35,655.62 295.53,657.00 C294.70,658.38 292.62,662.40 290.91,665.95 C287.05,673.95 287.37,676.87 293.02,684.91 C302.17,697.96 311.03,698.89 434.00,699.68 C510.50,700.18 519.35,700.07 527.47,698.54 C545.85,695.08 553.17,689.36 564.26,669.77 C568.40,662.47 574.58,651.19 578.00,644.70 C584.08,633.19 584.22,632.75 583.82,626.47 C583.28,617.96 579.73,612.72 571.56,608.36 C563.32,603.97 553.25,602.12 533.25,601.36 C523.76,600.99 516.00,600.62 516.00,600.53 C516.00,600.45 516.93,598.45 518.07,596.09 L 520.14 591.80 L 533.82 592.50 C541.34,592.89 553.01,594.28 559.73,595.60 C566.46,596.92 575.10,598.00 578.93,598.00 C588.96,598.00 610.19,599.84 619.50,601.52 C634.83,604.29 649.70,614.11 655.28,625.16 C662.03,638.54 661.27,653.61 653.25,665.80 C651.18,668.93 647.74,675.10 645.59,679.50 C643.45,683.90 640.48,689.30 638.99,691.50 C636.06,695.83 630.85,704.77 622.08,720.53 C614.15,734.79 603.52,749.60 598.66,753.19 C590.89,758.93 576.01,764.57 562.50,766.90 C559.20,767.47 542.35,768.40 525.05,768.98 ZM 388.00 751.99 C427.15,752.81 493.59,752.36 535.00,750.99 C555.58,750.30 562.02,749.74 568.40,748.07 C578.69,745.38 588.16,740.02 595.00,733.03 C601.13,726.75 614.65,704.67 631.77,673.00 C633.70,669.42 637.70,662.15 640.65,656.83 C648.53,642.65 649.52,633.42 644.09,624.65 C637.27,613.62 615.76,605.51 606.20,610.37 C603.13,611.93 593.76,611.16 591.78,609.18 C590.42,607.82 586.00,607.58 586.00,608.87 C586.00,609.34 586.84,610.80 587.86,612.12 C588.89,613.43 591.24,617.20 593.10,620.50 C596.11,625.86 596.47,627.30 596.44,634.00 C596.41,640.09 595.91,642.44 593.80,646.50 C592.37,649.25 588.18,657.35 584.50,664.50 C573.79,685.30 566.31,696.65 559.68,702.18 C550.56,709.78 543.19,713.06 529.50,715.59 C513.57,718.54 426.34,718.49 353.00,715.50 C347.23,715.26 336.63,714.83 329.46,714.54 C304.86,713.55 286.29,708.46 276.80,700.13 C266.64,691.21 266.16,675.78 275.53,659.69 C277.52,656.29 279.64,652.60 280.25,651.50 C290.38,633.20 298.42,621.52 309.73,608.65 C312.07,605.98 313.74,603.39 313.44,602.90 C312.27,601.02 306.61,602.00 303.95,604.55 C301.74,606.66 299.85,607.24 292.75,607.97 C288.05,608.46 282.25,609.74 279.85,610.82 C277.46,611.91 273.73,613.53 271.57,614.42 C267.15,616.25 258.00,625.09 258.00,627.53 C258.00,629.63 253.18,639.96 251.02,642.50 C246.00,648.38 221.04,696.84 218.38,705.84 C216.44,712.41 217.53,717.82 222.32,725.41 C224.08,728.21 226.01,731.40 226.60,732.50 C228.21,735.47 234.78,738.77 243.61,741.03 C253.15,743.47 292.62,747.68 318.50,749.01 C328.95,749.55 340.65,750.26 344.50,750.60 C348.35,750.94 367.92,751.56 388.00,751.99 ZM 475.77 670.54 C469.72,672.01 463.05,672.35 436.00,672.56 C375.52,673.02 349.79,669.52 339.74,659.46 C332.70,652.42 339.67,645.40 359.17,639.92 C366.42,637.88 377.19,636.53 394.76,635.46 C400.95,635.09 406.28,634.36 406.59,633.85 C406.91,633.33 406.63,632.26 405.96,631.46 C405.30,630.66 404.98,630.00 405.26,630.00 C405.54,630.00 409.04,634.84 413.04,640.75 C422.75,655.09 424.28,656.87 430.70,661.25 C435.59,664.59 436.88,665.00 442.35,664.99 C455.58,664.97 460.43,660.64 479.59,631.75 C482.05,628.04 484.29,625.00 484.57,625.00 C484.84,625.00 483.47,627.48 481.53,630.52 C477.19,637.30 476.94,641.20 480.68,643.70 C484.97,646.57 491.01,653.20 491.64,655.71 C492.09,657.48 491.15,659.28 487.63,663.40 C483.39,668.37 482.49,668.91 475.77,670.54 ZM 551.00 348.17 C551.00,349.18 550.57,350.00 550.04,350.00 L 549.99 350.00 C549.87,350.00 549.77,350.00 549.68,349.99 C548.91,349.89 548.24,349.04 542.25,341.58 C530.84,327.38 511.19,309.66 501.24,304.62 C495.96,301.94 494.63,299.74 497.62,298.59 C501.29,297.18 522.40,311.49 533.48,322.88 C539.33,328.90 546.00,338.30 546.00,340.53 C546.00,341.15 547.12,342.71 548.50,344.00 C549.88,345.29 551.00,347.17 551.00,348.17 ZM 277.00 604.01 C277.00,605.40 278.58,605.25 285.94,603.17 C293.84,600.94 295.66,598.37 288.59,599.43 C283.00,600.27 277.00,602.64 277.00,604.01 Z" fill="rgb(220,193,156)"/>
<path d="M 478.10 639.85 C477.82,637.55 478.96,634.54 481.53,630.52 C483.47,627.48 484.84,625.00 484.57,625.00 C484.29,625.00 482.05,628.04 479.59,631.75 C460.43,660.64 455.58,664.97 442.35,664.99 C436.88,665.00 435.59,664.59 430.70,661.25 C424.28,656.87 422.75,655.09 413.04,640.75 C409.04,634.84 405.54,630.00 405.26,630.00 C405.25,630.00 405.23,630.00 405.22,630.01 C403.62,627.06 400.46,621.95 394.74,612.89 C360.28,558.32 340.24,520.71 325.55,483.00 C313.08,451.03 309.05,433.36 309.02,410.62 C308.97,378.53 316.52,356.62 338.06,326.34 C341.88,320.95 357.77,305.99 365.60,300.40 C374.81,293.81 387.26,287.62 399.50,283.52 C409.16,280.29 412.08,279.77 423.48,279.26 C435.62,278.72 436.36,278.79 434.79,280.35 C433.87,281.27 430.96,282.29 428.31,282.62 C423.90,283.17 410.59,286.97 400.35,290.61 C394.07,292.85 379.71,300.38 372.17,305.39 C358.87,314.23 339.82,336.29 333.90,349.70 C332.74,352.34 331.11,355.85 330.27,357.50 C327.14,363.70 324.01,374.49 323.50,380.88 L 322.96 387.50 L 325.23 380.87 C326.48,377.23 328.00,373.63 328.62,372.87 C329.23,372.12 330.92,367.90 332.38,363.50 C334.44,357.28 336.27,354.05 340.58,349.00 C343.63,345.42 348.11,339.54 350.53,335.92 C357.41,325.62 377.91,310.42 380.77,313.49 C381.17,313.92 380.94,314.47 380.25,314.72 C379.56,314.97 379.00,316.73 379.00,318.64 C379.00,320.70 379.41,321.87 380.00,321.50 C380.55,321.16 381.00,321.58 381.00,322.44 C381.00,323.30 380.62,324.00 380.16,324.00 C379.39,324.00 376.59,328.84 376.69,330.00 C376.72,330.27 377.02,331.98 377.35,333.80 C377.74,335.86 377.60,336.87 376.98,336.49 C376.44,336.16 376.00,336.56 376.00,337.39 C376.00,338.22 375.39,339.26 374.65,339.70 C372.98,340.69 370.62,345.00 371.75,345.00 C372.20,345.00 372.64,345.90 372.73,347.00 C372.81,348.10 372.45,349.00 371.94,349.00 C371.42,349.00 371.00,349.67 371.00,350.50 C371.00,352.57 372.35,352.38 374.50,350.00 C375.50,348.90 376.72,348.00 377.23,348.00 C377.73,348.00 381.15,345.45 384.82,342.33 C391.97,336.25 404.22,329.92 417.50,325.43 C428.28,321.79 446.44,320.88 457.25,323.45 C469.31,326.32 488.57,333.78 490.50,336.33 C491.05,337.06 493.98,339.39 497.00,341.51 C502.62,345.44 508.94,351.74 508.98,353.46 C508.99,353.98 510.50,356.01 512.34,357.96 C515.76,361.58 520.00,370.35 520.00,373.79 C520.00,374.84 521.17,377.90 522.59,380.58 C527.98,390.71 529.29,406.48 525.98,421.43 C521.92,439.79 517.10,449.01 506.74,458.19 C483.09,479.15 468.47,485.40 443.00,485.40 C427.93,485.41 421.38,484.07 409.50,478.59 C382.53,466.14 366.34,442.83 362.25,410.58 C361.37,403.67 359.54,402.23 358.65,407.76 C358.06,411.45 359.15,424.48 360.55,430.57 C363.22,442.18 371.64,458.18 379.73,467.00 C380.99,468.38 382.27,470.29 382.58,471.25 C382.88,472.21 383.54,473.00 384.03,473.00 C384.52,473.00 386.63,474.85 388.71,477.10 C390.79,479.36 393.85,481.89 395.50,482.74 C397.15,483.58 400.70,486.01 403.38,488.14 C406.06,490.26 408.88,492.00 409.63,492.00 C410.38,492.00 411.00,492.44 411.00,492.97 C411.00,493.50 411.75,493.65 412.66,493.30 C413.66,492.92 414.08,493.07 413.71,493.66 C413.33,494.27 414.76,494.71 417.29,494.77 C425.06,494.97 429.18,496.87 427.15,499.31 C426.23,500.42 426.20,501.01 427.04,501.52 C427.86,502.03 427.87,502.53 427.09,503.31 C425.48,504.92 425.77,509.08 427.62,511.14 C428.91,512.55 430.16,512.80 433.64,512.33 C436.79,511.89 438.53,512.14 439.77,513.21 C440.72,514.03 442.39,515.01 443.47,515.40 C445.10,515.98 445.19,516.27 444.00,517.00 C441.74,518.39 444.24,518.96 454.00,519.25 C459.66,519.42 462.43,519.88 462.29,520.63 C462.17,521.25 462.96,522.56 464.04,523.54 C465.72,525.06 468.14,525.32 481.25,525.40 C490.81,525.46 496.50,525.13 496.50,524.50 C496.50,523.95 498.98,523.24 502.00,522.92 C505.02,522.60 508.36,521.96 509.41,521.50 C510.91,520.84 511.15,520.97 510.50,522.08 C510.05,522.86 510.01,523.20 510.42,522.83 C510.83,522.47 511.21,521.79 511.27,521.33 C511.32,520.88 512.44,519.66 513.74,518.63 C515.05,517.60 515.89,516.15 515.60,515.39 C515.06,513.99 518.28,511.61 519.32,512.65 C519.64,512.97 520.71,511.38 521.69,509.12 C522.67,506.85 524.15,505.00 524.99,505.00 C525.82,504.99 528.02,504.07 529.87,502.94 L 533.25 500.88 L 532.56 503.63 C532.18,505.14 531.09,507.53 530.13,508.94 C529.18,510.35 527.33,514.88 526.04,519.00 C524.74,523.12 520.60,532.63 516.84,540.12 C513.08,547.61 510.00,554.10 510.00,554.54 C510.00,554.98 508.61,558.19 506.92,561.67 C505.22,565.15 503.99,568.47 504.18,569.05 C504.81,570.92 519.12,549.67 524.42,539.00 C526.20,535.42 528.93,530.47 530.50,528.00 C534.28,522.03 545.86,498.57 551.03,486.42 C553.31,481.07 555.58,475.98 556.09,475.10 C557.75,472.18 565.20,450.60 566.64,444.50 C567.42,441.20 568.75,436.33 569.60,433.68 C570.79,429.94 571.11,424.19 571.04,408.04 C570.96,389.80 571.15,387.16 572.56,386.62 C574.64,385.82 575.03,385.84 574.84,386.75 C574.62,387.81 576.19,391.39 577.17,392.06 C578.67,393.07 579.28,413.20 578.10,422.00 C576.04,437.21 573.26,451.06 570.97,457.50 C569.99,460.25 567.53,467.23 565.50,473.00 C552.27,510.64 528.73,556.06 494.34,610.26 C482.46,628.99 478.15,636.16 478.10,639.85 ZM 431.18 475.52 C440.48,477.30 454.31,476.68 463.33,474.07 C493.70,465.29 514.39,437.87 514.32,406.50 C514.28,393.69 512.19,385.13 506.31,373.74 C492.93,347.84 465.02,333.65 434.21,337.08 C417.83,338.91 403.80,346.07 392.14,358.56 C371.39,380.78 367.30,410.66 381.14,439.00 C386.46,449.90 397.80,461.57 409.00,467.68 C417.59,472.36 420.98,473.56 431.18,475.52 ZM 499.00 576.61 C499.00,577.37 499.43,578.00 499.96,578.00 C501.23,578.00 503.01,574.62 502.97,572.32 C502.94,570.74 502.67,570.81 500.97,572.86 C499.89,574.16 499.00,575.85 499.00,576.61 ZM 368.18 357.11 C368.91,357.56 369.97,357.07 370.80,355.87 C372.71,353.15 371.49,352.25 368.98,354.52 C367.49,355.87 367.28,356.55 368.18,357.11 ZM 405.97 631.46 C406.63,632.26 406.91,633.33 406.59,633.85 C406.59,633.86 406.58,633.87 406.57,633.88 C406.74,633.50 406.63,632.84 405.97,631.46 Z" fill="rgb(227,112,10)"/>
<path d="M 578.63 403.71 C578.42,397.63 577.90,392.55 577.17,392.06 C576.19,391.39 574.62,387.81 574.84,386.75 C575.03,385.84 574.64,385.82 572.56,386.62 C571.15,387.16 570.96,389.80 571.04,408.04 C571.11,424.19 570.79,429.94 569.60,433.68 C568.75,436.33 567.42,441.20 566.64,444.50 C565.20,450.60 557.75,472.18 556.09,475.10 C555.58,475.98 553.31,481.07 551.03,486.42 C545.86,498.57 534.28,522.03 530.50,528.00 C528.93,530.47 526.20,535.42 524.42,539.00 C519.12,549.67 504.81,570.92 504.18,569.05 C503.99,568.47 505.22,565.15 506.92,561.67 C508.61,558.19 510.00,554.98 510.00,554.54 C510.00,554.10 513.08,547.61 516.84,540.12 C520.60,532.63 524.74,523.12 526.04,519.00 C527.33,514.88 529.18,510.35 530.13,508.94 C531.09,507.53 532.18,505.14 532.56,503.63 L 533.25 500.88 L 529.87 502.94 C528.02,504.07 525.82,504.99 524.99,505.00 C524.15,505.00 522.67,506.85 521.69,509.12 C520.71,511.38 519.64,512.97 519.32,512.65 C518.28,511.61 515.06,513.99 515.60,515.39 C515.89,516.15 515.05,517.60 513.74,518.63 C512.44,519.66 511.32,520.88 511.27,521.33 C511.21,521.79 510.83,522.47 510.42,522.83 C510.01,523.20 510.05,522.86 510.50,522.08 C511.15,520.97 510.91,520.84 509.41,521.50 C508.36,521.96 505.02,522.60 502.00,522.92 C498.98,523.24 496.50,523.95 496.50,524.50 C496.50,525.13 490.81,525.46 481.25,525.40 C468.14,525.32 465.72,525.06 464.04,523.54 C462.96,522.56 462.17,521.25 462.29,520.63 C462.43,519.88 459.66,519.42 454.00,519.25 C444.24,518.96 441.74,518.39 444.00,517.00 C445.19,516.27 445.10,515.98 443.47,515.40 C442.39,515.01 440.72,514.03 439.77,513.21 C438.53,512.14 436.79,511.89 433.64,512.33 C430.16,512.80 428.91,512.55 427.62,511.14 C425.77,509.08 425.48,504.92 427.09,503.31 C427.87,502.53 427.86,502.03 427.04,501.52 C426.20,501.01 426.23,500.42 427.15,499.31 C429.18,496.87 425.06,494.97 417.29,494.77 C414.76,494.71 413.33,494.27 413.71,493.66 C414.08,493.07 413.66,492.92 412.66,493.30 C411.75,493.65 411.00,493.50 411.00,492.97 C411.00,492.44 410.38,492.00 409.63,492.00 C408.88,492.00 406.06,490.26 403.38,488.14 C400.70,486.01 397.15,483.58 395.50,482.74 C393.85,481.89 390.79,479.36 388.71,477.10 C386.63,474.85 384.52,473.00 384.03,473.00 C383.54,473.00 382.88,472.21 382.58,471.25 C382.27,470.29 380.99,468.38 379.73,467.00 C371.64,458.18 363.22,442.18 360.55,430.57 C359.15,424.48 358.06,411.45 358.65,407.76 C359.54,402.23 361.37,403.67 362.25,410.58 C366.34,442.83 382.53,466.14 409.50,478.59 C421.38,484.07 427.93,485.41 443.00,485.40 C468.47,485.40 483.09,479.15 506.74,458.19 C517.10,449.01 521.92,439.79 525.98,421.43 C529.29,406.48 527.98,390.71 522.59,380.58 C521.17,377.90 520.00,374.84 520.00,373.79 C520.00,370.35 515.76,361.58 512.34,357.96 C510.50,356.01 508.99,353.98 508.98,353.46 C508.94,351.74 502.62,345.44 497.00,341.51 C493.98,339.39 491.05,337.06 490.50,336.33 C488.57,333.78 469.31,326.32 457.25,323.45 C446.44,320.88 428.28,321.79 417.50,325.43 C404.22,329.92 391.97,336.25 384.82,342.33 C381.15,345.45 377.73,348.00 377.23,348.00 C376.72,348.00 375.50,348.90 374.50,350.00 C372.35,352.38 371.00,352.57 371.00,350.50 C371.00,349.67 371.42,349.00 371.94,349.00 C372.45,349.00 372.81,348.10 372.73,347.00 C372.64,345.90 372.20,345.00 371.75,345.00 C370.62,345.00 372.98,340.69 374.65,339.70 C375.39,339.26 376.00,338.22 376.00,337.39 C376.00,336.56 376.44,336.16 376.98,336.49 C377.60,336.87 377.74,335.86 377.35,333.80 C377.02,331.98 376.72,330.27 376.69,330.00 C376.59,328.84 379.39,324.00 380.16,324.00 C380.62,324.00 381.00,323.30 381.00,322.44 C381.00,321.58 380.55,321.16 380.00,321.50 C379.41,321.87 379.00,320.70 379.00,318.64 C379.00,316.73 379.56,314.97 380.25,314.72 C380.94,314.47 381.17,313.92 380.77,313.49 C377.91,310.42 357.41,325.62 350.53,335.92 C348.11,339.54 343.63,345.42 340.58,349.00 C336.27,354.05 334.44,357.28 332.38,363.50 C330.92,367.90 329.23,372.12 328.62,372.87 C328.00,373.63 326.48,377.23 325.23,380.87 L 322.96 387.50 L 323.50 380.88 C324.01,374.49 327.14,363.70 330.27,357.50 C331.11,355.85 332.74,352.34 333.90,349.70 C339.82,336.29 358.87,314.23 372.17,305.39 C379.71,300.38 394.07,292.85 400.35,290.61 C410.59,286.97 423.90,283.17 428.31,282.62 C430.96,282.29 433.87,281.27 434.79,280.35 C436.36,278.79 435.62,278.72 423.48,279.26 C412.08,279.77 409.16,280.29 399.50,283.52 C388.56,287.18 377.44,292.53 368.63,298.32 C385.03,287.50 407.07,279.44 427.38,276.94 C444.90,274.78 470.72,277.25 486.80,282.63 C523.79,294.99 555.18,324.49 569.54,360.38 C575.15,374.38 578.16,388.70 578.63,403.71 ZM 551.00 348.17 C551.00,347.17 549.88,345.29 548.50,344.00 C547.12,342.71 546.00,341.15 546.00,340.53 C546.00,338.30 539.33,328.90 533.48,322.88 C522.40,311.49 501.29,297.18 497.62,298.59 C494.63,299.74 495.96,301.94 501.24,304.62 C511.19,309.66 530.84,327.38 542.25,341.58 C548.24,349.04 548.91,349.89 549.68,349.99 C549.77,350.00 549.87,350.00 549.99,350.00 L 550.04 350.00 C550.57,350.00 551.00,349.18 551.00,348.17 ZM 499.00 576.61 C499.00,575.85 499.89,574.16 500.97,572.86 C502.67,570.81 502.94,570.74 502.97,572.32 C503.01,574.62 501.23,578.00 499.96,578.00 C499.43,578.00 499.00,577.37 499.00,576.61 ZM 368.18 357.11 C367.28,356.55 367.49,355.87 368.98,354.52 C371.49,352.25 372.71,353.15 370.80,355.87 C369.97,357.07 368.91,357.56 368.18,357.11 ZM 573.67 447.55 C572.70,452.00 571.91,454.85 570.97,457.50 C571.82,455.11 572.74,451.69 573.67,447.55 ZM 576.06 435.32 C576.50,432.73 576.93,430.04 577.35,427.27 C577.00,429.82 576.59,432.40 576.11,435.00 Z" fill="rgb(252,169,29)"/>
<path d="M 0.00 627.00 L 0.00 0.00 L 418.00 0.00 L 836.00 0.00 L 836.00 627.00 L 836.00 1254.00 L 418.00 1254.00 L 0.00 1254.00 L 0.00 627.00 ZM 525.05 768.98 C542.35,768.40 559.20,767.47 562.50,766.90 C576.01,764.57 590.89,758.93 598.66,753.19 C603.52,749.60 614.15,734.79 622.08,720.53 C630.85,704.77 636.06,695.83 638.99,691.50 C640.48,689.30 643.45,683.90 645.59,679.50 C647.74,675.10 651.18,668.93 653.25,665.80 C661.27,653.61 662.03,638.54 655.28,625.16 C649.70,614.11 634.83,604.29 619.50,601.52 C610.19,599.84 588.96,598.00 578.93,598.00 C575.10,598.00 566.46,596.92 559.73,595.60 C553.01,594.28 541.34,592.89 533.82,592.50 L 520.14 591.80 L 518.07 596.09 C516.93,598.45 516.00,600.45 516.00,600.53 C516.00,600.62 523.76,600.99 533.25,601.36 C553.25,602.12 563.32,603.97 571.56,608.36 C579.73,612.72 583.28,617.96 583.82,626.47 C584.22,632.75 584.08,633.19 578.00,644.70 C574.58,651.19 568.40,662.47 564.26,669.77 C553.17,689.36 545.85,695.08 527.47,698.54 C519.35,700.07 510.50,700.18 434.00,699.68 C311.03,698.89 302.17,697.96 293.02,684.91 C287.37,676.87 287.05,673.95 290.91,665.95 C292.62,662.40 294.70,658.38 295.53,657.00 C296.35,655.62 297.46,653.38 297.99,652.00 C299.24,648.74 310.94,630.31 318.20,620.17 C324.19,611.80 330.14,607.37 338.39,605.14 C340.53,604.56 343.30,603.13 344.54,601.96 C347.52,599.17 352.67,598.05 362.75,598.02 C367.57,598.01 371.00,597.58 371.00,597.00 C371.00,596.45 370.59,596.00 370.10,596.00 C369.60,596.00 368.73,594.65 368.15,593.00 L 367.10 590.00 L 356.80 590.01 C349.92,590.02 343.84,590.68 338.50,592.01 C332.58,593.47 325.69,594.12 312.00,594.51 C289.42,595.13 285.35,595.56 276.76,598.15 C268.36,600.69 259.88,606.10 253.96,612.70 C249.32,617.86 239.48,634.11 218.41,671.41 C200.41,703.28 196.55,715.79 200.55,729.31 C203.93,740.74 218.54,752.23 235.76,757.00 C252.31,761.59 299.15,766.10 354.50,768.45 C391.96,770.03 484.76,770.33 525.05,768.98 ZM 475.77 670.54 C482.49,668.91 483.39,668.37 487.63,663.40 C491.15,659.28 492.09,657.48 491.64,655.71 C491.01,653.20 484.97,646.57 480.68,643.70 C475.75,640.40 476.69,638.10 494.34,610.26 C528.73,556.06 552.27,510.64 565.50,473.00 C567.53,467.23 569.99,460.25 570.97,457.50 C572.59,452.95 573.77,447.80 576.11,435.00 C581.05,408.09 578.91,383.78 569.54,360.38 C555.18,324.49 523.79,294.99 486.80,282.63 C470.72,277.25 444.90,274.78 427.38,276.94 C405.75,279.60 382.15,288.58 365.50,300.47 C357.76,306.00 341.86,320.98 338.06,326.34 C316.52,356.62 308.97,378.53 309.02,410.62 C309.05,433.36 313.08,451.03 325.55,483.00 C340.24,520.71 360.28,558.32 394.74,612.89 C405.39,629.76 407.16,632.93 406.53,633.95 C406.25,634.41 400.95,635.09 394.76,635.46 C377.19,636.53 366.42,637.88 359.17,639.92 C339.67,645.40 332.70,652.42 339.74,659.46 C349.79,669.52 375.52,673.02 436.00,672.56 C463.05,672.35 469.72,672.01 475.77,670.54 ZM 388.00 751.99 C367.92,751.56 348.35,750.94 344.50,750.60 C340.65,750.26 328.95,749.55 318.50,749.01 C292.62,747.68 253.15,743.47 243.61,741.03 C234.78,738.77 228.21,735.47 226.60,732.50 C226.01,731.40 224.08,728.21 222.32,725.41 C217.53,717.82 216.44,712.41 218.38,705.84 C221.04,696.84 246.00,648.38 251.02,642.50 C253.18,639.96 258.00,629.63 258.00,627.53 C258.00,625.09 267.15,616.25 271.57,614.42 C273.73,613.53 277.46,611.91 279.85,610.82 C282.25,609.74 288.05,608.46 292.75,607.97 C299.85,607.24 301.74,606.66 303.95,604.55 C306.61,602.00 312.27,601.02 313.44,602.90 C313.74,603.39 312.07,605.98 309.73,608.65 C298.42,621.52 290.38,633.20 280.25,651.50 C279.64,652.60 277.52,656.29 275.53,659.69 C266.16,675.78 266.64,691.21 276.80,700.13 C286.29,708.46 304.86,713.55 329.46,714.54 C336.63,714.83 347.23,715.26 353.00,715.50 C426.34,718.49 513.57,718.54 529.50,715.59 C543.19,713.06 550.56,709.78 559.68,702.18 C566.31,696.65 573.79,685.30 584.50,664.50 C588.18,657.35 592.37,649.25 593.80,646.50 C595.91,642.44 596.41,640.09 596.44,634.00 C596.47,627.30 596.11,625.86 593.10,620.50 C591.24,617.20 588.89,613.43 587.86,612.12 C586.84,610.80 586.00,609.34 586.00,608.87 C586.00,607.58 590.42,607.82 591.78,609.18 C593.76,611.16 603.13,611.93 606.20,610.37 C615.76,605.51 637.27,613.62 644.09,624.65 C649.52,633.42 648.53,642.65 640.65,656.83 C637.70,662.15 633.70,669.42 631.77,673.00 C614.65,704.67 601.13,726.75 595.00,733.03 C588.16,740.02 578.69,745.38 568.40,748.07 C562.02,749.74 555.58,750.30 535.00,750.99 C493.59,752.36 427.15,752.81 388.00,751.99 ZM 277.00 604.01 C277.00,602.64 283.00,600.27 288.59,599.43 C295.66,598.37 293.84,600.94 285.94,603.17 C278.58,605.25 277.00,605.40 277.00,604.01 ZM 431.18 475.52 C420.98,473.56 417.59,472.36 409.00,467.68 C397.80,461.57 386.46,449.90 381.14,439.00 C367.30,410.66 371.39,380.78 392.14,358.56 C403.80,346.07 417.83,338.91 434.21,337.08 C465.02,333.65 492.93,347.84 506.31,373.74 C512.19,385.13 514.28,393.69 514.32,406.50 C514.39,437.87 493.70,465.29 463.33,474.07 C454.31,476.68 440.48,477.30 431.18,475.52 Z" fill="rgb(254,254,253)"/>
</g>
</svg>