<svg xmlns="http://www.w3.org/2000/svg" width="1024" height="1024" viewBox="0 0 1024 1024"><g><path fill="#E87806" d="M 538.66 650.96 C525.59,654.33 511.36,655.48 501.50,653.97 C489.04,652.06 472.77,645.27 458.81,636.15 C454.58,633.38 446.83,628.88 441.59,626.15 C429.21,619.69 427.45,618.40 415.18,606.76 C409.50,601.38 400.50,593.74 395.18,589.78 C389.86,585.82 380.45,577.75 374.28,571.85 C368.11,565.95 360.91,559.91 358.28,558.44 C341.72,549.14 332.27,539.93 325.50,526.47 C322.05,519.61 314.51,511.55 308.00,507.74 C305.52,506.30 294.95,501.90 284.50,497.97 C274.05,494.05 263.48,490.01 261.00,489.01 C258.52,488.01 250.92,485.03 244.10,482.39 C237.28,479.75 230.30,476.67 228.60,475.53 C222.23,471.28 220.68,463.99 223.45,451.20 C224.82,444.86 232.51,405.38 237.03,381.50 C240.77,361.69 244.78,338.61 245.45,333.00 C245.81,329.98 247.02,323.23 248.14,318.00 C249.27,312.77 250.79,305.50 251.53,301.84 C253.87,290.20 259.57,283.90 269.00,282.52 C274.01,281.79 291.76,284.55 304.65,288.06 C308.97,289.24 314.08,290.57 316.00,291.02 C322.17,292.47 330.52,295.45 333.05,297.11 C334.40,297.99 336.49,299.03 337.71,299.41 C338.92,299.79 342.06,301.88 344.68,304.05 C348.35,307.08 352.11,308.83 360.98,311.61 C379.82,317.52 399.36,323.99 401.50,325.02 C402.60,325.55 406.65,326.70 410.50,327.57 C418.67,329.42 423.53,332.11 424.37,335.26 C425.75,340.41 425.03,344.12 422.08,347.08 C417.66,351.50 413.20,351.05 386.50,343.48 C359.33,335.77 355.94,335.15 352.70,337.28 C346.70,341.21 334.86,369.63 315.32,427.00 C302.36,465.05 299.53,474.34 300.29,476.30 C300.61,477.16 305.97,481.50 312.19,485.95 C318.41,490.41 325.68,495.84 328.34,498.03 C331.00,500.21 334.05,502.00 335.13,502.00 C336.21,502.00 339.20,500.05 341.79,497.66 C346.79,493.05 356.85,485.43 361.00,483.10 C362.62,482.19 366.88,481.66 373.07,481.60 C381.22,481.51 383.41,481.86 387.79,483.91 C396.64,488.05 400.45,496.61 395.97,502.31 C392.71,506.45 390.67,506.50 384.94,502.55 C375.83,496.29 371.98,497.75 358.59,512.54 C347.63,524.65 347.50,525.81 356.11,534.11 C362.43,540.19 365.65,541.33 370.00,539.00 C371.02,538.45 376.90,532.49 383.05,525.75 C389.21,519.01 395.61,512.91 397.27,512.19 C398.93,511.47 403.84,507.64 408.20,503.69 C412.55,499.74 417.55,495.97 419.31,495.33 C424.16,493.54 439.03,493.70 443.54,495.58 C450.90,498.66 464.00,514.54 464.00,520.39 C464.00,521.19 465.12,523.17 466.48,524.79 C468.36,527.03 470.12,527.89 473.80,528.38 C486.91,530.12 499.92,541.73 502.49,554.00 C503.50,558.84 505.48,560.74 510.34,561.53 C516.19,562.49 525.49,567.64 528.52,571.61 C532.71,577.10 534.00,582.29 534.00,593.59 C534.00,601.69 533.54,605.16 531.87,609.63 L 529.73 615.33 L 533.12 618.21 C539.95,624.02 546.53,628.00 549.29,628.00 C550.83,628.00 553.54,627.26 555.30,626.35 C561.09,623.37 569.77,616.79 571.04,614.43 C572.13,612.39 571.94,611.72 569.51,608.81 C567.99,606.99 562.41,601.46 557.12,596.52 C531.55,572.64 531.49,572.58 531.60,567.47 C531.71,562.16 533.78,559.56 538.61,558.68 C542.55,557.95 546.03,559.80 554.76,567.25 C580.00,588.78 586.95,594.62 590.40,597.14 C595.91,601.18 599.65,600.93 605.66,596.13 C614.96,588.69 619.00,584.39 619.01,581.90 C619.01,580.08 613.55,574.15 596.56,557.50 C584.22,545.40 573.71,534.38 573.23,533.00 C571.86,529.11 572.57,523.98 574.80,521.75 C578.40,518.15 583.88,519.01 591.18,524.31 C597.26,528.73 601.57,532.49 625.93,554.65 C632.07,560.24 638.25,565.10 639.67,565.45 C641.52,565.92 643.28,565.41 645.87,563.66 C652.08,559.48 664.00,547.60 664.00,545.60 C664.00,544.45 653.71,533.34 638.00,517.52 L 612.00 491.34 L 612.00 486.81 C612.00,478.19 617.86,474.29 625.35,477.94 C629.73,480.07 647.41,495.28 662.50,509.89 C683.30,530.04 683.53,530.15 691.54,523.97 C698.45,518.63 704.63,510.95 706.19,505.76 C708.22,498.97 705.61,495.61 672.51,462.42 C645.83,435.69 636.46,427.12 613.41,408.44 C610.05,405.72 601.11,398.10 593.54,391.50 C571.68,372.46 569.83,370.95 565.85,368.92 C562.51,367.22 559.87,367.00 542.79,367.02 C526.10,367.04 522.94,367.30 519.38,368.92 C511.96,372.28 481.61,402.47 467.52,420.50 C452.52,439.69 448.51,442.74 437.06,443.70 C431.74,444.14 426.79,443.56 413.90,440.98 C395.41,437.27 392.58,436.31 388.62,432.35 C383.63,427.36 382.69,424.42 383.28,415.80 C384.21,402.23 390.31,392.42 412.10,369.50 C422.54,358.52 434.06,345.44 439.24,338.70 C443.52,333.13 457.40,327.10 475.50,322.95 C495.65,318.32 502.43,317.78 550.50,317.02 C598.70,316.25 612.86,315.20 638.00,310.51 C642.67,309.63 650.29,308.27 654.93,307.48 C659.56,306.69 665.64,305.39 668.43,304.60 C671.22,303.81 676.09,302.65 679.25,302.01 C683.17,301.23 686.51,299.69 689.75,297.17 C695.00,293.10 698.34,291.79 708.00,290.04 C711.58,289.40 716.30,288.44 718.50,287.92 C726.32,286.07 749.74,283.07 761.69,282.40 L 773.83 281.71 L 778.33 284.55 C783.55,287.86 787.20,294.75 788.90,304.50 C792.64,326.04 795.17,339.09 798.03,351.50 C798.54,353.70 799.85,360.23 800.95,366.00 C819.14,461.88 819.49,464.23 816.70,469.59 C813.24,476.24 810.13,477.78 770.50,492.49 C731.02,507.14 732.61,506.15 721.92,522.64 C715.11,533.14 705.94,542.18 695.06,549.10 C684.13,556.05 681.56,558.02 671.00,567.58 C665.78,572.30 657.72,578.72 653.10,581.83 C648.47,584.95 640.82,591.04 636.10,595.36 C627.88,602.88 616.52,610.78 593.50,625.00 C566.70,641.55 556.60,646.33 538.66,650.96 ZM 719.06 472.72 C724.25,478.33 729.17,482.92 730.00,482.90 C732.23,482.86 743.20,476.74 744.31,474.91 C745.02,473.75 743.78,469.46 739.68,458.91 C736.60,450.99 731.80,438.42 729.01,431.00 C713.28,389.06 704.80,368.39 695.93,350.31 C688.73,335.65 685.77,332.00 681.09,332.00 C679.63,332.00 671.03,333.55 661.97,335.44 C644.81,339.03 626.52,341.90 604.62,344.44 C597.53,345.26 591.48,346.18 591.18,346.48 C590.40,347.27 595.51,352.38 612.00,367.33 C653.27,404.75 686.10,437.06 719.06,472.72 ZM 769.11 459.75 C770.11,462.09 771.51,464.00 772.21,464.00 C772.92,464.00 776.31,462.81 779.75,461.35 C786.96,458.29 787.10,457.84 784.42,446.31 C783.55,442.57 781.56,433.42 780.01,426.00 C778.46,418.58 775.60,405.08 773.66,396.00 C768.90,373.81 759.48,329.21 757.68,320.33 C755.92,311.68 755.62,311.16 751.54,309.45 C747.95,307.95 742.60,308.47 726.00,311.89 C714.89,314.19 711.00,315.53 711.00,317.06 C711.00,317.67 714.57,325.44 718.93,334.33 C727.17,351.13 743.49,389.79 750.02,408.00 C752.10,413.77 754.34,419.85 755.00,421.50 C757.26,427.09 761.07,437.46 764.18,446.50 C765.89,451.45 768.11,457.41 769.11,459.75 ZM 269.83 464.02 C275.95,465.87 277.20,464.91 278.34,457.50 C279.57,449.50 289.95,415.17 297.98,392.50 C299.54,388.10 301.37,382.70 302.03,380.50 C304.28,373.10 320.13,336.99 324.11,330.22 C326.28,326.52 327.93,322.60 327.77,321.50 C327.39,318.68 318.55,314.51 306.87,311.61 C297.03,309.18 292.93,309.17 290.93,311.58 C290.32,312.32 287.84,322.74 285.44,334.72 C274.95,387.02 272.36,398.95 263.55,435.30 C261.05,445.64 259.00,455.12 259.00,456.37 C259.00,458.69 264.09,462.29 269.83,464.02 ZM 419.49 417.19 C430.37,420.41 439.08,418.03 446.54,409.82 C450.30,405.69 452.63,402.65 465.57,385.00 C468.60,380.88 476.23,372.28 482.54,365.90 C488.84,359.52 494.00,353.72 494.00,353.02 C494.00,349.72 464.80,355.31 458.03,359.90 C455.92,361.33 448.54,368.80 441.64,376.50 C434.74,384.20 425.04,394.77 420.08,400.00 C411.29,409.26 409.36,412.87 412.24,414.65 C412.92,415.07 416.18,416.21 419.49,417.19 ZM 402.70 572.53 C407.62,575.09 409.55,574.39 415.71,567.79 C418.89,564.37 424.88,557.96 429.02,553.54 C445.07,536.38 447.60,533.88 447.96,531.09 C448.03,530.57 448.02,530.04 448.01,529.40 C448.00,529.14 448.00,528.85 448.00,528.55 C448.00,524.45 447.52,523.47 443.61,519.56 C441.19,517.14 437.79,514.43 436.05,513.52 C430.63,510.72 427.81,512.52 411.36,529.28 C393.48,547.49 389.00,552.88 389.00,556.20 C389.00,560.92 395.66,568.85 402.70,572.53 ZM 442.94 605.03 C445.11,606.18 446.67,607.01 448.26,607.06 C452.40,607.18 456.71,602.00 472.28,583.22 L 472.37 583.12 C487.46,564.94 488.74,562.28 485.40,556.05 C484.35,554.10 481.26,551.01 478.53,549.18 C473.23,545.64 469.84,545.48 463.99,548.50 C461.53,549.78 448.54,563.99 435.25,579.93 C427.17,589.63 427.06,591.57 434.19,598.27 C437.05,600.96 440.99,604.00 442.94,605.03 ZM 490.23 630.76 C495.25,632.70 495.64,632.72 498.50,631.10 C500.32,630.07 503.03,626.66 505.39,622.45 C511.20,612.07 515.92,604.12 519.79,598.20 L 523.26 592.90 L 521.46 588.90 C518.67,582.73 513.83,579.00 508.59,579.00 C503.61,579.00 502.38,580.13 488.43,597.50 C477.06,611.67 476.00,613.35 476.00,617.32 C476.00,620.22 476.77,621.51 480.48,624.77 C482.94,626.94 487.33,629.64 490.23,630.76 Z"/><path fill="#F7E8CC" d="M 538.66 650.96 C556.60,646.33 566.70,641.55 593.50,625.00 C616.52,610.78 627.88,602.88 636.10,595.36 C640.82,591.04 648.47,584.95 653.10,581.83 C657.72,578.72 665.78,572.30 671.00,567.58 C681.56,558.02 684.13,556.05 695.06,549.10 C705.94,542.18 715.11,533.14 721.92,522.64 C732.61,506.15 731.02,507.14 770.50,492.49 C810.13,477.78 813.24,476.24 816.70,469.59 C818.70,465.75 819.08,463.46 812.48,427.33 C814.56,438.05 816.21,446.15 816.92,449.00 C819.87,460.67 820.46,467.83 818.65,469.84 C817.81,470.76 816.08,474.74 814.80,478.68 C811.59,488.59 806.80,493.53 795.86,498.24 C783.88,503.39 766.32,510.00 764.59,510.00 C763.78,510.00 762.88,510.39 762.58,510.87 C762.28,511.35 760.64,512.02 758.93,512.36 C753.84,513.38 735.74,522.91 732.41,526.33 C730.71,528.07 728.19,530.26 726.80,531.19 C725.42,532.12 723.53,534.47 722.60,536.43 C721.68,538.38 720.08,540.42 719.06,540.97 C718.04,541.51 716.75,543.20 716.19,544.73 C714.68,548.85 699.69,563.56 694.01,566.50 C692.34,567.36 687.35,570.86 682.92,574.28 C678.49,577.70 673.27,581.66 671.32,583.07 C669.37,584.49 667.35,586.40 666.84,587.32 C666.32,588.25 664.54,589.70 662.88,590.56 C658.04,593.07 648.42,600.71 646.58,603.51 C645.65,604.93 643.68,606.61 642.20,607.25 C640.71,607.89 637.41,610.23 634.86,612.45 C621.62,624.00 617.67,626.82 607.00,632.39 C603.97,633.97 601.05,635.79 600.50,636.44 C596.69,640.91 563.34,658.88 553.19,661.93 C537.38,666.68 531.06,668.34 524.00,669.61 C516.95,670.88 510.78,671.24 508.50,670.53 C507.95,670.35 503.90,669.43 499.50,668.47 C495.10,667.50 490.75,666.33 489.83,665.87 C488.91,665.40 485.19,664.59 481.56,664.08 C477.07,663.44 473.45,662.18 470.23,660.10 C467.63,658.43 462.31,655.54 458.42,653.68 C449.31,649.31 439.76,643.51 428.50,635.48 C423.55,631.95 417.25,627.53 414.50,625.65 C411.75,623.78 408.07,620.45 406.31,618.25 C404.56,616.06 400.96,612.84 398.31,611.09 C391.88,606.85 386.68,602.57 380.33,596.30 C377.43,593.44 374.15,590.61 373.04,590.02 C371.93,589.43 370.33,587.60 369.48,585.97 C368.64,584.34 367.37,583.00 366.66,583.00 C365.96,583.00 362.95,580.93 359.98,578.39 C357.01,575.85 352.22,572.45 349.34,570.82 C341.67,566.49 330.33,555.53 325.20,547.50 C322.75,543.65 319.49,539.15 317.96,537.50 C316.44,535.85 313.53,532.60 311.50,530.27 C307.69,525.91 293.24,517.00 287.00,515.16 C281.21,513.44 276.64,511.56 274.00,509.78 C272.62,508.86 268.84,507.41 265.60,506.57 C256.66,504.24 249.58,501.39 239.05,495.88 C223.33,487.64 219.00,482.08 219.00,470.08 C219.00,465.77 219.48,462.63 220.25,461.91 C221.02,461.20 221.36,458.98 221.13,456.19 C220.93,453.68 221.31,449.13 221.97,446.07 C222.63,443.00 223.37,439.50 223.60,438.28 C223.83,437.06 224.61,435.51 225.34,434.83 C226.06,434.16 226.45,432.57 226.21,431.30 C225.60,428.10 227.05,413.46 227.85,414.76 C228.21,415.34 228.52,413.49 228.55,410.66 C228.61,404.54 230.73,394.05 232.29,392.16 C233.34,390.88 233.78,388.32 235.97,370.57 C236.51,366.21 237.41,362.19 237.98,361.62 C238.54,361.06 239.00,358.69 239.00,356.36 C239.00,354.03 239.45,351.84 240.00,351.50 C240.55,351.16 241.00,349.58 241.00,347.99 C241.00,345.22 242.77,340.05 244.08,339.00 C244.42,338.73 245.02,336.02 245.40,333.00 C245.79,329.98 247.02,323.23 248.14,318.00 C247.02,323.23 245.81,329.98 245.45,333.00 C244.78,338.61 240.77,361.69 237.03,381.50 C232.51,405.38 224.82,444.86 223.45,451.20 C220.68,463.99 222.23,471.28 228.60,475.53 C230.30,476.67 237.28,479.75 244.10,482.39 C250.92,485.03 258.52,488.01 261.00,489.01 C263.48,490.01 274.05,494.05 284.50,497.97 C294.95,501.90 305.52,506.30 308.00,507.74 C314.51,511.55 322.05,519.61 325.50,526.47 C332.27,539.93 341.72,549.14 358.28,558.44 C360.91,559.91 368.11,565.95 374.28,571.85 C380.45,577.75 389.86,585.82 395.18,589.78 C400.50,593.74 409.50,601.38 415.18,606.76 C427.45,618.40 429.21,619.69 441.59,626.15 C446.83,628.88 454.58,633.38 458.81,636.15 C472.77,645.27 489.04,652.06 501.50,653.97 C511.36,655.48 525.59,654.33 538.66,650.96 ZM 719.06 472.72 C686.10,437.06 653.27,404.75 612.00,367.33 C595.51,352.38 590.40,347.27 591.18,346.48 C591.48,346.18 597.53,345.26 604.62,344.44 C626.52,341.90 644.81,339.03 661.97,335.44 C671.03,333.55 679.63,332.00 681.09,332.00 C685.77,332.00 688.73,335.65 695.93,350.31 C704.80,368.39 713.28,389.06 729.01,431.00 C731.80,438.42 736.60,450.99 739.68,458.91 C743.78,469.46 745.02,473.75 744.31,474.91 C743.20,476.74 732.23,482.86 730.00,482.90 C729.17,482.92 724.25,478.33 719.06,472.72 ZM 592.06 595.45 C595.05,596.84 597.89,597.98 598.37,597.99 C599.90,598.01 606.90,590.40 607.99,587.53 C608.78,585.46 608.72,584.35 607.77,583.15 C601.93,575.80 598.52,572.26 586.37,561.00 C578.92,554.10 576.24,550.67 575.75,547.43 C575.58,546.33 574.38,543.94 573.09,542.13 C571.20,539.47 570.73,537.53 570.71,532.16 C570.68,523.47 571.53,520.71 574.89,518.73 C577.73,517.05 581.87,517.39 583.23,519.41 C583.75,520.17 583.97,520.15 583.98,519.32 C584.01,517.52 593.74,523.98 600.95,530.59 C635.89,562.63 637.31,563.71 642.57,562.39 C643.90,562.06 646.79,559.64 648.98,557.02 C652.28,553.09 653.01,551.43 653.15,547.56 C653.30,543.67 652.87,542.42 650.63,540.19 C648.54,538.10 647.75,537.80 647.11,538.83 C646.45,539.90 646.15,539.84 645.65,538.53 C645.28,537.58 645.43,537.15 646.01,537.51 C646.56,537.84 647.00,537.39 647.00,536.50 C647.00,535.55 645.15,534.07 642.49,532.89 C638.76,531.24 637.06,529.62 634.44,525.22 C634.35,525.06 633.26,524.74 632.03,524.51 C628.79,523.88 626.87,521.97 627.50,520.00 C627.87,518.83 626.92,517.41 624.52,515.59 C622.59,514.11 621.00,512.47 621.00,511.95 C621.00,511.43 620.10,510.10 619.00,509.00 C617.90,507.90 617.00,506.18 617.00,505.18 C617.00,504.18 615.52,501.59 613.71,499.43 C610.82,495.98 610.39,494.69 610.12,488.80 C609.90,483.79 610.27,481.36 611.59,479.12 C613.27,476.28 613.65,476.15 619.89,476.22 C626.29,476.31 626.55,476.42 632.96,481.76 C644.29,491.21 653.09,499.15 664.75,510.48 C670.97,516.52 677.06,522.02 678.28,522.70 C679.50,523.37 682.54,523.95 685.04,523.96 C689.09,524.00 690.04,523.54 693.79,519.71 C697.74,515.69 698.00,515.07 698.00,509.75 C698.00,504.92 697.57,503.58 695.13,500.78 C693.55,498.98 691.41,496.15 690.37,494.50 C689.34,492.85 683.33,486.55 677.03,480.50 C670.73,474.45 664.50,468.26 663.19,466.75 C661.89,465.24 659.94,464.00 658.86,464.00 C657.58,464.00 656.53,462.96 655.85,461.00 C655.27,459.35 654.36,458.00 653.82,458.00 C652.34,458.00 640.00,445.88 640.00,444.44 C640.00,443.75 637.67,441.46 634.82,439.34 C631.97,437.23 628.03,434.27 626.07,432.77 C624.11,431.28 620.92,428.97 619.00,427.64 C617.08,426.32 614.38,424.02 613.00,422.53 C610.35,419.66 603.86,415.01 598.95,412.47 C596.88,411.40 596.00,410.21 596.00,408.45 C596.00,406.76 595.25,405.67 593.68,405.07 C592.41,404.58 587.38,400.93 582.52,396.96 C574.59,390.48 571.48,388.13 563.05,382.22 C559.83,379.96 544.08,378.90 534.00,380.25 C528.73,380.96 524.87,382.20 521.00,384.42 C517.97,386.16 514.15,388.25 512.50,389.07 C510.78,389.93 509.36,391.51 509.18,392.79 C509.00,394.01 507.88,395.52 506.68,396.15 C505.48,396.78 503.02,398.58 501.22,400.15 C499.41,401.72 497.34,403.00 496.62,403.00 C494.56,403.00 492.20,406.21 491.83,409.50 C491.56,411.93 490.98,412.56 488.75,412.82 C487.24,412.99 485.55,413.98 484.99,415.01 C484.44,416.05 482.22,418.93 480.07,421.42 C477.91,423.91 475.87,426.83 475.53,427.91 C475.19,428.98 472.89,430.84 470.43,432.04 C467.85,433.28 465.31,435.43 464.45,437.09 C463.63,438.68 461.89,440.68 460.58,441.54 C459.28,442.39 458.00,443.90 457.74,444.88 C457.15,447.16 449.98,451.99 443.50,454.49 C435.87,457.42 425.16,456.99 410.33,453.16 C394.53,449.07 393.65,448.70 389.59,444.52 C382.24,436.95 379.63,429.81 379.94,418.06 C380.10,412.06 380.65,409.73 382.78,406.06 C384.24,403.55 385.78,401.35 386.22,401.16 C386.66,400.98 386.78,400.45 386.49,399.99 C386.00,399.18 387.89,395.84 394.50,385.81 C396.15,383.31 398.78,380.52 400.34,379.63 C401.90,378.73 403.69,376.64 404.31,375.00 C404.93,373.35 405.75,372.00 406.13,372.00 C406.52,372.00 407.94,370.02 409.29,367.60 C412.40,362.04 411.44,359.72 407.36,362.93 L 404.53 365.16 L 402.31 362.58 C401.09,361.16 399.29,359.99 398.30,359.99 C397.31,359.98 394.57,359.30 392.20,358.47 C381.54,354.76 368.80,352.00 362.32,352.00 C356.11,352.00 355.14,352.28 352.22,354.94 C350.45,356.56 349.00,358.37 349.00,358.97 C349.00,359.56 347.88,360.56 346.50,361.18 C345.12,361.81 344.00,363.13 344.00,364.12 C344.00,365.11 341.89,368.51 339.31,371.68 C335.61,376.23 334.67,378.12 334.84,380.70 C334.98,382.76 334.16,385.33 332.60,387.73 C331.24,389.80 329.95,393.08 329.73,395.00 C329.31,398.68 329.21,398.98 325.49,408.50 C324.20,411.80 322.83,415.59 322.45,416.93 C322.06,418.27 320.68,421.38 319.37,423.83 C318.07,426.29 317.00,428.91 317.00,429.66 C317.00,430.41 316.60,431.81 316.12,432.76 C314.59,435.77 311.51,449.04 307.80,468.58 C306.10,477.59 307.80,481.20 316.55,487.12 C320.30,489.66 324.07,492.58 324.93,493.62 C330.00,499.71 335.80,500.46 341.25,495.75 C349.19,488.89 351.92,486.93 355.65,485.45 C357.23,484.81 359.21,483.96 360.66,483.30 C356.32,485.84 346.66,493.18 341.79,497.66 C339.20,500.05 336.21,502.00 335.13,502.00 C334.05,502.00 331.00,500.21 328.34,498.03 C325.68,495.84 318.41,490.41 312.19,485.95 C305.97,481.50 300.61,477.16 300.29,476.30 C299.53,474.34 302.36,465.05 315.32,427.00 C334.86,369.63 346.70,341.21 352.70,337.28 C355.94,335.15 359.33,335.77 386.50,343.48 C413.20,351.05 417.66,351.50 422.08,347.08 C425.03,344.12 425.75,340.41 424.37,335.26 C423.53,332.11 418.67,329.42 410.50,327.57 C406.65,326.70 402.60,325.55 401.50,325.02 C400.45,324.51 395.19,322.69 387.88,320.27 C393.89,322.10 401.30,324.05 405.99,325.00 C411.76,326.18 418.00,328.07 419.85,329.21 C424.39,332.02 426.99,336.59 427.00,341.75 C427.00,344.50 427.44,345.99 428.25,345.97 C430.37,345.92 436.57,341.67 439.34,338.37 C440.49,337.00 442.32,335.57 444.69,334.14 C442.24,335.66 440.39,337.20 439.24,338.70 C434.06,345.44 422.54,358.52 412.10,369.50 C390.31,392.42 384.21,402.23 383.28,415.80 C382.69,424.42 383.63,427.36 388.62,432.35 C392.58,436.31 395.41,437.27 413.90,440.98 C426.79,443.56 431.74,444.14 437.06,443.70 C448.51,442.74 452.52,439.69 467.52,420.50 C481.61,402.47 511.96,372.28 519.38,368.92 C522.94,367.30 526.10,367.04 542.79,367.02 C559.87,367.00 562.51,367.22 565.85,368.92 C569.83,370.95 571.68,372.46 593.54,391.50 C601.11,398.10 610.05,405.72 613.41,408.44 C636.46,427.12 645.83,435.69 672.51,462.42 C705.61,495.61 708.22,498.97 706.19,505.76 C704.63,510.95 698.45,518.63 691.54,523.97 C683.53,530.15 683.30,530.04 662.50,509.89 C647.41,495.28 629.73,480.07 625.35,477.94 C617.86,474.29 612.00,478.19 612.00,486.81 L 612.00 491.34 L 638.00 517.52 C653.71,533.34 664.00,544.45 664.00,545.60 C664.00,547.60 652.08,559.48 645.87,563.66 C643.28,565.41 641.52,565.92 639.67,565.45 C638.25,565.10 632.07,560.24 625.93,554.65 C601.57,532.49 597.26,528.73 591.18,524.31 C583.88,519.01 578.40,518.15 574.80,521.75 C572.57,523.98 571.86,529.11 573.23,533.00 C573.71,534.38 584.22,545.40 596.56,557.50 C613.55,574.15 619.01,580.08 619.01,581.90 C619.00,584.39 614.96,588.69 605.66,596.13 C599.65,600.93 595.91,601.18 590.40,597.14 C586.95,594.62 580.00,588.78 554.76,567.25 C549.03,562.36 545.56,559.88 542.74,558.96 C544.29,559.30 545.68,560.04 547.38,561.34 C549.37,562.86 551.00,563.77 551.00,563.36 C551.00,562.96 552.24,563.78 553.75,565.18 C555.26,566.59 557.85,568.58 559.50,569.60 C561.15,570.63 564.34,573.28 566.59,575.49 C568.83,577.70 572.16,580.63 573.99,582.01 C575.82,583.38 579.40,586.39 581.96,588.71 C584.52,591.02 589.06,594.05 592.06,595.45 ZM 726.00 477.59 C726.00,479.57 729.08,479.28 731.75,477.06 C734.42,474.83 734.50,474.21 732.42,471.91 C731.18,470.54 731.08,469.72 731.95,468.08 C733.51,465.18 732.24,456.59 729.37,450.59 C727.65,446.99 727.31,445.33 728.09,444.39 C729.43,442.78 728.36,439.08 725.88,436.71 C724.84,435.73 724.00,434.02 724.00,432.92 C724.00,430.03 720.05,418.21 717.43,413.27 C716.19,410.95 714.87,407.21 714.49,404.96 C713.99,401.99 713.14,400.57 711.40,399.77 C710.04,399.15 709.00,397.82 709.00,396.70 C709.00,395.61 708.06,391.56 706.91,387.70 C704.98,381.21 703.60,378.51 697.36,368.99 C695.88,366.73 695.27,364.68 695.65,363.24 C696.12,361.44 695.82,361.00 694.12,361.00 C692.95,361.00 692.00,360.59 692.00,360.08 C692.00,359.57 689.74,356.69 686.98,353.67 C682.04,348.27 675.55,344.00 672.26,344.00 C669.93,344.00 652.22,348.85 648.21,350.58 C646.10,351.49 643.48,351.78 640.96,351.38 C636.19,350.61 624.14,354.18 620.13,357.53 C618.20,359.15 616.63,359.61 614.25,359.26 C611.70,358.88 611.00,359.13 611.00,360.43 C611.00,362.68 617.87,371.82 622.62,375.89 C634.22,385.81 714.06,464.09 715.11,466.57 C715.32,467.08 717.86,469.45 720.75,471.84 C723.64,474.23 726.00,476.82 726.00,477.59 ZM 769.11 459.75 C768.11,457.41 765.89,451.45 764.18,446.50 C761.07,437.46 757.26,427.09 755.00,421.50 C754.34,419.85 752.10,413.77 750.02,408.00 C743.49,389.79 727.17,351.13 718.93,334.33 C714.57,325.44 711.00,317.67 711.00,317.06 C711.00,315.53 714.89,314.19 726.00,311.89 C742.60,308.47 747.95,307.95 751.54,309.45 C755.62,311.16 755.92,311.68 757.68,320.33 C759.48,329.21 768.90,373.81 773.66,396.00 C775.60,405.08 778.46,418.58 780.01,426.00 C781.56,433.42 783.55,442.57 784.42,446.31 C787.10,457.84 786.96,458.29 779.75,461.35 C776.31,462.81 772.92,464.00 772.21,464.00 C771.51,464.00 770.11,462.09 769.11,459.75 ZM 269.83 464.02 C264.09,462.29 259.00,458.69 259.00,456.37 C259.00,455.12 261.05,445.64 263.55,435.30 C272.36,398.95 274.95,387.02 285.44,334.72 C287.84,322.74 290.32,312.32 290.93,311.58 C292.93,309.17 297.03,309.18 306.87,311.61 C318.55,314.51 327.39,318.68 327.77,321.50 C327.93,322.60 326.28,326.52 324.11,330.22 C320.13,336.99 304.28,373.10 302.03,380.50 C301.37,382.70 299.54,388.10 297.98,392.50 C289.95,415.17 279.57,449.50 278.34,457.50 C277.20,464.91 275.95,465.87 269.83,464.02 ZM 771.85 456.82 C771.94,457.59 772.94,458.01 774.25,457.82 C777.02,457.43 778.12,453.00 775.45,453.00 C774.11,453.00 773.95,452.54 774.63,450.75 C775.97,447.28 775.17,419.45 773.58,414.12 C772.27,409.74 770.92,401.94 769.14,388.50 C768.70,385.20 767.37,380.12 766.17,377.21 C764.98,374.31 763.98,370.26 763.96,368.21 C763.93,366.17 763.26,362.70 762.47,360.50 C761.68,358.30 761.02,354.54 761.02,352.15 C761.01,349.43 760.25,346.76 758.99,344.99 C757.89,343.44 756.72,340.67 756.40,338.83 C755.61,334.37 753.15,329.00 751.89,329.00 C751.34,329.00 751.16,328.55 751.50,328.00 C751.84,327.45 751.50,327.00 750.74,327.00 C749.98,327.00 747.59,325.66 745.43,324.03 C740.95,320.64 740.02,320.50 734.50,322.42 C732.30,323.18 727.91,324.13 724.74,324.52 C721.57,324.91 718.75,325.60 718.47,326.05 C718.19,326.50 718.61,328.36 719.40,330.18 C721.63,335.34 727.84,350.39 732.74,362.50 C735.18,368.55 737.61,374.02 738.14,374.65 C738.66,375.29 739.94,378.81 740.99,382.47 C743.43,391.01 749.91,407.74 751.37,409.30 C751.99,409.96 753.08,412.30 753.80,414.50 C759.04,430.62 766.88,449.23 769.33,451.35 C770.51,452.37 771.52,453.72 771.58,454.35 C771.65,454.98 771.76,456.09 771.85,456.82 ZM 274.29 447.74 C275.92,451.26 278.00,448.63 278.00,443.03 C278.00,439.66 278.54,437.82 279.90,436.59 C280.95,435.64 282.09,433.31 282.45,431.41 C283.50,425.84 286.81,416.10 288.47,413.74 C289.31,412.54 290.00,410.82 290.00,409.93 C290.00,409.04 290.72,406.86 291.60,405.09 C292.48,403.33 293.45,400.05 293.75,397.81 C294.11,395.17 294.88,393.58 295.96,393.30 C297.26,392.96 297.54,391.90 297.28,388.36 C297.09,385.81 297.33,384.09 297.85,384.41 C298.35,384.72 299.79,381.71 301.06,377.73 C302.32,373.76 303.91,369.60 304.58,368.50 C305.26,367.40 306.80,364.02 308.01,361.00 C310.65,354.42 312.84,349.42 314.61,345.92 C315.32,344.50 316.17,341.85 316.49,340.03 C316.81,338.21 317.51,335.92 318.04,334.93 C319.73,331.77 319.20,327.86 317.00,327.29 C315.90,327.00 315.00,326.35 315.00,325.84 C315.00,323.82 308.84,322.25 304.62,323.19 C298.52,324.54 290.00,328.68 290.00,330.29 C290.00,331.06 289.10,332.73 288.00,334.00 C286.70,335.50 286.00,337.74 286.00,340.40 C286.00,342.66 285.16,346.75 284.14,349.50 C283.01,352.54 282.46,355.96 282.75,358.23 C283.08,360.87 282.60,363.01 281.14,365.49 C279.38,368.47 279.02,370.97 278.78,381.70 C278.52,393.31 278.31,394.57 276.25,396.64 C274.60,398.31 274.00,400.08 274.00,403.33 C274.00,405.77 273.35,409.30 272.56,411.19 C271.54,413.65 271.37,415.72 271.99,418.44 C272.93,422.65 272.41,424.91 270.08,426.66 C268.77,427.64 268.72,428.33 269.77,431.23 C270.44,433.11 271.00,435.83 271.00,437.27 C271.00,439.75 271.87,442.54 274.29,447.74 ZM 419.49 417.19 C416.18,416.21 412.92,415.07 412.24,414.65 C409.36,412.87 411.29,409.26 420.08,400.00 C425.04,394.77 434.74,384.20 441.64,376.50 C448.54,368.80 455.92,361.33 458.03,359.90 C464.80,355.31 494.00,349.72 494.00,353.02 C494.00,353.72 488.84,359.52 482.54,365.90 C476.23,372.28 468.60,380.88 465.57,385.00 C452.63,402.65 450.30,405.69 446.54,409.82 C439.08,418.03 430.37,420.41 419.49,417.19 ZM 402.70 572.53 C395.66,568.85 389.00,560.92 389.00,556.20 C389.00,552.88 393.48,547.49 411.36,529.28 C427.81,512.52 430.63,510.72 436.05,513.52 C437.79,514.43 441.19,517.14 443.61,519.56 C447.52,523.47 448.00,524.45 448.00,528.55 C448.00,528.85 448.00,529.14 448.01,529.40 C448.02,530.04 448.03,530.57 447.96,531.09 C447.60,533.88 445.07,536.38 429.02,553.54 C424.88,557.96 418.89,564.37 415.71,567.79 C409.55,574.39 407.62,575.09 402.70,572.53 ZM 442.94 605.03 C440.99,604.00 437.05,600.96 434.19,598.27 C427.06,591.57 427.17,589.63 435.25,579.93 C448.54,563.99 461.53,549.78 463.99,548.50 C469.84,545.48 473.23,545.64 478.53,549.18 C481.26,551.01 484.35,554.10 485.40,556.05 C488.74,562.28 487.46,564.94 472.37,583.12 L 472.28 583.22 C456.71,602.00 452.40,607.18 448.26,607.06 C446.67,607.01 445.11,606.18 442.94,605.03 ZM 490.23 630.76 C487.33,629.64 482.94,626.94 480.48,624.77 C476.77,621.51 476.00,620.22 476.00,617.32 C476.00,613.35 477.06,611.67 488.43,597.50 C502.38,580.13 503.61,579.00 508.59,579.00 C513.83,579.00 518.67,582.73 521.46,588.90 L 523.26 592.90 L 519.79 598.20 C515.92,604.12 511.20,612.07 505.39,622.45 C503.03,626.66 500.32,630.07 498.50,631.10 C495.64,632.72 495.25,632.70 490.23,630.76 ZM 511.41 561.74 C512.92,562.00 514.72,562.24 516.88,562.51 C519.87,562.89 521.48,563.71 526.61,567.47 C527.55,568.16 528.53,567.81 529.97,566.27 C531.09,565.07 532.00,563.68 532.00,563.20 C532.00,562.14 533.11,561.01 534.71,560.15 C532.63,561.57 531.67,563.91 531.60,567.47 C531.49,572.58 531.55,572.64 557.12,596.52 C562.41,601.46 567.99,606.99 569.51,608.81 C571.94,611.72 572.13,612.39 571.04,614.43 C569.77,616.79 561.09,623.37 555.30,626.35 C553.54,627.26 550.83,628.00 549.29,628.00 C546.53,628.00 539.95,624.02 533.12,618.21 L 529.73 615.33 L 531.87 609.63 C533.54,605.16 534.00,601.69 534.00,593.59 C534.00,582.29 532.71,577.10 528.52,571.61 C525.67,567.87 517.27,563.09 511.41,561.74 ZM 400.54 567.94 C404.95,571.58 410.00,573.32 410.00,571.20 C410.00,570.76 417.17,563.03 425.94,554.03 C434.71,545.02 441.83,537.39 441.76,537.08 C441.69,536.76 442.17,534.70 442.81,532.50 C444.70,526.09 444.36,522.25 441.84,521.45 C440.25,520.94 439.22,521.38 437.92,523.11 C436.27,525.30 436.03,525.34 434.33,523.80 C432.63,522.27 432.34,522.29 430.14,524.08 C427.51,526.21 424.00,526.64 424.00,524.83 C424.00,524.18 422.96,524.63 421.69,525.83 C420.41,527.02 418.87,528.00 418.25,528.00 C416.95,528.00 415.61,531.57 416.42,532.88 C417.14,534.03 414.38,536.35 413.17,535.61 C411.98,534.87 407.48,538.93 406.65,541.50 C406.16,543.03 406.54,542.85 408.29,540.75 C410.84,537.68 412.00,537.28 412.00,539.46 C412.00,541.26 408.45,543.27 405.04,543.40 C403.35,543.47 402.41,544.16 402.17,545.50 C401.98,546.60 400.86,548.26 399.68,549.18 C398.06,550.45 397.61,551.73 397.85,554.43 C398.13,557.68 397.92,558.00 395.58,558.00 C390.89,558.00 392.55,561.33 400.54,567.94 ZM 385.91 483.08 C390.15,484.48 393.23,486.88 395.81,490.53 C399.87,496.29 400.31,500.66 397.14,503.71 C396.12,504.69 394.50,506.74 393.53,508.25 C391.77,511.00 391.77,511.00 394.38,511.00 C395.82,511.00 397.00,510.56 397.00,510.03 C397.00,509.49 398.46,508.32 400.25,507.42 C402.04,506.53 404.62,504.72 406.00,503.41 C414.59,495.20 421.03,492.00 428.96,492.00 C432.32,492.00 435.00,492.44 435.00,493.00 C435.00,493.55 436.07,494.00 437.38,494.00 C438.73,494.00 440.29,494.39 441.96,495.08 C436.26,493.69 423.69,493.71 419.31,495.33 C417.55,495.97 412.55,499.74 408.20,503.69 C403.84,507.64 398.93,511.47 397.27,512.19 C395.61,512.91 389.21,519.01 383.05,525.75 C376.90,532.49 371.02,538.45 370.00,539.00 C365.65,541.33 362.43,540.19 356.11,534.11 C347.50,525.81 347.63,524.65 358.59,512.54 C371.98,497.75 375.83,496.29 384.94,502.55 C390.67,506.50 392.71,506.45 395.97,502.31 C400.45,496.61 396.64,488.05 387.79,483.91 C387.12,483.59 386.50,483.32 385.91,483.08 ZM 442.84 602.48 C444.85,603.80 447.51,604.91 448.75,604.94 C451.30,605.01 452.75,603.59 463.06,591.00 C465.99,587.42 469.42,583.51 470.69,582.30 C471.96,581.09 473.00,579.29 473.00,578.30 C473.01,575.56 476.60,570.26 478.95,569.52 C480.95,568.88 485.65,561.32 484.66,560.33 C483.63,559.30 480.46,559.34 479.78,560.39 C479.26,561.19 478.50,561.15 477.04,560.25 C474.52,558.69 468.89,558.64 465.58,560.14 C464.20,560.77 461.60,563.71 459.81,566.67 C457.51,570.45 455.42,572.55 452.77,573.72 C450.70,574.64 449.00,575.95 449.00,576.64 C449.00,577.33 447.76,578.51 446.25,579.26 C444.74,580.02 443.58,581.06 443.67,581.59 C443.77,582.11 444.15,583.76 444.53,585.25 C445.11,587.57 444.82,588.12 442.52,588.99 C441.04,589.55 439.45,589.78 438.99,589.49 C437.45,588.54 436.84,592.98 438.02,596.56 C438.75,598.76 440.56,600.99 442.84,602.48 ZM 491.77 628.27 C493.82,628.49 496.05,628.74 496.73,628.83 C497.41,628.92 498.82,627.31 499.88,625.25 C500.94,623.19 502.97,620.49 504.40,619.26 C505.83,618.02 507.00,616.17 507.00,615.14 C507.00,614.12 508.35,611.58 510.00,609.50 C511.65,607.42 513.00,605.15 513.00,604.45 C513.00,603.75 514.52,600.86 516.38,598.04 C519.48,593.34 519.68,592.58 518.78,589.01 C517.63,584.50 514.82,583.04 508.50,583.69 C503.91,584.17 502.48,585.20 503.34,587.43 C504.18,589.63 505.74,589.39 506.52,586.94 C507.19,584.82 509.08,584.74 509.77,586.81 C509.99,587.46 509.10,588.39 507.79,588.89 C506.49,589.39 504.82,590.51 504.09,591.39 C503.25,592.40 501.79,592.82 500.17,592.53 C497.17,591.98 495.74,593.64 497.07,596.12 C498.05,597.97 497.35,601.00 495.93,601.00 C495.46,601.00 494.27,601.86 493.29,602.90 C492.31,603.95 490.44,604.97 489.15,605.15 C487.33,605.42 486.43,606.62 485.15,610.50 C483.92,614.24 483.06,615.43 481.75,615.21 C480.56,615.01 480.00,615.56 480.00,616.96 C480.00,618.08 480.37,619.00 480.83,619.00 C481.29,619.00 483.10,621.00 484.85,623.44 C487.47,627.09 488.70,627.95 491.77,628.27 ZM 423.51 415.85 C428.07,418.63 441.28,414.67 443.67,409.81 C444.13,408.88 446.39,406.12 448.70,403.67 C451.02,401.22 453.20,398.04 453.56,396.60 C453.93,395.16 454.63,393.73 455.13,393.42 C455.62,393.11 456.69,391.28 457.50,389.34 C458.31,387.40 459.87,385.58 460.98,385.30 C462.08,385.01 463.93,383.24 465.09,381.36 C466.78,378.61 466.96,377.66 465.98,376.47 C464.34,374.50 462.78,374.61 455.80,377.15 C450.98,378.91 449.65,379.91 448.53,382.57 C446.84,386.63 442.55,389.70 440.71,388.18 C439.76,387.38 438.48,388.01 435.72,390.62 C432.30,393.84 431.54,395.16 431.89,397.28 C431.96,397.71 431.33,399.40 430.48,401.03 C429.10,403.70 427.96,404.45 425.79,404.13 C425.40,404.07 423.51,405.48 421.59,407.26 C418.24,410.38 418.17,410.58 419.82,412.57 C420.76,413.70 422.42,415.18 423.51,415.85 ZM 361.25 535.28 C363.59,536.09 366.02,536.80 366.66,536.87 C367.71,536.99 374.10,532.14 377.20,528.87 C379.56,526.38 384.00,519.41 384.00,518.20 C384.00,517.54 384.34,517.05 384.75,517.12 C386.98,517.47 389.04,516.88 388.52,516.03 C388.19,515.50 388.60,513.74 389.43,512.13 C391.18,508.75 390.72,508.17 384.68,506.12 C381.37,504.99 380.62,505.03 379.10,506.41 C377.19,508.14 370.47,508.66 371.50,507.00 C372.98,504.60 370.27,506.41 368.04,509.31 C365.82,512.19 365.80,512.32 367.80,510.59 C369.02,509.54 370.35,509.01 370.76,509.43 C371.70,510.38 367.10,514.18 365.90,513.44 C365.40,513.13 365.00,513.36 365.00,513.94 C365.00,514.52 364.42,515.00 363.70,515.00 C362.99,515.00 360.65,516.80 358.50,519.00 C354.76,522.83 354.65,523.14 355.80,526.32 C356.46,528.15 357.00,530.58 357.00,531.73 C357.00,533.28 358.08,534.18 361.25,535.28 ZM 546.75 625.31 C550.29,626.24 551.18,625.94 553.68,622.96 C555.09,621.29 557.63,619.21 559.32,618.33 C561.02,617.46 563.02,616.12 563.77,615.37 C564.93,614.21 564.83,614.00 563.13,614.00 C560.38,614.00 559.57,612.34 561.72,611.14 C563.67,610.04 562.79,608.53 560.18,608.51 C559.26,608.51 558.60,607.97 558.73,607.32 C558.85,606.67 557.45,605.64 555.62,605.04 C552.82,604.11 552.36,603.55 552.76,601.48 C553.10,599.72 552.70,598.84 551.36,598.36 C550.34,597.99 548.78,597.08 547.89,596.32 C546.53,595.16 546.11,595.17 545.09,596.40 C544.15,597.53 544.17,598.32 545.19,600.02 C546.35,601.94 546.24,602.37 544.25,603.72 C542.88,604.65 542.00,606.27 541.99,607.87 C541.99,609.32 541.31,611.79 540.49,613.37 C539.07,616.10 539.13,616.39 542.00,619.65 C543.65,621.53 545.00,623.47 545.00,623.96 C545.00,624.45 545.79,625.06 546.75,625.31 ZM 462.46 515.63 C465.94,521.41 471.34,527.00 473.68,527.00 C479.15,527.00 488.46,532.05 496.09,539.16 C499.02,541.89 500.01,543.88 501.47,550.00 C501.61,550.59 501.75,551.16 501.88,551.69 C498.28,540.31 486.09,530.01 473.80,528.38 C470.12,527.89 468.36,527.03 466.48,524.79 C465.12,523.17 464.00,521.19 464.00,520.39 C464.00,519.17 463.43,517.52 462.46,515.63 ZM 597.40 315.60 C585.68,316.31 571.24,316.69 550.50,317.02 C510.17,317.66 498.90,318.14 484.42,321.01 C486.61,320.41 488.33,319.77 488.78,319.32 C489.49,318.64 491.51,317.84 493.28,317.55 C495.05,317.26 519.22,316.86 547.00,316.66 C570.12,316.50 585.34,316.25 597.40,315.60 ZM 803.18 377.76 C802.47,374.01 801.72,370.09 800.95,366.00 C799.85,360.23 798.54,353.70 798.03,351.50 C795.17,339.09 792.64,326.04 788.90,304.50 C788.62,302.89 788.28,301.35 787.90,299.90 C790.80,308.86 793.56,321.62 796.37,339.00 C797.80,347.83 800.34,362.22 803.18,377.76 ZM 269.49 454.99 C269.84,455.55 270.99,456.00 272.06,456.00 C274.63,456.00 274.64,452.41 272.07,451.04 C270.50,450.20 270.02,450.38 269.50,451.99 C269.16,453.09 269.15,454.44 269.49,454.99 ZM 490.35 600.46 C491.09,602.40 493.00,602.48 493.00,600.56 C493.00,598.97 491.19,597.48 490.31,598.36 C490.00,598.66 490.02,599.61 490.35,600.46 ZM 433.64 519.49 C433.23,520.57 433.71,520.92 435.43,520.78 C436.89,520.66 437.59,520.09 437.28,519.29 C436.61,517.54 434.35,517.66 433.64,519.49 ZM 477.11 556.63 C477.98,557.68 478.62,557.78 479.40,557.00 C480.18,556.22 480.08,555.67 479.04,555.02 C477.01,553.77 475.66,554.89 477.11,556.63 ZM 535.69 583.36 C536.82,584.49 538.00,584.05 538.00,582.50 C538.00,581.67 537.58,581.00 537.06,581.00 C535.80,581.00 534.89,582.56 535.69,583.36 ZM 375.50 502.00 C375.16,502.55 375.58,503.00 376.44,503.00 C377.30,503.00 378.00,502.55 378.00,502.00 C378.00,501.45 377.58,501.00 377.06,501.00 C376.54,501.00 375.84,501.45 375.50,502.00 ZM 450.53 500.56 C454.86,504.19 458.92,508.91 461.30,513.55 C461.32,513.59 461.34,513.62 461.36,513.66 C458.76,509.35 454.59,504.30 450.53,500.56 ZM 361.81 482.75 C361.84,482.73 361.87,482.72 361.90,482.71 C363.25,482.03 368.31,481.50 373.48,481.50 C374.87,481.50 376.19,481.54 377.43,481.61 C376.18,481.58 374.76,481.58 373.07,481.60 C367.73,481.65 363.82,482.06 361.81,482.75 ZM 784.63 291.56 C782.91,288.47 780.79,286.11 778.33,284.55 C781.36,286.47 783.00,288.25 784.63,291.56 ZM 502.50 554.04 C503.88,558.89 505.25,560.46 509.97,561.47 C505.39,560.64 503.49,558.73 502.50,554.04 ZM 368.06 313.85 C365.72,313.10 363.34,312.35 360.98,311.61 C356.01,310.05 352.65,308.82 350.00,307.50 C352.64,308.81 356.01,310.04 360.98,311.60 C363.01,312.24 365.47,313.01 368.06,313.85 Z"/><path fill="#FEFEFD" d="M 0.00 512.00 L 0.00 0.00 L 512.00 0.00 L 1024.00 0.00 L 1024.00 512.00 L 1024.00 1024.00 L 512.00 1024.00 L 0.00 1024.00 L 0.00 512.00 ZM 524.00 669.61 C531.06,668.34 537.38,666.68 553.19,661.93 C563.34,658.88 596.69,640.91 600.50,636.44 C601.05,635.79 603.97,633.97 607.00,632.39 C617.67,626.82 621.62,624.00 634.86,612.45 C637.41,610.23 640.71,607.89 642.20,607.25 C643.68,606.61 645.65,604.93 646.58,603.51 C648.42,600.71 658.04,593.07 662.88,590.56 C664.54,589.70 666.32,588.25 666.84,587.32 C667.35,586.40 669.37,584.49 671.32,583.07 C673.27,581.66 678.49,577.70 682.92,574.28 C687.35,570.86 692.34,567.36 694.01,566.50 C699.69,563.56 714.68,548.85 716.19,544.73 C716.75,543.20 718.04,541.51 719.06,540.97 C720.08,540.42 721.68,538.38 722.60,536.43 C723.53,534.47 725.42,532.12 726.80,531.19 C728.19,530.26 730.71,528.07 732.41,526.33 C735.74,522.91 753.84,513.38 758.93,512.36 C760.64,512.02 762.28,511.35 762.58,510.87 C762.88,510.39 763.78,510.00 764.59,510.00 C766.32,510.00 783.88,503.39 795.86,498.24 C806.80,493.53 811.59,488.59 814.80,478.68 C816.08,474.74 817.81,470.76 818.65,469.84 C820.46,467.83 819.87,460.67 816.92,449.00 C814.42,439.06 800.58,364.99 796.37,339.00 C792.73,316.49 789.18,301.73 785.28,292.95 C783.41,288.71 781.76,286.72 778.33,284.55 L 773.83 281.71 L 761.69 282.40 C749.74,283.07 726.32,286.07 718.50,287.92 C716.30,288.44 711.58,289.40 708.00,290.04 C698.34,291.79 695.00,293.10 689.75,297.17 C686.51,299.69 683.17,301.23 679.25,302.01 C676.09,302.65 671.22,303.81 668.43,304.60 C665.64,305.39 659.56,306.69 654.93,307.48 C650.29,308.27 642.67,309.63 638.00,310.51 C611.28,315.49 599.60,316.28 547.00,316.66 C519.22,316.86 495.05,317.26 493.28,317.55 C491.51,317.84 489.49,318.64 488.78,319.32 C488.08,320.01 484.35,321.18 480.50,321.92 C461.62,325.56 444.29,332.49 439.34,338.37 C436.57,341.67 430.37,345.92 428.25,345.97 C427.44,345.99 427.00,344.50 427.00,341.75 C426.99,336.59 424.39,332.02 419.85,329.21 C418.00,328.07 411.76,326.18 405.99,325.00 C400.22,323.83 390.33,321.14 384.00,319.04 C377.67,316.93 367.31,313.58 360.98,311.60 C352.10,308.82 348.36,307.09 344.68,304.05 C342.06,301.88 338.92,299.79 337.71,299.41 C336.49,299.03 334.40,297.99 333.05,297.11 C330.52,295.45 322.17,292.47 316.00,291.02 C314.08,290.57 308.97,289.24 304.65,288.06 C291.76,284.55 274.01,281.79 269.00,282.52 C259.57,283.90 253.87,290.20 251.53,301.84 C250.79,305.50 249.27,312.77 248.14,318.00 C247.02,323.23 245.79,329.98 245.40,333.00 C245.02,336.02 244.42,338.73 244.08,339.00 C242.77,340.05 241.00,345.22 241.00,347.99 C241.00,349.58 240.55,351.16 240.00,351.50 C239.45,351.84 239.00,354.03 239.00,356.36 C239.00,358.69 238.54,361.06 237.98,361.62 C237.41,362.19 236.51,366.21 235.97,370.57 C233.78,388.32 233.34,390.88 232.29,392.16 C230.73,394.05 228.61,404.54 228.55,410.66 C228.52,413.49 228.21,415.34 227.85,414.76 C227.05,413.46 225.60,428.10 226.21,431.30 C226.45,432.57 226.06,434.16 225.34,434.83 C224.61,435.51 223.83,437.06 223.60,438.28 C223.37,439.50 222.63,443.00 221.97,446.07 C221.31,449.13 220.93,453.68 221.13,456.19 C221.36,458.98 221.02,461.20 220.25,461.91 C219.48,462.63 219.00,465.77 219.00,470.08 C219.00,482.08 223.33,487.64 239.05,495.88 C249.58,501.39 256.66,504.24 265.60,506.57 C268.84,507.41 272.62,508.86 274.00,509.78 C276.64,511.56 281.21,513.44 287.00,515.16 C293.24,517.00 307.69,525.91 311.50,530.27 C313.53,532.60 316.44,535.85 317.96,537.50 C319.49,539.15 322.75,543.65 325.20,547.50 C330.33,555.53 341.67,566.49 349.34,570.82 C352.22,572.45 357.01,575.85 359.98,578.39 C362.95,580.93 365.96,583.00 366.66,583.00 C367.37,583.00 368.64,584.34 369.48,585.97 C370.33,587.60 371.93,589.43 373.04,590.02 C374.15,590.61 377.43,593.44 380.33,596.30 C386.68,602.57 391.88,606.85 398.31,611.09 C400.96,612.84 404.56,616.06 406.31,618.25 C408.07,620.45 411.75,623.78 414.50,625.65 C417.25,627.53 423.55,631.95 428.50,635.48 C439.76,643.51 449.31,649.31 458.42,653.68 C462.31,655.54 467.63,658.43 470.23,660.10 C473.45,662.18 477.07,663.44 481.56,664.08 C485.19,664.59 488.91,665.40 489.83,665.87 C490.75,666.33 495.10,667.50 499.50,668.47 C503.90,669.43 507.95,670.35 508.50,670.53 C510.78,671.24 516.95,670.88 524.00,669.61 ZM 491.77 628.27 C488.70,627.95 487.47,627.09 484.85,623.44 C483.10,621.00 481.29,619.00 480.83,619.00 C480.37,619.00 480.00,618.08 480.00,616.96 C480.00,615.56 480.56,615.01 481.75,615.21 C483.06,615.43 483.92,614.24 485.15,610.50 C486.43,606.62 487.33,605.42 489.15,605.15 C490.44,604.97 492.31,603.95 493.29,602.90 C494.27,601.86 495.46,601.00 495.93,601.00 C497.35,601.00 498.05,597.97 497.07,596.12 C495.74,593.64 497.17,591.98 500.17,592.53 C501.79,592.82 503.25,592.40 504.09,591.39 C504.82,590.51 506.49,589.39 507.79,588.89 C509.10,588.39 509.99,587.46 509.77,586.81 C509.08,584.74 507.19,584.82 506.52,586.94 C505.74,589.39 504.18,589.63 503.34,587.43 C502.48,585.20 503.91,584.17 508.50,583.69 C514.82,583.04 517.63,584.50 518.78,589.01 C519.68,592.58 519.48,593.34 516.38,598.04 C514.52,600.86 513.00,603.75 513.00,604.45 C513.00,605.15 511.65,607.42 510.00,609.50 C508.35,611.58 507.00,614.12 507.00,615.14 C507.00,616.17 505.83,618.02 504.40,619.26 C502.97,620.49 500.94,623.19 499.88,625.25 C498.82,627.31 497.41,628.92 496.73,628.83 C496.05,628.74 493.82,628.49 491.77,628.27 ZM 546.75 625.31 C545.79,625.06 545.00,624.45 545.00,623.96 C545.00,623.47 543.65,621.53 542.00,619.65 C539.13,616.39 539.07,616.10 540.49,613.37 C541.31,611.79 541.99,609.32 541.99,607.87 C542.00,606.27 542.88,604.65 544.25,603.72 C546.24,602.37 546.35,601.94 545.19,600.02 C544.17,598.32 544.15,597.53 545.09,596.40 C546.11,595.17 546.53,595.16 547.89,596.32 C548.78,597.08 550.34,597.99 551.36,598.36 C552.70,598.84 553.10,599.72 552.76,601.48 C552.36,603.55 552.82,604.11 555.62,605.04 C557.45,605.64 558.85,606.67 558.73,607.32 C558.60,607.97 559.26,608.51 560.18,608.51 C562.79,608.53 563.67,610.04 561.72,611.14 C559.57,612.34 560.38,614.00 563.13,614.00 C564.83,614.00 564.93,614.21 563.77,615.37 C563.02,616.12 561.02,617.46 559.32,618.33 C557.63,619.21 555.09,621.29 553.68,622.96 C551.18,625.94 550.29,626.24 546.75,625.31 ZM 442.84 602.48 C440.56,600.99 438.75,598.76 438.02,596.56 C436.84,592.98 437.45,588.54 438.99,589.49 C439.45,589.78 441.04,589.55 442.52,588.99 C444.82,588.12 445.11,587.57 444.53,585.25 C444.15,583.76 443.77,582.11 443.67,581.59 C443.58,581.06 444.74,580.02 446.25,579.26 C447.76,578.51 449.00,577.33 449.00,576.64 C449.00,575.95 450.70,574.64 452.77,573.72 C455.42,572.55 457.51,570.45 459.81,566.67 C461.60,563.71 464.20,560.77 465.58,560.14 C468.89,558.64 474.52,558.69 477.04,560.25 C478.50,561.15 479.26,561.19 479.78,560.39 C480.46,559.34 483.63,559.30 484.66,560.33 C485.65,561.32 480.95,568.88 478.95,569.52 C476.60,570.26 473.01,575.56 473.00,578.30 C473.00,579.29 471.96,581.09 470.69,582.30 C469.42,583.51 465.99,587.42 463.06,591.00 C452.75,603.59 451.30,605.01 448.75,604.94 C447.51,604.91 444.85,603.80 442.84,602.48 ZM 490.35 600.46 C490.02,599.61 490.00,598.66 490.31,598.36 C491.19,597.48 493.00,598.97 493.00,600.56 C493.00,602.48 491.09,602.40 490.35,600.46 ZM 592.06 595.45 C589.06,594.05 584.52,591.02 581.96,588.71 C579.40,586.39 575.82,583.38 573.99,582.01 C572.16,580.63 568.83,577.70 566.59,575.49 C564.34,573.28 561.15,570.63 559.50,569.60 C557.85,568.58 555.26,566.59 553.75,565.18 C552.24,563.78 551.00,562.96 551.00,563.36 C551.00,563.77 549.37,562.86 547.38,561.34 C544.68,559.28 542.75,558.62 539.77,558.74 C536.02,558.89 532.00,561.20 532.00,563.20 C532.00,563.68 531.09,565.07 529.97,566.27 C528.53,567.81 527.55,568.16 526.61,567.47 C521.48,563.71 519.87,562.89 516.88,562.51 C504.46,560.95 504.00,560.58 501.47,550.00 C500.01,543.88 499.02,541.89 496.09,539.16 C488.46,532.05 479.15,527.00 473.68,527.00 C471.06,527.00 464.61,519.99 461.30,513.55 C456.36,503.92 444.23,494.00 437.38,494.00 C436.07,494.00 435.00,493.55 435.00,493.00 C435.00,492.44 432.32,492.00 428.96,492.00 C421.03,492.00 414.59,495.20 406.00,503.41 C404.62,504.72 402.04,506.53 400.25,507.42 C398.46,508.32 397.00,509.49 397.00,510.03 C397.00,510.56 395.82,511.00 394.38,511.00 C391.77,511.00 391.77,511.00 393.53,508.25 C394.50,506.74 396.12,504.69 397.14,503.71 C400.31,500.66 399.87,496.29 395.81,490.53 C391.21,484.01 385.01,481.50 373.48,481.50 C368.31,481.50 363.25,482.03 361.90,482.71 C360.58,483.37 357.77,484.60 355.65,485.45 C351.92,486.93 349.19,488.89 341.25,495.75 C335.80,500.46 330.00,499.71 324.93,493.62 C324.07,492.58 320.30,489.66 316.55,487.12 C307.80,481.20 306.10,477.59 307.80,468.58 C311.51,449.04 314.59,435.77 316.12,432.76 C316.60,431.81 317.00,430.41 317.00,429.66 C317.00,428.91 318.07,426.29 319.37,423.83 C320.68,421.38 322.06,418.27 322.45,416.93 C322.83,415.59 324.20,411.80 325.49,408.50 C329.21,398.98 329.31,398.68 329.73,395.00 C329.95,393.08 331.24,389.80 332.60,387.73 C334.16,385.33 334.98,382.76 334.84,380.70 C334.67,378.12 335.61,376.23 339.31,371.68 C341.89,368.51 344.00,365.11 344.00,364.12 C344.00,363.13 345.12,361.81 346.50,361.18 C347.88,360.56 349.00,359.56 349.00,358.97 C349.00,358.37 350.45,356.56 352.22,354.94 C355.14,352.28 356.11,352.00 362.32,352.00 C368.80,352.00 381.54,354.76 392.20,358.47 C394.57,359.30 397.31,359.98 398.30,359.99 C399.29,359.99 401.09,361.16 402.31,362.58 L 404.53 365.16 L 407.36 362.93 C411.44,359.72 412.40,362.04 409.29,367.60 C407.94,370.02 406.52,372.00 406.13,372.00 C405.75,372.00 404.93,373.35 404.31,375.00 C403.69,376.64 401.90,378.73 400.34,379.63 C398.78,380.52 396.15,383.31 394.50,385.81 C387.89,395.84 386.00,399.18 386.49,399.99 C386.78,400.45 386.66,400.98 386.22,401.16 C385.78,401.35 384.24,403.55 382.78,406.06 C380.65,409.73 380.10,412.06 379.94,418.06 C379.63,429.81 382.24,436.95 389.59,444.52 C393.65,448.70 394.53,449.07 410.33,453.16 C425.16,456.99 435.87,457.42 443.50,454.49 C449.98,451.99 457.15,447.16 457.74,444.88 C458.00,443.90 459.28,442.39 460.58,441.54 C461.89,440.68 463.63,438.68 464.45,437.09 C465.31,435.43 467.85,433.28 470.43,432.04 C472.89,430.84 475.19,428.98 475.53,427.91 C475.87,426.83 477.91,423.91 480.07,421.42 C482.22,418.93 484.44,416.05 484.99,415.01 C485.55,413.98 487.24,412.99 488.75,412.82 C490.98,412.56 491.56,411.93 491.83,409.50 C492.20,406.21 494.56,403.00 496.62,403.00 C497.34,403.00 499.41,401.72 501.22,400.15 C503.02,398.58 505.48,396.78 506.68,396.15 C507.88,395.52 509.00,394.01 509.18,392.79 C509.36,391.51 510.78,389.93 512.50,389.07 C514.15,388.25 517.97,386.16 521.00,384.42 C524.87,382.20 528.73,380.96 534.00,380.25 C544.08,378.90 559.83,379.96 563.05,382.22 C571.48,388.13 574.59,390.48 582.52,396.96 C587.38,400.93 592.41,404.58 593.68,405.07 C595.25,405.67 596.00,406.76 596.00,408.45 C596.00,410.21 596.88,411.40 598.95,412.47 C603.86,415.01 610.35,419.66 613.00,422.53 C614.38,424.02 617.08,426.32 619.00,427.64 C620.92,428.97 624.11,431.28 626.07,432.77 C628.03,434.27 631.97,437.23 634.82,439.34 C637.67,441.46 640.00,443.75 640.00,444.44 C640.00,445.88 652.34,458.00 653.82,458.00 C654.36,458.00 655.27,459.35 655.85,461.00 C656.53,462.96 657.58,464.00 658.86,464.00 C659.94,464.00 661.89,465.24 663.19,466.75 C664.50,468.26 670.73,474.45 677.03,480.50 C683.33,486.55 689.34,492.85 690.37,494.50 C691.41,496.15 693.55,498.98 695.13,500.78 C697.57,503.58 698.00,504.92 698.00,509.75 C698.00,515.07 697.74,515.69 693.79,519.71 C690.04,523.54 689.09,524.00 685.04,523.96 C682.54,523.95 679.50,523.37 678.28,522.70 C677.06,522.02 670.97,516.52 664.75,510.48 C653.09,499.15 644.29,491.21 632.96,481.76 C626.55,476.42 626.29,476.31 619.89,476.22 C613.65,476.15 613.27,476.28 611.59,479.12 C610.27,481.36 609.90,483.79 610.12,488.80 C610.39,494.69 610.82,495.98 613.71,499.43 C615.52,501.59 617.00,504.18 617.00,505.18 C617.00,506.18 617.90,507.90 619.00,509.00 C620.10,510.10 621.00,511.43 621.00,511.95 C621.00,512.47 622.59,514.11 624.52,515.59 C626.92,517.41 627.87,518.83 627.50,520.00 C626.87,521.97 628.79,523.88 632.03,524.51 C633.26,524.74 634.35,525.06 634.44,525.22 C637.06,529.62 638.76,531.24 642.49,532.89 C645.15,534.07 647.00,535.55 647.00,536.50 C647.00,537.39 646.56,537.84 646.01,537.51 C645.43,537.15 645.28,537.58 645.65,538.53 C646.15,539.84 646.45,539.90 647.11,538.83 C647.75,537.80 648.54,538.10 650.63,540.19 C652.87,542.42 653.30,543.67 653.15,547.56 C653.01,551.43 652.28,553.09 648.98,557.02 C646.79,559.64 643.90,562.06 642.57,562.39 C637.31,563.71 635.89,562.63 600.95,530.59 C593.74,523.98 584.01,517.52 583.98,519.32 C583.97,520.15 583.75,520.17 583.23,519.41 C581.87,517.39 577.73,517.05 574.89,518.73 C571.53,520.71 570.68,523.47 570.71,532.16 C570.73,537.53 571.20,539.47 573.09,542.13 C574.38,543.94 575.58,546.33 575.75,547.43 C576.24,550.67 578.92,554.10 586.37,561.00 C598.52,572.26 601.93,575.80 607.77,583.15 C608.72,584.35 608.78,585.46 607.99,587.53 C606.90,590.40 599.90,598.01 598.37,597.99 C597.89,597.98 595.05,596.84 592.06,595.45 ZM 535.69 583.36 C534.89,582.56 535.80,581.00 537.06,581.00 C537.58,581.00 538.00,581.67 538.00,582.50 C538.00,584.05 536.82,584.49 535.69,583.36 ZM 400.54 567.94 C392.55,561.33 390.89,558.00 395.58,558.00 C397.92,558.00 398.13,557.68 397.85,554.43 C397.61,551.73 398.06,550.45 399.68,549.18 C400.86,548.26 401.98,546.60 402.17,545.50 C402.41,544.16 403.35,543.47 405.04,543.40 C408.45,543.27 412.00,541.26 412.00,539.46 C412.00,537.28 410.84,537.68 408.29,540.75 C406.54,542.85 406.16,543.03 406.65,541.50 C407.48,538.93 411.98,534.87 413.17,535.61 C414.38,536.35 417.14,534.03 416.42,532.88 C415.61,531.57 416.95,528.00 418.25,528.00 C418.87,528.00 420.41,527.02 421.69,525.83 C422.96,524.63 424.00,524.18 424.00,524.83 C424.00,526.64 427.51,526.21 430.14,524.08 C432.34,522.29 432.63,522.27 434.33,523.80 C436.03,525.34 436.27,525.30 437.92,523.11 C439.22,521.38 440.25,520.94 441.84,521.45 C444.36,522.25 444.70,526.09 442.81,532.50 C442.17,534.70 441.69,536.76 441.76,537.08 C441.83,537.39 434.71,545.02 425.94,554.03 C417.17,563.03 410.00,570.76 410.00,571.20 C410.00,573.32 404.95,571.58 400.54,567.94 ZM 477.11 556.63 C475.66,554.89 477.01,553.77 479.04,555.02 C480.08,555.67 480.18,556.22 479.40,557.00 C478.62,557.78 477.98,557.68 477.11,556.63 ZM 361.25 535.28 C358.08,534.18 357.00,533.28 357.00,531.73 C357.00,530.58 356.46,528.15 355.80,526.32 C354.65,523.14 354.76,522.83 358.50,519.00 C360.65,516.80 362.99,515.00 363.70,515.00 C364.42,515.00 365.00,514.52 365.00,513.94 C365.00,513.36 365.40,513.13 365.90,513.44 C367.10,514.18 371.70,510.38 370.76,509.43 C370.35,509.01 369.02,509.54 367.80,510.59 C365.80,512.32 365.82,512.19 368.04,509.31 C370.27,506.41 372.98,504.60 371.50,507.00 C370.47,508.66 377.19,508.14 379.10,506.41 C380.62,505.03 381.37,504.99 384.68,506.12 C390.72,508.17 391.18,508.75 389.43,512.13 C388.60,513.74 388.19,515.50 388.52,516.03 C389.04,516.88 386.98,517.47 384.75,517.12 C384.34,517.05 384.00,517.54 384.00,518.20 C384.00,519.41 379.56,526.38 377.20,528.87 C374.10,532.14 367.71,536.99 366.66,536.87 C366.02,536.80 363.59,536.09 361.25,535.28 ZM 433.64 519.49 C434.35,517.66 436.61,517.54 437.28,519.29 C437.59,520.09 436.89,520.66 435.43,520.78 C433.71,520.92 433.23,520.57 433.64,519.49 ZM 375.50 502.00 C375.84,501.45 376.54,501.00 377.06,501.00 C377.58,501.00 378.00,501.45 378.00,502.00 C378.00,502.55 377.30,503.00 376.44,503.00 C375.58,503.00 375.16,502.55 375.50,502.00 ZM 726.00 477.59 C726.00,476.82 723.64,474.23 720.75,471.84 C717.86,469.45 715.32,467.08 715.11,466.57 C714.06,464.09 634.22,385.81 622.62,375.89 C617.87,371.82 611.00,362.68 611.00,360.43 C611.00,359.13 611.70,358.88 614.25,359.26 C616.63,359.61 618.20,359.15 620.13,357.53 C624.14,354.18 636.19,350.61 640.96,351.38 C643.48,351.78 646.10,351.49 648.21,350.58 C652.22,348.85 669.93,344.00 672.26,344.00 C675.55,344.00 682.04,348.27 686.98,353.67 C689.74,356.69 692.00,359.57 692.00,360.08 C692.00,360.59 692.95,361.00 694.12,361.00 C695.82,361.00 696.12,361.44 695.65,363.24 C695.27,364.68 695.88,366.73 697.36,368.99 C703.60,378.51 704.98,381.21 706.91,387.70 C708.06,391.56 709.00,395.61 709.00,396.70 C709.00,397.82 710.04,399.15 711.40,399.77 C713.14,400.57 713.99,401.99 714.49,404.96 C714.87,407.21 716.19,410.95 717.43,413.27 C720.05,418.21 724.00,430.03 724.00,432.92 C724.00,434.02 724.84,435.73 725.88,436.71 C728.36,439.08 729.43,442.78 728.09,444.39 C727.31,445.33 727.65,446.99 729.37,450.59 C732.24,456.59 733.51,465.18 731.95,468.08 C731.08,469.72 731.18,470.54 732.42,471.91 C734.50,474.21 734.42,474.83 731.75,477.06 C729.08,479.28 726.00,479.57 726.00,477.59 ZM 771.85 456.82 C771.76,456.09 771.65,454.98 771.58,454.35 C771.52,453.72 770.51,452.37 769.33,451.35 C766.88,449.23 759.04,430.62 753.80,414.50 C753.08,412.30 751.99,409.96 751.37,409.30 C749.91,407.74 743.43,391.01 740.99,382.47 C739.94,378.81 738.66,375.29 738.14,374.65 C737.61,374.02 735.18,368.55 732.74,362.50 C727.84,350.39 721.63,335.34 719.40,330.18 C718.61,328.36 718.19,326.50 718.47,326.05 C718.75,325.60 721.57,324.91 724.74,324.52 C727.91,324.13 732.30,323.18 734.50,322.42 C740.02,320.50 740.95,320.64 745.43,324.03 C747.59,325.66 749.98,327.00 750.74,327.00 C751.50,327.00 751.84,327.45 751.50,328.00 C751.16,328.55 751.34,329.00 751.89,329.00 C753.15,329.00 755.61,334.37 756.40,338.83 C756.72,340.67 757.89,343.44 758.99,344.99 C760.25,346.76 761.01,349.43 761.02,352.15 C761.02,354.54 761.68,358.30 762.47,360.50 C763.26,362.70 763.93,366.17 763.96,368.21 C763.98,370.26 764.98,374.31 766.17,377.21 C767.37,380.12 768.70,385.20 769.14,388.50 C770.92,401.94 772.27,409.74 773.58,414.12 C775.17,419.45 775.97,447.28 774.63,450.75 C773.95,452.54 774.11,453.00 775.45,453.00 C778.12,453.00 777.02,457.43 774.25,457.82 C772.94,458.01 771.94,457.59 771.85,456.82 ZM 269.49 454.99 C269.15,454.44 269.16,453.09 269.50,451.99 C270.02,450.38 270.50,450.20 272.07,451.04 C274.64,452.41 274.63,456.00 272.06,456.00 C270.99,456.00 269.84,455.55 269.49,454.99 ZM 274.29 447.74 C271.87,442.54 271.00,439.75 271.00,437.27 C271.00,435.83 270.44,433.11 269.77,431.23 C268.72,428.33 268.77,427.64 270.08,426.66 C272.41,424.91 272.93,422.65 271.99,418.44 C271.37,415.72 271.54,413.65 272.56,411.19 C273.35,409.30 274.00,405.77 274.00,403.33 C274.00,400.08 274.60,398.31 276.25,396.64 C278.31,394.57 278.52,393.31 278.78,381.70 C279.02,370.97 279.38,368.47 281.14,365.49 C282.60,363.01 283.08,360.87 282.75,358.23 C282.46,355.96 283.01,352.54 284.14,349.50 C285.16,346.75 286.00,342.66 286.00,340.40 C286.00,337.74 286.70,335.50 288.00,334.00 C289.10,332.73 290.00,331.06 290.00,330.29 C290.00,328.68 298.52,324.54 304.62,323.19 C308.84,322.25 315.00,323.82 315.00,325.84 C315.00,326.35 315.90,327.00 317.00,327.29 C319.20,327.86 319.73,331.77 318.04,334.93 C317.51,335.92 316.81,338.21 316.49,340.03 C316.17,341.85 315.32,344.50 314.61,345.92 C312.84,349.42 310.65,354.42 308.01,361.00 C306.80,364.02 305.26,367.40 304.58,368.50 C303.91,369.60 302.32,373.76 301.06,377.73 C299.79,381.71 298.35,384.72 297.85,384.41 C297.33,384.09 297.09,385.81 297.28,388.36 C297.54,391.90 297.26,392.96 295.96,393.30 C294.88,393.58 294.11,395.17 293.75,397.81 C293.45,400.05 292.48,403.33 291.60,405.09 C290.72,406.86 290.00,409.04 290.00,409.93 C290.00,410.82 289.31,412.54 288.47,413.74 C286.81,416.10 283.50,425.84 282.45,431.41 C282.09,433.31 280.95,435.64 279.90,436.59 C278.54,437.82 278.00,439.66 278.00,443.03 C278.00,448.63 275.92,451.26 274.29,447.74 ZM 423.51 415.85 C422.42,415.18 420.76,413.70 419.82,412.57 C418.17,410.58 418.24,410.38 421.59,407.26 C423.51,405.48 425.40,404.07 425.79,404.13 C427.96,404.45 429.10,403.70 430.48,401.03 C431.33,399.40 431.96,397.71 431.89,397.28 C431.54,395.16 432.30,393.84 435.72,390.62 C438.48,388.01 439.76,387.38 440.71,388.18 C442.55,389.70 446.84,386.63 448.53,382.57 C449.65,379.91 450.98,378.91 455.80,377.15 C462.78,374.61 464.34,374.50 465.98,376.47 C466.96,377.66 466.78,378.61 465.09,381.36 C463.93,383.24 462.08,385.01 460.98,385.30 C459.87,385.58 458.31,387.40 457.50,389.34 C456.69,391.28 455.62,393.11 455.13,393.42 C454.63,393.73 453.93,395.16 453.56,396.60 C453.20,398.04 451.02,401.22 448.70,403.67 C446.39,406.12 444.13,408.88 443.67,409.81 C441.28,414.67 428.07,418.63 423.51,415.85 Z"/></g></svg>