<svg xmlns="http://www.w3.org/2000/svg" width="1024" height="1024" viewBox="0 0 1024 1024">
<g>
<path d="M 624.00 652.61 C605.74,654.10 518.92,655.36 502.50,654.37 C471.92,652.54 439.05,649.04 418.24,645.40 C402.79,642.70 396.66,640.90 393.70,638.23 C389.14,634.10 389.00,632.91 389.00,597.51 C389.00,564.11 389.76,551.33 392.62,537.00 C394.71,526.53 400.56,508.37 403.58,503.00 C406.18,498.36 406.16,499.42 403.45,508.25 C393.74,540.00 393.80,539.53 393.29,588.02 C392.86,629.42 392.90,630.61 394.86,633.09 C397.31,636.21 400.61,637.23 418.50,640.39 C484.70,652.06 567.52,653.67 650.50,644.89 C665.12,643.35 696.93,638.05 700.46,636.58 C701.77,636.03 702.79,635.68 703.59,635.04 C706.51,632.73 706.50,626.74 706.48,594.66 C706.48,593.19 706.47,591.67 706.47,590.09 C706.45,551.11 706.31,547.80 704.22,537.41 C701.32,523.02 692.60,499.00 687.01,490.00 C686.49,489.17 685.05,486.48 683.79,484.00 C682.53,481.52 681.27,479.27 680.98,479.00 C678.29,476.39 675.10,471.65 675.55,470.92 C675.86,470.41 675.39,470.00 674.50,470.00 C673.61,470.00 673.16,469.55 673.50,469.00 C673.84,468.45 673.74,468.00 673.28,468.00 C672.82,468.00 671.90,466.57 671.24,464.82 L 670.04 461.65 L 673.57 465.07 C682.42,473.64 696.46,498.84 702.78,517.50 C710.41,540.00 711.46,549.35 711.48,595.17 C711.50,631.60 711.43,632.94 709.45,635.67 C705.08,641.69 699.23,643.33 665.59,648.02 C644.92,650.91 645.16,650.88 624.00,652.61 ZM 413.64 620.23 C413.01,620.64 412.16,620.98 411.75,620.98 C411.34,620.99 410.93,612.34 410.86,601.75 C410.45,548.12 412.68,533.82 425.54,507.34 C435.45,486.94 444.54,474.55 459.39,461.24 C503.19,421.95 566.70,415.02 616.37,444.09 C627.56,450.64 641.25,461.48 648.17,469.27 C651.65,473.20 655.70,477.73 657.17,479.34 C658.72,481.04 659.59,482.90 659.25,483.80 C658.86,484.81 659.06,485.08 659.85,484.59 C660.51,484.18 660.97,484.22 660.87,484.68 C660.49,486.37 662.25,488.96 663.35,488.33 C663.98,487.97 664.17,488.04 663.78,488.48 C663.38,488.92 664.78,491.36 666.89,493.89 C671.55,499.47 675.66,507.41 678.08,515.49 C679.07,518.80 681.29,526.00 683.01,531.50 C688.23,548.17 688.99,555.34 689.00,588.06 C689.00,612.51 688.75,617.95 687.53,619.56 C686.23,621.28 686.06,618.30 686.03,593.21 C686.00,560.77 685.10,550.28 680.93,533.50 C677.66,520.34 668.71,500.44 660.86,488.89 C654.72,479.83 633.95,459.32 624.70,453.16 C598.08,435.44 565.88,427.50 536.50,431.41 C502.60,435.91 479.82,447.01 456.44,470.43 C436.35,490.54 423.83,513.75 417.83,542.00 C416.12,550.08 415.74,556.58 415.30,585.50 C414.93,609.28 414.43,619.72 413.64,620.23 ZM 567.32 394.50 C529.60,401.08 492.40,385.47 468.19,352.89 C462.01,344.58 460.71,342.27 456.99,333.00 C452.04,320.70 449.72,307.37 450.27,294.50 C450.75,283.31 453.77,267.00 455.36,267.00 C455.84,267.00 455.96,268.01 455.62,269.25 C454.31,274.04 453.75,304.58 454.85,311.55 C457.65,329.33 466.25,346.76 478.82,360.11 C492.24,374.36 509.43,384.97 524.90,388.54 C548.02,393.88 570.56,391.95 589.74,382.99 C609.10,373.94 624.25,360.30 634.27,342.89 C648.85,317.54 649.78,279.81 636.46,254.00 C634.90,250.98 633.52,247.92 633.39,247.20 C633.27,246.49 631.10,243.49 628.58,240.54 C626.06,237.59 624.00,234.69 624.00,234.10 C624.00,233.50 622.61,231.77 620.90,230.26 C619.20,228.74 617.34,226.60 616.76,225.50 C614.56,221.29 629.74,236.78 634.36,243.47 C645.31,259.31 650.00,274.56 650.00,294.32 C650.00,324.42 642.04,344.51 621.71,365.68 C607.27,380.72 588.10,390.88 567.32,394.50 ZM 367.39 625.42 C366.67,627.29 363.99,627.31 354.81,625.48 C346.32,623.79 341.49,621.50 338.98,617.97 C337.12,615.36 337.00,613.50 337.00,588.06 C337.00,558.20 337.89,547.00 341.56,530.50 C344.80,515.92 348.95,504.62 355.10,493.58 C360.85,483.27 360.84,483.34 354.49,499.00 C351.92,505.33 349.64,511.44 349.42,512.59 C349.20,513.74 348.12,517.50 347.01,520.96 C345.91,524.41 344.09,534.36 342.96,543.08 C341.24,556.41 340.96,563.30 341.20,586.44 L 341.50 613.96 L 344.00 616.34 C345.72,617.98 349.08,619.26 354.82,620.46 C359.39,621.42 363.28,622.04 363.45,621.85 C363.62,621.66 364.08,617.51 364.48,612.63 C364.99,606.37 364.88,603.95 364.12,604.43 C363.53,604.79 362.09,604.58 360.92,603.96 C358.83,602.84 358.81,602.51 359.26,576.66 C359.71,550.42 360.22,545.86 364.54,529.12 C368.00,515.68 378.05,494.23 386.28,482.72 C391.94,474.80 405.50,460.56 413.59,454.05 C420.87,448.20 430.69,442.36 431.65,443.32 C431.90,443.57 427.94,447.53 422.85,452.13 C391.04,480.90 381.62,493.68 371.82,521.39 C365.73,538.62 364.01,551.19 364.01,578.71 C364.00,600.91 364.09,601.98 366.00,603.00 C367.79,603.96 368.00,605.09 368.00,613.95 C368.00,619.39 367.73,624.55 367.39,625.42 ZM 377.07 421.40 C365.34,423.39 360.74,423.33 349.97,421.06 C333.20,417.52 322.65,411.67 311.34,399.65 C298.27,385.76 292.10,371.27 291.24,352.46 C290.79,342.61 291.02,340.42 293.37,332.27 C294.82,327.24 296.00,322.42 296.00,321.56 C296.00,320.70 296.44,320.00 296.99,320.00 C297.53,320.00 299.29,317.39 300.90,314.19 C302.52,310.99 304.63,307.73 305.60,306.94 C306.68,306.07 306.31,307.07 304.69,309.48 C303.21,311.67 302.00,313.85 302.00,314.33 C302.00,314.80 301.17,316.39 300.17,317.85 C295.47,324.64 294.70,328.68 294.92,345.32 C295.17,364.34 296.68,371.27 303.01,382.55 C308.23,391.85 320.01,404.15 328.13,408.78 C350.76,421.69 381.34,420.90 403.15,406.84 C427.29,391.26 439.00,363.96 433.53,336.00 C431.47,325.44 425.70,311.71 421.17,306.55 C420.18,305.42 418.59,303.25 417.64,301.71 C415.90,298.92 415.90,298.92 418.13,300.21 C423.56,303.35 431.10,314.22 435.15,324.73 C441.34,340.80 441.26,359.81 434.95,375.12 C432.16,381.89 427.47,390.82 426.09,392.00 C425.76,392.27 423.35,395.07 420.71,398.20 C411.34,409.37 394.16,418.50 377.07,421.40 ZM 760.85 421.47 C749.71,423.28 745.02,423.28 734.86,421.44 C710.12,416.96 689.79,400.78 679.65,377.50 C673.07,362.37 672.51,339.63 678.39,325.60 C680.58,320.38 681.16,321.38 680.02,328.38 C677.23,345.53 677.81,361.29 681.67,372.78 C685.41,383.96 697.71,399.96 707.60,406.52 C726.20,418.87 755.11,421.30 776.79,412.33 C790.97,406.46 805.64,391.58 812.80,375.78 C819.58,360.82 819.71,335.66 813.07,321.92 C811.93,319.56 811.00,317.24 811.00,316.76 C811.00,316.29 810.10,314.04 809.00,311.76 C806.56,306.71 806.56,306.69 808.87,307.93 C811.33,309.25 818.22,322.80 820.59,331.00 C822.02,335.94 822.47,340.75 822.46,351.00 C822.46,363.22 822.19,365.26 819.65,372.50 C810.80,397.76 787.51,417.15 760.85,421.47 ZM 493.16 346.25 C496.55,351.15 494.30,349.17 488.06,341.75 C476.99,328.59 473.05,318.02 472.31,299.50 C471.86,288.29 472.09,285.33 473.97,278.00 C477.48,264.30 483.28,253.99 493.60,243.04 C510.70,224.91 535.41,215.73 558.50,218.93 C566.47,220.04 583.05,224.58 584.00,225.91 C584.28,226.30 587.42,228.24 591.00,230.22 C596.84,233.46 607.62,243.23 612.81,250.00 C614.51,252.21 617.26,256.96 621.93,265.80 C623.28,268.34 625.02,274.39 627.03,283.50 C629.34,293.96 626.42,317.69 622.02,324.23 C620.08,327.12 619.90,327.21 620.44,325.00 C620.78,323.62 621.99,318.67 623.13,314.00 C626.01,302.23 625.41,285.99 621.67,274.50 C616.22,257.76 600.86,239.00 586.81,231.90 C573.97,225.41 567.61,223.77 553.50,223.30 C542.04,222.91 539.37,223.15 531.00,225.32 C506.69,231.62 487.07,250.39 478.92,275.12 C476.26,283.21 475.27,300.99 476.95,310.64 C478.85,321.57 484.16,333.23 493.16,346.25 ZM 812.47 595.37 C804.24,596.19 794.24,597.14 790.25,597.49 L 783.00 598.12 L 783.00 586.56 C783.00,573.61 784.34,570.78 784.80,582.76 C784.96,587.01 785.44,590.84 785.87,591.27 C786.29,591.69 795.38,591.33 806.07,590.47 C840.71,587.68 866.81,583.04 870.09,579.08 C871.38,577.53 871.80,573.48 872.26,558.17 C873.30,523.85 870.65,508.15 860.38,487.78 C859.07,485.19 858.00,482.35 858.00,481.47 C858.00,480.60 857.54,480.17 856.98,480.52 C856.41,480.86 856.07,480.78 856.21,480.32 C856.59,479.15 850.77,471.04 847.01,467.50 C845.26,465.85 843.35,463.60 842.77,462.50 C842.19,461.40 844.17,462.75 847.16,465.50 C850.16,468.25 852.46,470.83 852.26,471.24 C852.06,471.64 853.94,473.96 856.43,476.38 C864.20,483.93 871.90,500.60 875.53,517.71 C876.58,522.67 876.97,531.97 876.98,552.17 L 877.00 579.85 L 874.52 582.80 C872.45,585.25 870.48,586.09 862.77,587.79 C857.67,588.92 851.70,590.12 849.50,590.45 C847.30,590.79 841.44,591.70 836.47,592.47 C831.51,593.25 820.71,594.55 812.47,595.37 ZM 253.27 546.25 C252.77,565.67 252.73,566.00 250.61,566.00 C248.46,566.00 248.45,565.88 248.74,547.75 C249.08,527.62 250.76,517.71 256.00,504.99 C261.17,492.46 272.34,478.08 284.41,468.40 C305.00,451.89 334.84,442.95 365.20,444.20 L 376.10 444.65 L 379.05 441.64 C383.42,437.17 382.55,439.80 377.99,444.84 L 374.06 449.18 L 365.78 448.51 C350.79,447.30 324.81,451.74 310.00,458.04 C294.94,464.46 277.33,478.39 269.02,490.47 C264.54,496.98 257.55,512.24 255.49,520.00 C254.26,524.66 253.63,532.10 253.27,546.25 ZM 329.70 384.96 C336.01,391.93 335.38,392.74 328.12,387.00 C322.36,382.45 316.66,374.12 313.76,366.03 C311.37,359.35 310.85,343.60 312.83,337.50 C319.64,316.49 332.52,303.67 352.05,298.48 C363.54,295.42 380.05,297.82 390.65,304.10 C412.55,317.07 423.93,346.52 414.85,366.73 C413.67,369.36 412.29,372.44 411.77,373.58 C411.26,374.73 410.23,375.67 409.48,375.67 C408.45,375.67 408.61,374.72 410.14,371.73 C412.56,366.97 414.96,356.20 414.98,349.93 C415.01,343.19 411.68,331.73 407.86,325.37 C403.24,317.68 394.92,310.35 386.00,306.10 C379.04,302.78 377.70,302.49 367.36,302.15 C359.25,301.89 354.75,302.22 350.77,303.38 C337.56,307.22 326.68,316.59 320.49,329.46 C317.08,336.54 316.63,338.41 316.21,347.07 C315.44,362.97 319.10,373.25 329.70,384.96 ZM 711.92 384.75 C713.59,387.09 714.51,389.00 713.98,389.00 C713.44,389.00 713.00,388.66 712.99,388.25 C712.99,387.84 711.68,386.76 710.09,385.85 C706.24,383.66 699.58,373.26 696.93,365.29 C692.97,353.39 694.42,338.00 700.66,325.69 C704.46,318.18 717.21,305.90 725.00,302.23 C737.44,296.38 751.21,295.58 765.04,299.90 C776.20,303.40 788.34,313.55 794.48,324.53 C799.38,333.30 802.42,345.56 801.68,353.57 C801.02,360.55 796.65,372.11 794.05,373.74 C792.55,374.67 792.65,373.96 794.74,368.80 C799.48,357.06 798.72,339.22 793.02,328.03 C787.84,317.89 777.19,308.73 765.70,304.54 C758.87,302.05 757.27,301.85 746.35,302.16 C735.30,302.48 733.98,302.73 727.97,305.71 C719.73,309.81 713.35,315.04 708.14,322.00 C702.13,330.01 699.84,336.74 699.25,348.15 C698.49,362.56 700.75,369.09 711.92,384.75 ZM 747.17 624.86 C734.30,627.81 733.00,627.74 733.00,624.03 C733.00,621.83 733.38,621.21 734.47,621.63 C736.30,622.33 751.52,619.31 754.02,617.75 C757.66,615.48 758.00,612.55 758.00,583.33 C758.00,554.41 756.97,541.94 753.40,527.50 C751.94,521.59 747.70,508.41 746.00,504.50 C742.17,495.65 736.36,484.34 732.66,478.50 C730.22,474.65 728.38,471.34 728.56,471.14 C729.17,470.46 718.86,457.70 712.42,451.16 C708.89,447.58 706.01,444.39 706.03,444.07 C706.05,443.76 711.56,449.12 718.28,456.00 C731.19,469.20 738.48,479.79 748.25,499.50 C758.79,520.79 762.92,545.91 762.97,589.18 L 763.00 615.86 L 759.75 619.29 C756.99,622.21 755.10,623.04 747.17,624.86 ZM 855.97 550.19 C855.99,558.82 855.64,566.10 855.20,566.38 C852.72,567.91 852.18,564.51 851.75,544.50 C851.36,526.74 850.95,522.36 849.11,516.14 C842.89,495.11 830.24,478.34 811.19,465.87 C800.31,458.75 794.72,456.44 781.48,453.56 C774.89,452.12 767.70,450.53 765.50,450.02 C757.86,448.24 748.38,447.89 737.59,448.99 L 726.74 450.09 L 721.98 444.80 C716.44,438.65 716.30,436.94 721.77,442.27 L 725.50 445.91 L 733.00 444.84 C742.91,443.43 764.20,444.44 775.50,446.85 C811.31,454.51 840.39,479.17 851.02,510.89 C854.89,522.44 855.93,530.73 855.97,550.19 ZM 317.00 586.00 L 317.00 597.00 L 309.75 596.84 C301.66,596.66 299.41,596.48 286.50,594.97 C268.05,592.82 246.41,589.08 237.32,586.47 C228.02,583.80 228.00,583.73 228.01,554.62 C228.01,530.41 228.71,521.03 231.12,512.50 C234.09,501.98 238.38,491.07 239.74,490.55 C241.65,489.81 240.99,493.82 238.15,500.18 C233.33,510.96 232.07,521.78 232.03,552.68 L 232.00 577.85 L 234.41 579.75 C236.90,581.71 240.06,582.52 258.50,585.94 C268.51,587.79 304.67,592.00 310.56,592.00 C312.83,592.00 313.00,591.65 313.00,586.82 C313.00,581.53 314.77,575.00 316.20,575.00 C316.64,575.00 317.00,579.95 317.00,586.00 ZM 737.04 604.13 C734.22,605.12 734.07,605.47 733.74,611.83 L 733.39 618.50 L 733.20 610.75 C733.02,603.75 733.18,603.00 734.89,603.00 C736.69,603.00 736.75,602.04 736.36,581.25 C736.14,569.29 735.48,555.45 734.91,550.50 C730.68,514.10 710.26,477.47 682.50,456.49 C673.10,449.38 666.00,443.06 666.00,441.79 C666.00,441.12 666.47,441.15 667.35,441.88 C668.10,442.50 670.73,444.08 673.19,445.39 C690.06,454.36 712.86,479.00 723.25,499.50 C726.63,506.16 732.24,521.02 735.15,531.00 C738.46,542.36 739.98,558.16 739.99,581.30 L 740.00 603.10 ZM 459.74 259.75 C458.61,262.09 457.53,264.00 457.34,264.00 C455.85,264.00 460.28,251.49 462.74,248.74 C466.20,244.90 465.27,248.30 459.74,259.75 ZM 638.39 417.15 C638.02,420.20 637.88,421.45 637.37,421.62 C637.03,421.74 636.52,421.37 635.64,420.73 L 635.55 420.66 C634.12,419.61 633.97,418.93 634.82,417.34 C635.41,416.24 636.57,414.77 637.40,414.08 C638.72,412.99 638.84,413.38 638.39,417.15 Z" fill="rgb(211,108,10)"/>
<path d="M 674.34 465.84 C674.08,465.57 673.82,465.31 673.57,465.07 L 670.04 461.65 L 671.24 464.82 C671.90,466.57 672.82,468.00 673.28,468.00 C673.74,468.00 673.84,468.45 673.50,469.00 C673.16,469.55 673.61,470.00 674.50,470.00 C675.39,470.00 675.86,470.41 675.55,470.92 C675.10,471.65 678.29,476.39 680.98,479.00 C681.27,479.27 682.53,481.52 683.79,484.00 C685.05,486.48 686.49,489.17 687.01,490.00 C692.60,499.00 701.32,523.02 704.22,537.41 C706.31,547.80 706.45,551.11 706.47,590.09 C706.47,591.67 706.48,593.19 706.48,594.66 C706.50,626.74 706.51,632.73 703.59,635.04 C702.79,635.68 701.77,636.03 700.46,636.58 C696.93,638.05 665.12,643.35 650.50,644.89 C567.52,653.67 484.70,652.06 418.50,640.39 C400.61,637.23 397.31,636.21 394.86,633.09 C392.90,630.61 392.86,629.42 393.29,588.02 C393.80,539.53 393.74,540.00 403.45,508.25 C406.16,499.42 406.18,498.36 403.58,503.00 C401.26,507.13 397.26,518.82 394.59,528.76 C398.23,514.13 403.51,500.31 410.10,488.42 C422.54,465.96 446.66,441.06 468.50,428.15 C493.89,413.14 520.57,406.00 551.28,406.00 C565.64,406.00 573.85,406.99 588.50,410.50 C622.02,418.53 652.25,438.48 674.34,465.84 ZM 413.64 620.23 C414.43,619.72 414.93,609.32 415.29,585.64 L 414.77 619.79 L 420.12 620.93 C442.73,625.78 477.21,629.24 519.50,630.91 C559.62,632.50 612.25,630.18 655.50,624.92 C664.73,623.80 680.24,621.28 683.10,620.43 C684.51,620.02 684.77,616.46 685.26,591.73 C685.68,570.37 685.50,559.18 684.06,548.94 C685.59,559.49 686.01,571.38 686.03,593.21 C686.06,618.30 686.23,621.28 687.53,619.56 C688.75,617.95 689.00,612.51 689.00,588.06 C688.99,555.34 688.23,548.17 683.01,531.50 C681.29,526.00 679.07,518.80 678.08,515.49 C675.66,507.41 671.55,499.47 666.89,493.89 C664.78,491.36 663.38,488.92 663.78,488.48 C664.17,488.04 663.98,487.97 663.35,488.33 C662.25,488.96 660.49,486.37 660.87,484.68 C660.97,484.22 660.51,484.18 659.85,484.59 C659.06,485.08 658.86,484.81 659.25,483.80 C659.59,482.90 658.72,481.04 657.17,479.34 C655.70,477.73 651.65,473.20 648.17,469.27 C641.25,461.48 627.56,450.64 616.37,444.09 C566.70,415.02 503.19,421.95 459.39,461.24 C444.54,474.55 435.45,486.94 425.54,507.34 C412.68,533.82 410.45,548.12 410.86,601.75 C410.93,612.34 411.34,620.99 411.75,620.98 C412.16,620.98 413.01,620.64 413.64,620.23 ZM 459.74 259.75 C465.27,248.30 466.20,244.90 462.74,248.74 L 462.74 248.75 C469.15,237.18 477.96,226.99 489.00,218.52 C509.42,202.85 537.64,195.61 564.00,199.28 C594.02,203.46 617.16,217.65 633.27,241.76 C633.91,242.71 634.53,243.65 635.12,244.58 C634.87,244.21 634.62,243.84 634.36,243.47 C629.74,236.78 614.56,221.29 616.76,225.50 C617.34,226.60 619.20,228.74 620.90,230.26 C622.61,231.77 624.00,233.50 624.00,234.10 C624.00,234.69 626.06,237.59 628.58,240.54 C631.10,243.49 633.27,246.49 633.39,247.20 C633.52,247.92 634.90,250.98 636.46,254.00 C649.78,279.81 648.85,317.54 634.27,342.89 C624.25,360.30 609.10,373.94 589.74,382.99 C570.56,391.95 548.02,393.88 524.90,388.54 C509.43,384.97 492.24,374.36 478.82,360.11 C466.25,346.76 457.65,329.33 454.85,311.55 C453.75,304.58 454.31,274.04 455.62,269.25 C455.96,268.01 455.84,267.00 455.36,267.00 C455.19,267.00 455.01,267.18 454.82,267.51 C455.95,263.79 457.29,260.16 458.83,256.65 C457.44,260.41 456.54,264.00 457.34,264.00 C457.53,264.00 458.61,262.09 459.74,259.75 ZM 493.16 346.25 C490.24,342.03 487.71,337.96 485.56,334.01 C497.04,353.63 517.64,367.97 541.00,371.02 C544.84,371.52 546.81,371.79 548.78,371.81 C550.92,371.84 553.07,371.58 557.64,371.03 L 558.03 370.98 C568.25,369.75 581.54,365.20 589.88,360.07 C594.85,357.02 609.00,344.76 609.00,343.52 C609.00,343.34 610.63,340.79 612.63,337.85 C616.89,331.56 619.96,325.35 621.96,318.78 C621.25,321.67 620.66,324.10 620.44,325.00 C619.90,327.21 620.08,327.12 622.02,324.23 C626.42,317.69 629.34,293.96 627.03,283.50 C625.02,274.39 623.28,268.34 621.93,265.80 C617.26,256.96 614.51,252.21 612.81,250.00 C607.62,243.23 596.84,233.46 591.00,230.22 C587.42,228.24 584.28,226.30 584.00,225.91 C583.05,224.58 566.47,220.04 558.50,218.93 C535.41,215.73 510.70,224.91 493.60,243.04 C483.28,253.99 477.48,264.30 473.97,278.00 C472.09,285.33 471.86,288.29 472.31,299.50 C473.05,318.02 476.99,328.59 488.06,341.75 C494.30,349.17 496.55,351.15 493.16,346.25 ZM 811.19 310.61 C810.26,309.20 809.44,308.24 808.87,307.93 C806.56,306.69 806.56,306.71 809.00,311.76 C810.10,314.04 811.00,316.29 811.00,316.76 C811.00,317.24 811.93,319.56 813.07,321.92 C819.71,335.66 819.58,360.82 812.80,375.78 C805.64,391.58 790.97,406.46 776.79,412.33 C755.11,421.30 726.20,418.87 707.60,406.52 C697.71,399.96 685.41,383.96 681.67,372.78 C677.81,361.29 677.23,345.53 680.02,328.38 C681.13,321.57 680.61,320.44 678.57,325.17 C679.61,322.48 680.88,319.63 682.45,316.44 C686.22,308.77 688.24,306.09 695.70,298.94 C705.37,289.66 712.01,285.67 725.00,281.34 C732.72,278.76 734.78,278.50 747.50,278.50 C757.98,278.51 763.26,278.98 768.50,280.37 C786.86,285.26 801.56,295.71 811.19,310.61 ZM 425.50 307.43 C422.95,304.09 420.36,301.50 418.13,300.21 C415.90,298.92 415.90,298.92 417.64,301.71 C418.59,303.25 420.18,305.42 421.17,306.55 C425.70,311.71 431.47,325.44 433.53,336.00 C439.00,363.96 427.29,391.26 403.15,406.84 C381.34,420.90 350.76,421.69 328.13,408.78 C320.01,404.15 308.23,391.85 303.01,382.55 C296.68,371.27 295.17,364.34 294.92,345.32 C294.70,328.68 295.47,324.64 300.17,317.85 C301.17,316.39 302.00,314.80 302.00,314.33 C302.00,313.85 303.21,311.67 304.69,309.48 C306.31,307.07 306.68,306.07 305.60,306.94 C304.63,307.73 302.52,310.99 300.90,314.19 C299.51,316.96 297.99,319.29 297.26,319.87 C305.28,301.76 320.54,288.15 340.50,281.72 C349.84,278.71 351.42,278.50 364.50,278.53 C380.21,278.57 388.96,280.43 400.30,286.15 C410.10,291.09 418.80,298.52 425.50,307.43 ZM 711.92 384.75 C710.95,383.38 710.04,382.08 709.19,380.84 C715.47,388.88 724.15,394.73 734.26,397.46 C741.30,399.35 754.24,399.35 761.54,397.45 C773.46,394.34 786.35,384.60 791.42,374.84 C792.38,373.00 793.81,370.31 794.59,368.85 C794.80,368.46 794.99,368.06 795.18,367.63 C795.04,368.03 794.89,368.42 794.74,368.80 C792.65,373.96 792.55,374.67 794.05,373.74 C796.65,372.11 801.02,360.55 801.68,353.57 C802.42,345.56 799.38,333.30 794.48,324.53 C788.34,313.55 776.20,303.40 765.04,299.90 C751.21,295.58 737.44,296.38 725.00,302.23 C717.21,305.90 704.46,318.18 700.66,325.69 C694.42,338.00 692.97,353.39 696.93,365.29 C699.58,373.26 706.24,383.66 710.09,385.85 C711.68,386.76 712.99,387.84 712.99,388.25 C713.00,388.66 713.44,389.00 713.98,389.00 C714.51,389.00 713.59,387.09 711.92,384.75 ZM 329.70 384.96 C325.50,380.32 322.39,375.90 320.21,371.27 C326.19,383.77 337.84,393.69 351.69,397.50 C358.28,399.31 370.40,399.31 377.37,397.49 C394.12,393.13 407.80,380.37 412.55,365.06 C411.81,367.71 410.98,370.08 410.14,371.73 C408.61,374.72 408.45,375.67 409.48,375.67 C410.23,375.67 411.26,374.73 411.77,373.58 C412.29,372.44 413.67,369.36 414.85,366.73 C423.93,346.52 412.55,317.07 390.65,304.10 C380.05,297.82 363.54,295.42 352.05,298.48 C332.52,303.67 319.64,316.49 312.83,337.50 C310.85,343.60 311.37,359.35 313.76,366.03 C316.66,374.12 322.36,382.45 328.12,387.00 C335.38,392.74 336.01,391.93 329.70,384.96 ZM 855.97 550.19 C855.93,530.73 854.89,522.44 851.02,510.89 C840.39,479.17 811.31,454.51 775.50,446.85 C764.20,444.44 742.91,443.43 733.00,444.84 L 725.50 445.91 L 721.77 442.27 C716.30,436.94 716.44,438.65 721.98,444.80 L 725.68 448.91 L 716.96 440.79 L 707.00 431.50 L 709.84 430.31 C723.38,424.65 758.24,423.70 780.50,428.37 C819.02,436.47 848.64,457.76 864.73,487.90 C867.26,492.49 869.60,497.82 871.57,503.51 C869.67,498.08 867.39,492.87 864.73,487.90 C862.11,483.12 859.28,479.15 856.43,476.38 C853.94,473.96 852.06,471.64 852.26,471.24 C852.46,470.83 850.16,468.25 847.16,465.50 C844.17,462.75 842.19,461.40 842.77,462.50 C843.35,463.60 845.26,465.85 847.01,467.50 C850.77,471.04 856.59,479.15 856.21,480.32 C856.07,480.78 856.41,480.86 856.98,480.52 C857.54,480.17 858.00,480.60 858.00,481.47 C858.00,482.35 859.07,485.19 860.38,487.78 C870.65,508.15 873.30,523.85 872.26,558.17 C871.80,573.48 871.38,577.53 870.09,579.08 C866.81,583.04 840.71,587.68 806.07,590.47 C795.38,591.33 786.29,591.69 785.87,591.27 C785.44,590.84 784.96,587.01 784.80,582.76 C784.34,570.78 783.00,573.61 783.00,586.56 L 783.00 598.09 L 782.00 598.17 L 782.00 574.28 L 796.01 573.03 C803.71,572.35 810.69,572.05 811.51,572.37 C812.33,572.68 813.00,572.59 813.00,572.17 C813.00,571.75 817.89,570.86 823.87,570.19 C829.85,569.53 838.67,568.25 843.47,567.36 L 852.20 565.75 L 851.74 544.62 C851.63,539.41 851.52,535.34 851.37,532.05 C851.52,535.32 851.63,539.35 851.75,544.50 C852.18,564.51 852.72,567.91 855.20,566.38 C855.64,566.10 855.99,558.82 855.97,550.19 ZM 317.00 586.00 C317.00,579.95 316.64,575.00 316.20,575.00 C314.77,575.00 313.00,581.53 313.00,586.82 C313.00,591.65 312.83,592.00 310.56,592.00 C304.67,592.00 268.51,587.79 258.50,585.94 C240.06,582.52 236.90,581.71 234.41,579.75 L 232.00 577.85 L 232.03 552.68 C232.07,521.78 233.33,510.96 238.15,500.18 C240.99,493.82 241.65,489.81 239.74,490.55 C239.51,490.64 239.18,491.04 238.80,491.69 C244.86,478.80 252.73,468.07 262.14,459.95 C273.19,450.42 277.30,447.41 285.00,443.22 C308.44,430.46 338.06,424.09 368.00,425.36 C381.01,425.92 393.06,427.72 394.70,429.37 C395.03,429.70 394.00,430.97 392.40,432.19 C390.81,433.41 386.05,437.74 381.83,441.80 L 374.16 449.19 L 374.06 449.19 L 377.99 444.84 C382.55,439.80 383.42,437.17 379.05,441.64 L 376.10 444.65 L 365.20 444.20 C334.84,442.95 305.00,451.89 284.41,468.40 C272.34,478.08 261.17,492.46 256.00,504.99 C250.76,517.71 249.08,527.62 248.74,547.75 C248.45,565.88 248.46,566.00 250.61,566.00 C252.28,566.00 252.66,565.80 252.99,556.27 C252.98,561.11 253.17,564.57 253.63,565.02 C255.09,566.46 281.46,570.85 300.00,572.75 L 317.50 574.53 L 317.50 597.50 L 314.00 597.65 C312.08,597.73 307.80,597.45 304.50,597.01 C303.13,596.84 301.01,596.58 298.57,596.29 C302.44,596.64 305.15,596.74 309.75,596.84 L 317.00 597.00 ZM 414.91 459.42 C417.39,457.10 420.03,454.68 422.85,452.13 C427.94,447.53 431.90,443.57 431.65,443.32 C430.69,442.36 420.87,448.20 413.59,454.05 C405.50,460.56 391.94,474.80 386.28,482.72 C378.05,494.23 368.00,515.68 364.54,529.12 C360.22,545.86 359.71,550.42 359.26,576.66 C358.81,602.51 358.83,602.84 360.92,603.96 C362.09,604.58 363.53,604.79 364.12,604.43 C364.88,603.95 364.99,606.37 364.48,612.63 C364.08,617.51 363.62,621.66 363.45,621.85 C363.28,622.04 359.39,621.42 354.82,620.46 C349.08,619.26 345.72,617.98 344.00,616.34 L 341.50 613.96 L 341.20 586.44 C340.96,563.30 341.24,556.41 342.96,543.08 C344.09,534.36 345.91,524.41 347.01,520.96 C348.12,517.50 349.20,513.74 349.42,512.59 C349.64,511.44 351.92,505.33 354.49,499.00 C360.84,483.34 360.85,483.27 355.10,493.58 C352.27,498.66 349.86,503.80 347.77,509.28 C349.36,504.96 351.11,500.71 353.04,496.53 C356.57,488.90 365.39,473.31 366.92,472.00 C367.24,471.73 368.85,469.50 370.50,467.05 C376.19,458.60 395.97,439.80 406.50,432.82 C420.71,423.41 436.63,415.72 449.60,411.98 C455.56,410.27 455.79,410.27 459.20,412.22 C461.13,413.32 463.47,415.53 464.41,417.12 C466.12,420.02 466.12,420.02 462.96,421.76 C453.71,426.85 441.11,436.09 432.26,444.27 C426.77,449.35 419.47,455.75 416.05,458.50 C415.67,458.81 415.29,459.11 414.91,459.42 ZM 737.04 604.13 L 740.00 603.10 L 739.99 581.30 C739.98,558.16 738.46,542.36 735.15,531.00 C732.24,521.02 726.63,506.16 723.25,499.50 C712.86,479.00 690.06,454.36 673.19,445.39 C670.73,444.08 668.10,442.50 667.35,441.88 C666.47,441.15 666.00,441.12 666.00,441.79 C666.00,442.78 670.30,446.83 676.65,451.93 C672.64,448.86 667.28,444.44 664.01,441.50 C660.35,438.20 653.11,432.71 647.92,429.29 C640.51,424.41 636.89,422.05 635.34,420.50 C635.41,420.55 635.48,420.61 635.55,420.66 L 635.64 420.73 C636.52,421.37 637.03,421.74 637.37,421.62 C637.88,421.45 638.02,420.20 638.39,417.15 C638.84,413.38 638.72,412.99 637.40,414.08 C636.57,414.77 635.41,416.24 634.82,417.34 C634.57,417.80 634.41,418.18 634.34,418.52 C634.38,417.94 634.70,417.35 635.11,416.53 C635.87,414.96 637.74,412.76 639.25,411.64 L 642.01 409.60 L 649.75 411.87 C654.01,413.12 663.35,416.96 670.50,420.40 C696.93,433.12 716.62,449.55 732.75,472.92 C728.56,467.12 723.96,461.81 718.28,456.00 C711.56,449.12 706.05,443.76 706.03,444.07 C706.01,444.39 708.89,447.58 712.42,451.16 C718.86,457.70 729.17,470.46 728.56,471.14 C728.38,471.34 730.22,474.65 732.66,478.50 C736.36,484.34 742.17,495.65 746.00,504.50 C747.70,508.41 751.94,521.59 753.40,527.50 C756.97,541.94 758.00,554.41 758.00,583.33 C758.00,612.55 757.66,615.48 754.02,617.75 C751.52,619.31 736.30,622.33 734.47,621.63 C733.38,621.21 733.00,621.83 733.00,624.03 C733.00,626.02 733.38,626.97 735.73,626.95 C735.40,626.98 735.13,627.00 734.92,627.00 L 732.00 627.00 L 732.00 614.91 C732.00,603.65 732.14,602.78 734.00,602.29 C735.92,601.79 736.00,600.93 736.00,579.38 C736.00,565.16 735.58,555.28 734.40,546.65 C734.59,547.93 734.76,549.22 734.91,550.50 C735.48,555.45 736.14,569.29 736.36,581.25 C736.75,602.04 736.69,603.00 734.89,603.00 C733.18,603.00 733.02,603.75 733.20,610.75 L 733.39 618.50 L 733.74 611.83 C734.07,605.47 734.22,605.12 737.04,604.13 ZM 679.01 526.89 C674.46,513.06 665.95,495.77 658.86,486.50 C650.79,475.96 633.49,459.09 624.70,453.20 C598.28,435.50 565.92,427.50 536.50,431.41 C565.88,427.50 598.08,435.44 624.70,453.16 C633.95,459.32 654.72,479.83 660.86,488.89 C667.48,498.63 674.89,514.32 679.01,526.89 ZM 371.79 521.49 C371.24,523.04 370.73,524.55 370.25,526.04 C370.73,524.52 371.26,522.97 371.82,521.39 C377.13,506.38 382.32,495.76 391.02,484.60 C383.01,495.58 376.62,507.85 371.79,521.49 ZM 683.59 457.33 C694.31,465.64 703.89,476.29 711.83,488.33 C704.09,476.77 694.64,466.38 683.59,457.33 ZM 702.79 517.50 C704.22,521.73 705.42,525.49 706.42,529.11 C705.41,525.49 704.21,521.72 702.78,517.50 C699.23,507.03 693.25,494.49 687.12,484.00 C693.50,494.46 698.79,505.69 702.79,517.50 ZM 293.28 331.50 C293.89,329.03 294.63,326.63 295.48,324.29 C295.00,326.34 294.23,329.27 293.37,332.27 C292.52,335.21 291.95,337.37 291.59,339.40 C291.93,337.13 292.47,334.71 293.28,331.50 ZM 679.73 377.81 C677.23,372.27 675.79,367.04 675.10,360.52 C675.95,366.62 677.47,372.48 679.65,377.50 C681.12,380.86 682.80,384.08 684.67,387.14 C689.42,394.83 695.34,401.47 702.20,406.85 C711.56,414.19 722.67,419.23 734.86,421.44 C722.65,419.23 711.56,414.20 702.20,406.85 C695.31,401.45 689.37,394.80 684.67,387.14 C682.84,384.18 681.19,381.07 679.73,377.81 ZM 624.17 308.58 C624.81,303.90 624.99,298.97 624.75,293.65 C624.40,285.60 623.23,278.85 620.93,272.38 C621.19,273.09 621.44,273.79 621.67,274.50 C624.86,284.31 625.77,297.59 624.17,308.58 ZM 605.98 247.82 C599.86,241.01 592.52,234.79 586.81,231.90 C593.29,235.17 600.04,240.93 605.98,247.82 ZM 255.50 520.00 C254.63,523.27 253.85,532.47 253.40,541.71 C253.78,530.45 254.40,524.13 255.49,520.00 C256.59,515.86 259.09,509.60 261.86,503.66 C259.09,509.60 256.59,515.87 255.50,520.00 ZM 703.03 370.56 C700.14,364.63 699.12,359.53 699.12,352.78 C699.24,357.12 699.81,361.29 700.83,364.65 C701.45,366.68 702.19,368.66 703.03,370.56 ZM 338.07 551.21 C339.07,542.06 340.70,533.20 342.96,524.61 C342.48,526.52 342.01,528.48 341.56,530.50 C339.29,540.67 338.09,548.83 337.50,560.58 C337.66,556.43 337.86,553.11 338.07,551.21 ZM 644.83 263.14 C648.54,272.75 650.00,282.32 650.00,294.32 C650.00,282.72 648.38,272.67 644.83,263.14 ZM 820.39 330.34 C818.72,324.89 815.27,317.42 812.44,312.61 C813.28,314.02 814.09,315.46 814.84,316.94 C817.46,322.06 819.22,326.15 820.39,330.34 ZM 390.72 548.85 C390.13,553.82 389.72,559.27 389.45,565.99 C389.62,560.52 389.83,556.29 390.06,554.21 C390.25,552.42 390.48,550.63 390.72,548.85 ZM 407.86 325.37 C408.73,326.82 409.58,328.54 410.36,330.40 C408.32,325.89 405.62,321.77 402.31,318.10 C404.48,320.43 406.36,322.88 407.86,325.37 ZM 274.31 593.39 C259.50,591.34 244.82,588.64 237.32,586.47 C234.99,585.81 233.25,585.30 231.94,584.46 C233.25,585.30 234.99,585.80 237.32,586.47 C244.46,588.52 259.32,591.27 274.31,593.39 ZM 710.22 319.39 C715.03,313.71 720.79,309.28 727.97,305.71 C721.08,309.14 714.99,313.88 710.22,319.39 ZM 439.68 346.88 C439.36,339.31 437.85,331.74 435.15,324.73 C433.51,320.48 431.31,316.17 428.90,312.34 C431.52,316.48 433.73,320.88 435.45,325.44 C437.97,332.17 439.38,339.51 439.68,346.88 ZM 797.78 347.89 C797.36,340.68 795.74,333.37 793.02,328.03 C795.83,333.54 797.44,340.67 797.78,347.89 ZM 414.55 355.36 C415.10,350.96 414.99,347.26 414.20,342.98 C414.71,345.54 414.99,347.94 414.98,349.93 C414.98,351.51 414.82,353.37 414.55,355.36 ZM 758.37 529.69 C761.59,545.29 762.94,564.05 762.97,589.18 C762.94,564.23 761.56,545.32 758.37,529.69 ZM 456.99 333.00 C453.73,324.90 451.69,316.87 450.79,308.55 C451.74,316.86 453.83,325.14 456.99,333.00 ZM 812.47 595.37 C820.38,594.58 830.67,593.35 835.86,592.57 C830.67,593.35 820.38,594.59 812.47,595.38 C807.60,595.86 802.03,596.40 797.41,596.83 C801.94,596.40 807.52,595.86 812.47,595.37 ZM 232.85 506.77 C232.25,508.65 231.66,510.58 231.12,512.50 C230.46,514.84 229.93,517.24 229.50,519.99 C229.93,517.24 230.46,514.84 231.12,512.50 C231.66,510.55 232.24,508.64 232.85,506.77 ZM 415.29 585.64 C415.29,585.60 415.29,585.55 415.30,585.50 C415.32,583.69 415.35,581.97 415.38,580.33 C415.35,582.02 415.32,583.78 415.29,585.64 Z" fill="rgb(243,147,30)"/>
<path d="M 567.32 394.50 C588.10,390.88 607.27,380.72 621.71,365.68 C642.04,344.51 650.00,324.42 650.00,294.32 C650.00,285.11 649.14,277.34 647.06,269.88 C647.43,271.11 647.79,272.38 648.13,273.69 C650.09,281.17 650.44,284.99 650.44,299.00 C650.45,314.95 650.34,315.87 647.05,326.50 C645.18,332.55 643.13,338.17 642.50,339.00 C641.86,339.83 640.07,342.75 638.52,345.50 C633.82,353.84 625.62,364.13 618.00,371.25 C614.02,374.96 610.40,378.00 609.95,378.00 C609.50,378.00 606.33,380.25 602.90,383.00 C599.48,385.75 596.05,388.00 595.29,388.00 C589.85,388.00 582.37,396.85 583.49,401.96 C584.27,405.50 587.35,407.42 595.81,409.62 C598.87,410.42 602.99,412.07 604.94,413.29 C609.99,416.43 620.88,420.96 625.00,421.63 C626.92,421.94 629.25,422.60 630.17,423.09 C632.42,424.30 633.10,422.13 631.33,419.40 C630.07,417.45 630.31,417.02 634.65,413.65 C636.80,411.97 638.85,410.88 641.02,410.34 L 639.25 411.64 C637.74,412.76 635.87,414.96 635.11,416.53 C634.70,417.35 634.38,417.94 634.34,418.52 C634.17,419.30 634.48,419.83 635.34,420.50 C636.89,422.05 640.51,424.41 647.92,429.29 C653.11,432.71 660.35,438.20 664.01,441.50 C667.28,444.44 672.64,448.86 676.65,451.93 C678.45,453.38 680.42,454.91 682.50,456.49 C682.87,456.76 683.23,457.04 683.59,457.33 C694.64,466.38 704.09,476.77 711.83,488.33 C723.33,505.78 731.38,526.16 734.40,546.65 C735.58,555.28 736.00,565.16 736.00,579.38 C736.00,600.93 735.92,601.79 734.00,602.29 C732.14,602.78 732.00,603.65 732.00,614.91 L 732.00 627.00 L 734.92 627.00 C735.13,627.00 735.40,626.98 735.73,626.95 C737.75,626.94 741.22,626.23 747.17,624.86 C755.10,623.04 756.99,622.21 759.75,619.29 L 763.00 615.86 L 762.97 589.18 C762.94,564.06 761.59,545.30 758.37,529.70 L 758.37 529.69 C757.46,525.26 756.41,521.09 755.21,517.12 C755.44,517.86 755.65,518.59 755.86,519.30 C757.56,525.25 759.25,530.60 759.62,531.19 C759.99,531.79 761.09,537.95 762.06,544.89 C764.09,559.36 767.32,569.38 770.42,570.79 C773.36,572.14 790.75,571.46 802.00,569.56 C807.22,568.68 813.53,567.97 816.00,568.00 C818.47,568.02 823.75,567.75 827.73,567.41 C834.51,566.82 834.89,566.66 833.90,564.82 C832.91,562.96 833.11,562.89 837.68,563.48 C840.33,563.83 843.49,564.31 844.69,564.56 C848.38,565.32 849.80,561.99 849.23,553.98 C848.89,549.28 849.13,546.55 849.96,545.54 C851.67,543.49 851.01,524.90 849.18,523.46 C848.46,522.90 847.61,520.42 847.30,517.96 C846.99,515.51 846.22,512.83 845.58,512.00 C843.94,509.88 841.00,503.19 841.00,501.59 C841.00,500.85 840.33,499.68 839.50,499.00 C838.67,498.32 838.00,497.07 838.00,496.24 C838.00,494.89 835.55,491.75 826.72,481.77 C825.39,480.27 824.08,479.25 823.81,479.52 C823.55,479.78 822.22,478.76 820.85,477.25 C819.49,475.74 817.11,473.60 815.56,472.50 C814.01,471.40 810.21,468.63 807.13,466.34 C804.04,464.05 801.17,462.39 800.76,462.65 C800.34,462.91 800.00,462.46 800.00,461.66 C800.00,460.20 794.64,457.69 793.64,458.69 C793.35,458.98 791.73,458.23 790.04,457.03 C788.44,455.89 786.14,454.86 783.34,453.97 C795.27,456.67 800.83,459.09 811.19,465.87 C830.24,478.34 842.89,495.11 849.11,516.14 C850.42,520.56 851.00,524.05 851.37,532.05 C851.52,535.34 851.63,539.41 851.74,544.62 L 852.20 565.75 L 843.47 567.36 C838.67,568.25 829.85,569.53 823.87,570.19 C817.89,570.86 813.00,571.75 813.00,572.17 C813.00,572.59 812.33,572.68 811.51,572.37 C810.69,572.05 803.71,572.35 796.01,573.03 L 782.00 574.28 L 782.00 598.17 L 783.00 598.09 L 783.00 598.12 L 790.25 597.49 C791.84,597.35 794.39,597.11 797.41,596.83 C802.03,596.40 807.60,595.86 812.47,595.38 C820.38,594.59 830.67,593.35 835.86,592.57 C836.07,592.54 836.28,592.51 836.47,592.47 C841.44,591.70 847.30,590.79 849.50,590.45 C851.70,590.12 857.67,588.92 862.77,587.79 C870.48,586.09 872.45,585.25 874.52,582.80 L 877.00 579.85 L 876.98 552.17 C876.97,534.76 876.68,525.44 875.92,520.03 C876.13,521.12 876.32,522.21 876.50,523.32 C878.68,536.74 878.63,581.65 876.44,584.78 C874.25,587.90 869.77,590.00 865.30,590.00 C863.21,589.99 859.47,590.65 857.00,591.45 C848.91,594.08 833.86,597.09 831.90,596.47 C830.85,596.13 827.40,596.40 824.24,597.06 C821.08,597.72 816.47,598.40 814.00,598.58 C811.53,598.76 805.90,599.39 801.50,600.00 C797.10,600.60 788.10,601.49 781.50,601.97 C770.66,602.76 766.94,602.97 765.66,604.85 C764.99,605.84 764.99,607.27 764.99,609.48 C764.99,609.61 764.99,609.74 764.99,609.87 C764.97,616.59 763.71,619.33 758.86,623.24 C754.21,626.99 738.67,630.96 731.41,630.27 C723.98,629.55 719.21,631.31 713.00,637.08 C706.03,643.55 703.88,644.64 695.40,646.01 C691.61,646.62 686.09,647.81 683.15,648.65 C680.20,649.48 675.72,650.17 673.18,650.17 C670.64,650.17 667.71,650.62 666.68,651.17 C663.76,652.73 645.92,654.62 626.00,655.47 C607.55,656.26 595.39,657.03 585.71,658.01 C576.43,658.95 514.80,659.45 513.92,658.60 C513.69,658.37 505.85,657.69 496.50,657.07 C479.61,655.94 454.88,653.87 435.26,651.93 C429.63,651.37 423.33,650.32 421.26,649.59 C419.19,648.87 413.17,647.49 407.88,646.54 C402.59,645.59 397.14,644.07 395.77,643.16 C391.01,639.99 385.95,635.01 385.03,632.58 C383.88,629.57 379.62,628.79 366.00,629.13 C353.07,629.45 345.20,627.15 338.75,621.17 C336.74,619.32 336.00,617.66 335.99,615.06 C335.98,604.26 331.51,599.65 322.04,600.65 C318.99,600.97 315.38,601.20 314.00,601.15 C307.05,600.94 288.61,598.84 281.90,597.51 C277.72,596.68 272.27,596.00 269.78,596.00 C267.30,596.00 260.15,594.65 253.88,593.01 C247.62,591.36 241.24,590.01 239.70,590.01 C236.18,590.00 232.23,587.97 229.00,584.52 C226.52,581.86 226.50,581.70 226.19,560.42 C225.99,545.87 226.23,539.00 226.94,539.00 C227.54,539.00 228.00,536.91 228.01,534.25 C228.02,523.42 230.69,511.41 235.23,499.89 C234.44,502.00 233.63,504.34 232.85,506.77 L 232.85 506.77 C232.24,508.64 231.66,510.56 231.12,512.50 C230.46,514.84 229.93,517.24 229.50,519.99 C228.38,527.29 228.01,537.05 228.01,554.62 C228.00,576.45 228.01,581.95 231.94,584.46 L 231.98 584.49 C233.29,585.31 235.02,585.81 237.32,586.47 C244.82,588.64 259.50,591.34 274.31,593.39 C278.42,593.98 282.53,594.51 286.50,594.97 C292.06,595.62 295.65,596.03 298.57,596.29 C301.01,596.58 303.13,596.84 304.50,597.01 C307.80,597.45 312.08,597.73 314.00,597.65 L 317.50 597.50 L 317.50 574.53 L 300.00 572.75 C281.46,570.85 255.09,566.46 253.63,565.02 C253.17,564.57 252.98,561.11 252.99,556.27 C253.08,553.68 253.16,550.40 253.27,546.25 C253.31,544.65 253.35,543.14 253.40,541.71 C253.85,532.47 254.63,523.27 255.50,520.00 C256.59,515.87 259.09,509.60 261.86,503.66 C264.29,498.46 266.93,493.51 269.02,490.47 C277.33,478.39 294.94,464.46 310.00,458.04 C324.81,451.74 350.79,447.30 365.78,448.51 L 374.06 449.18 L 374.16 449.19 L 381.83 441.80 C386.05,437.74 390.81,433.41 392.40,432.19 C394.00,430.97 395.03,429.70 394.70,429.37 C393.06,427.72 381.01,425.92 368.00,425.36 C338.06,424.09 308.44,430.46 285.00,443.22 C283.89,443.83 282.86,444.40 281.86,444.98 C287.75,441.39 293.80,438.60 301.86,435.50 C307.01,433.51 312.85,431.01 314.85,429.94 C316.84,428.87 319.46,428.00 320.68,428.00 C321.89,428.00 324.08,426.97 325.55,425.71 C328.12,423.50 328.16,423.31 326.72,419.96 C325.91,418.06 320.28,411.44 314.23,405.26 C305.18,396.02 302.39,392.42 298.58,385.05 C295.96,379.98 293.75,374.21 293.50,371.79 C293.26,369.43 292.60,365.08 292.03,362.11 C291.16,357.56 290.86,352.54 291.07,347.40 C291.09,348.86 291.15,350.51 291.24,352.46 C292.10,371.27 298.27,385.76 311.34,399.65 C322.65,411.67 333.20,417.52 349.97,421.06 C360.74,423.33 365.34,423.39 377.07,421.40 C394.16,418.50 411.34,409.37 420.71,398.20 C423.35,395.07 425.76,392.27 426.09,392.00 C427.47,390.82 432.16,381.89 434.95,375.12 C436.95,370.27 438.33,365.05 439.07,359.67 C438.79,361.84 438.42,364.08 437.97,366.41 C435.80,377.65 431.25,387.34 424.31,395.47 C422.45,397.66 420.68,400.42 420.38,401.61 C420.06,402.88 418.23,404.49 415.92,405.54 C413.76,406.51 412.00,407.92 412.00,408.67 C412.00,409.42 410.73,410.81 409.17,411.76 C401.91,416.22 396.84,423.34 398.76,426.40 C399.14,427.00 399.50,427.95 399.57,428.50 C399.64,429.05 399.76,430.06 399.85,430.75 C400.07,432.60 401.48,432.29 405.60,429.50 C407.62,428.12 409.90,427.00 410.67,427.00 C411.43,427.00 416.33,424.98 421.55,422.50 C426.78,420.02 431.66,418.00 432.40,418.00 C432.80,418.00 433.87,417.69 435.23,417.20 C425.79,421.26 415.78,426.68 406.50,432.82 C395.97,439.80 376.19,458.60 370.50,467.05 C368.85,469.50 367.24,471.73 366.92,472.00 C365.39,473.31 356.57,488.90 353.04,496.53 C351.11,500.71 349.36,504.96 347.77,509.28 L 347.77 509.28 C345.95,514.06 344.37,519.11 342.96,524.61 C340.70,533.20 339.07,542.06 338.07,551.21 C337.86,553.11 337.66,556.43 337.50,560.58 C337.13,567.90 337.00,576.60 337.00,588.06 C337.00,613.50 337.12,615.36 338.98,617.97 C341.49,621.50 346.32,623.79 354.81,625.48 C363.99,627.31 366.67,627.29 367.39,625.42 C367.73,624.55 368.00,619.39 368.00,613.95 C368.00,605.09 367.79,603.96 366.00,603.00 C364.09,601.98 364.00,600.91 364.01,578.71 C364.01,553.72 365.42,541.06 370.25,526.04 C370.73,524.55 371.24,523.04 371.79,521.49 C376.62,507.85 383.01,495.58 391.02,484.60 C396.97,476.97 404.54,469.10 414.91,459.42 C415.29,459.11 415.67,458.81 416.05,458.50 C419.47,455.75 426.77,449.35 432.26,444.27 C441.11,436.09 453.71,426.85 462.96,421.76 C466.12,420.02 466.12,420.02 464.41,417.12 C463.47,415.53 461.13,413.32 459.20,412.22 C455.79,410.27 455.56,410.27 449.60,411.98 C448.38,412.33 447.14,412.72 445.87,413.14 C447.75,412.51 449.64,411.93 451.21,411.51 L 457.92 409.72 L 463.00 413.60 C465.79,415.73 468.35,418.53 468.67,419.83 C469.12,421.62 469.77,422.06 471.38,421.66 C481.01,419.28 486.99,417.15 489.41,415.25 C491.22,413.83 493.65,413.00 496.01,413.00 C498.12,413.00 500.30,412.34 501.00,411.50 C501.68,410.67 503.57,410.00 505.19,410.00 C508.29,410.00 517.00,405.48 517.00,403.87 C517.00,403.36 516.33,402.68 515.50,402.36 C514.67,402.05 514.00,401.00 514.00,400.05 C514.00,399.09 513.10,397.50 512.00,396.50 C510.90,395.50 510.00,394.08 510.00,393.33 C510.00,392.58 508.62,391.13 506.92,390.10 C505.23,389.07 503.18,387.27 502.36,386.10 C501.54,384.93 500.46,384.21 499.97,384.52 C499.48,384.82 497.38,383.58 495.29,381.75 C493.21,379.93 489.92,377.27 488.00,375.85 C481.09,370.75 466.16,354.04 465.63,350.82 C465.51,350.09 464.28,347.70 462.89,345.50 C462.15,344.32 461.38,342.90 460.60,341.29 C462.41,344.90 464.37,347.75 468.19,352.89 C492.40,385.47 529.60,401.08 567.32,394.50 ZM 624.00 652.61 C645.16,650.88 644.92,650.91 665.59,648.02 C699.23,643.33 705.08,641.69 709.45,635.67 C711.43,632.94 711.50,631.60 711.48,595.17 C711.46,557.95 710.77,544.80 706.42,529.11 C706.42,529.11 706.42,529.10 706.42,529.10 C705.41,525.48 704.22,521.72 702.79,517.50 C698.79,505.69 693.50,494.46 687.12,484.00 C682.64,476.32 678.08,469.73 674.34,465.84 C652.25,438.48 622.02,418.53 588.50,410.50 C573.85,406.99 565.64,406.00 551.28,406.00 C520.57,406.00 493.89,413.14 468.50,428.15 C446.66,441.06 422.54,465.96 410.10,488.42 C403.51,500.31 398.23,514.13 394.59,528.76 C393.79,531.75 393.10,534.58 392.62,537.00 C391.84,540.91 391.22,544.71 390.72,548.85 C390.48,550.63 390.25,552.42 390.06,554.21 C389.83,556.29 389.62,560.52 389.45,565.99 L 389.45 565.99 C389.12,574.16 389.00,584.19 389.00,597.51 C389.00,632.91 389.14,634.10 393.70,638.23 C396.66,640.90 402.79,642.70 418.24,645.40 C439.05,649.04 471.92,652.54 502.50,654.37 C518.92,655.36 605.74,654.10 624.00,652.61 ZM 679.01 526.89 C679.77,529.22 680.42,531.44 680.93,533.50 C682.29,538.99 683.31,543.81 684.06,548.94 L 684.06 548.95 C685.50,559.18 685.68,570.37 685.26,591.73 C684.77,616.46 684.51,620.02 683.10,620.43 C680.24,621.28 664.73,623.80 655.50,624.92 C612.25,630.18 559.62,632.50 519.50,630.91 C477.21,629.24 442.73,625.78 420.12,620.93 L 414.77 619.79 L 415.29 585.65 L 415.29 585.64 L 415.30 585.51 C415.32,583.70 415.35,581.98 415.38,580.33 C415.79,555.76 416.23,549.58 417.83,542.00 C423.83,513.75 436.35,490.54 456.44,470.43 C479.82,447.01 502.60,435.91 536.50,431.41 L 536.53 431.40 C560.82,428.18 587.03,433.06 610.43,444.86 C615.33,447.34 620.11,450.12 624.70,453.20 C633.49,459.09 650.79,475.96 658.86,486.50 C665.95,495.77 674.46,513.06 679.01,526.89 ZM 499.00 628.90 C514.98,629.86 593.65,629.35 609.54,628.18 C624.55,627.07 627.79,626.55 632.50,624.51 C634.15,623.79 640.45,622.63 646.50,621.93 C653.55,621.12 659.27,619.85 662.42,618.39 L 667.35 616.11 L 662.19 615.43 C654.02,614.35 653.09,611.54 660.41,610.05 L 663.50 609.42 L 664.06 594.96 C664.47,584.13 665.04,579.70 666.31,577.30 C667.32,575.38 668.00,571.83 668.00,568.45 C668.00,564.48 668.57,562.01 669.93,560.09 C671.00,558.60 672.17,556.16 672.54,554.68 C672.92,553.20 673.62,551.73 674.11,551.43 C674.60,551.13 675.00,549.18 675.00,547.11 C675.00,542.54 675.86,541.45 677.62,543.77 C678.84,545.37 678.94,545.34 678.97,543.33 C678.99,542.14 678.53,541.01 677.95,540.82 C676.41,540.30 675.05,533.46 675.01,526.00 C674.96,516.99 673.77,515.02 666.18,511.34 C666.00,511.26 666.29,509.63 666.81,507.72 C667.89,503.83 667.50,502.82 664.25,501.11 C662.87,500.39 662.00,499.00 662.00,497.53 C662.00,496.06 661.27,494.90 660.12,494.54 C659.08,494.21 657.98,492.65 657.66,491.05 C657.32,489.35 656.25,487.90 655.05,487.51 C651.92,486.52 650.00,484.13 649.97,481.18 C649.94,477.67 643.61,470.96 637.59,468.04 C635.06,466.82 633.00,465.27 633.00,464.59 C633.00,463.16 625.49,458.00 623.41,458.00 C622.63,458.00 622.00,457.59 622.00,457.09 C622.00,456.59 619.98,454.90 617.50,453.34 C615.03,451.78 613.00,450.17 613.00,449.78 C613.00,448.67 607.37,446.00 605.05,446.00 C603.92,446.00 603.00,445.54 603.00,444.98 C603.00,444.42 601.31,443.19 599.25,442.23 C597.19,441.28 595.24,440.15 594.93,439.73 C594.13,438.65 591.98,438.32 580.50,437.51 C574.19,437.06 569.39,436.18 567.50,435.13 C563.92,433.13 546.71,433.01 543.06,434.97 C541.52,435.79 538.28,435.95 532.66,435.49 C525.43,434.89 524.25,435.04 522.27,436.76 C521.04,437.83 520.29,438.95 520.59,439.26 C521.63,440.30 516.84,441.19 513.55,440.58 C511.19,440.13 508.78,440.66 504.89,442.47 C501.93,443.85 498.38,444.99 497.00,444.99 C495.62,445.00 492.13,446.81 489.23,449.00 C486.33,451.20 483.10,453.00 482.05,453.00 C480.21,453.00 477.01,455.42 476.99,456.82 C476.99,457.19 475.59,458.29 473.89,459.26 C471.95,460.37 471.00,461.56 471.35,462.46 C471.69,463.36 471.07,464.16 469.70,464.58 C468.49,464.96 465.81,466.78 463.75,468.63 C461.68,470.48 459.55,472.00 459.01,472.00 C458.47,472.00 456.95,473.69 455.63,475.75 C454.32,477.81 451.16,481.59 448.62,484.15 C446.08,486.71 444.00,489.31 444.00,489.93 C444.00,490.56 442.42,492.00 440.50,493.13 C437.50,494.90 437.00,495.73 437.00,498.92 C437.00,501.48 436.30,503.29 434.75,504.75 C431.51,507.79 430.00,509.77 430.00,510.96 C430.00,511.53 429.52,512.00 428.94,512.00 C428.36,512.00 428.17,512.47 428.52,513.04 C428.88,513.61 428.86,515.89 428.48,518.10 C428.01,520.92 427.12,522.44 425.54,523.17 C423.55,524.07 423.19,525.20 422.58,532.35 C422.20,536.83 421.89,541.39 421.90,542.48 C421.91,544.77 424.61,547.09 426.45,546.38 C427.67,545.91 430.00,554.47 430.00,559.45 C430.00,562.03 425.55,562.80 424.23,560.45 C423.50,559.14 423.10,559.23 421.44,561.07 C419.71,562.98 419.50,564.76 419.50,577.78 L 419.50 592.36 L 425.55 592.12 C431.97,591.86 432.25,592.05 434.53,598.50 C435.00,599.85 435.39,600.07 435.72,599.19 C436.40,597.35 440.00,600.68 440.00,603.15 C440.00,604.17 440.50,605.00 441.12,605.00 C441.75,605.00 442.00,605.88 441.70,607.02 C441.29,608.61 441.93,609.36 444.66,610.50 C449.07,612.34 448.80,614.89 444.03,616.49 L 440.55 617.66 L 443.03 619.24 C444.39,620.11 447.52,621.37 450.00,622.02 C452.48,622.68 455.53,623.71 456.80,624.30 C458.38,625.05 460.25,625.08 462.84,624.39 C466.46,623.42 472.90,624.77 471.48,626.19 C470.88,626.79 481.68,627.85 499.00,628.90 ZM 624.17 308.58 C623.90,310.47 623.55,312.28 623.13,314.00 L 621.96 318.78 C619.96,325.35 616.89,331.56 612.63,337.85 C610.63,340.79 609.00,343.34 609.00,343.52 C609.00,344.76 594.85,357.02 589.88,360.07 C581.54,365.20 568.25,369.75 558.03,370.98 L 557.64 371.03 C553.07,371.58 550.92,371.84 548.78,371.81 C546.81,371.79 544.84,371.52 541.00,371.02 C517.64,367.97 497.04,353.63 485.56,334.01 C481.08,325.76 478.23,318.03 476.95,310.64 C475.27,300.99 476.26,283.21 478.92,275.12 C487.07,250.39 506.69,231.62 531.00,225.32 C539.37,223.15 542.04,222.91 553.50,223.30 C567.61,223.77 573.97,225.41 586.81,231.90 C593.29,235.17 600.04,240.93 605.98,247.82 C612.37,255.24 617.81,263.99 620.93,272.38 C623.23,278.85 624.40,285.60 624.75,293.65 C624.99,298.97 624.81,303.90 624.17,308.58 ZM 542.00 367.98 C543.92,368.42 545.50,368.82 545.50,368.88 C545.50,368.95 549.10,368.27 553.50,367.39 C557.90,366.50 562.78,365.83 564.34,365.91 C565.91,365.98 568.75,365.08 570.67,363.90 C573.25,362.30 574.44,362.04 575.27,362.87 C577.22,364.82 579.13,364.13 584.55,359.50 C587.45,357.02 590.47,355.00 591.26,355.00 C592.43,355.00 601.91,346.38 606.50,341.13 C607.05,340.51 608.92,338.73 610.65,337.19 C613.08,335.03 613.68,333.80 613.30,331.79 C612.92,329.82 613.28,329.04 614.80,328.56 C616.05,328.17 616.99,326.75 617.33,324.72 C618.92,315.36 620.07,310.37 621.57,306.46 C622.80,303.23 623.09,300.26 622.68,294.81 C621.98,285.35 619.61,274.37 617.81,272.20 C615.50,269.43 608.03,254.30 608.66,253.67 C609.51,252.83 602.25,244.65 600.41,244.38 C597.23,243.92 596.00,243.02 596.00,241.16 C596.00,239.73 595.06,239.10 592.21,238.65 C589.84,238.27 587.33,236.91 585.52,235.02 C583.93,233.36 582.06,232.00 581.37,232.00 C580.67,232.00 578.00,230.88 575.43,229.52 C572.86,228.15 570.36,227.28 569.88,227.57 C569.40,227.87 569.00,227.69 569.00,227.18 C569.00,226.65 564.03,226.17 557.75,226.09 C551.56,226.01 545.04,225.68 543.25,225.36 C541.31,225.01 540.00,225.19 540.00,225.81 C540.00,226.87 535.46,228.21 531.00,228.46 C529.62,228.54 527.05,228.70 525.27,228.81 C523.01,228.94 521.10,230.04 518.86,232.50 C516.73,234.85 514.79,236.00 512.98,236.00 C510.17,236.00 507.57,238.24 499.00,248.01 C496.52,250.83 493.26,254.31 491.75,255.74 C490.24,257.16 489.00,259.05 489.00,259.92 C489.00,260.80 488.06,262.11 486.90,262.83 C485.18,263.91 484.92,264.76 485.45,267.60 C485.95,270.25 485.62,271.66 484.05,273.66 C482.92,275.10 482.00,276.93 482.00,277.74 C482.00,278.55 480.82,280.61 479.38,282.33 C476.78,285.41 476.76,285.61 477.21,298.06 C477.55,307.67 478.06,311.25 479.33,313.06 C480.25,314.37 481.00,316.53 481.00,317.86 C481.00,319.19 481.74,320.82 482.63,321.47 C483.53,322.13 484.38,324.12 484.52,325.88 C484.66,327.65 485.45,329.86 486.27,330.80 C487.09,331.73 488.11,333.62 488.52,335.00 C489.36,337.75 503.82,352.96 505.63,352.98 C506.25,352.99 507.96,354.58 509.43,356.50 C511.09,358.68 512.95,360.00 514.36,360.00 C515.60,360.00 517.49,360.66 518.56,361.47 C519.63,362.28 521.75,362.95 523.29,362.97 C525.70,363.00 525.94,362.75 525.07,361.13 C523.78,358.72 524.74,357.79 527.18,359.10 C528.35,359.72 528.89,360.78 528.57,361.81 C528.16,363.12 529.23,363.92 533.27,365.35 C536.15,366.36 540.08,367.55 542.00,367.98 ZM 318.61 573.26 C320.75,573.48 322.59,573.74 322.70,573.83 C322.81,573.92 324.01,573.50 325.37,572.88 C327.18,572.05 328.51,569.84 330.41,564.47 C331.84,560.46 333.00,556.66 333.00,556.03 C333.00,554.34 337.13,545.00 337.88,545.00 C338.23,545.00 338.36,543.01 338.16,540.58 C337.97,538.15 338.53,533.69 339.41,530.68 C340.28,527.66 341.00,524.17 341.00,522.92 C341.00,520.50 345.61,508.13 347.10,506.55 C347.60,506.03 348.00,504.37 348.00,502.87 C348.00,501.36 349.78,497.46 352.00,494.12 C354.20,490.81 356.00,487.57 356.00,486.92 C356.00,486.27 356.85,484.33 357.89,482.62 C358.92,480.90 360.09,478.45 360.48,477.16 C361.27,474.56 366.56,466.39 368.05,465.47 C368.57,465.15 369.00,463.59 369.00,462.01 C369.00,460.14 369.87,458.46 371.50,457.18 C374.61,454.73 374.66,453.97 371.69,454.21 C370.43,454.32 368.06,453.90 366.44,453.28 C358.21,450.13 339.79,449.23 341.54,452.06 C341.86,452.58 341.39,453.00 340.50,453.00 C339.54,453.00 339.17,452.53 339.59,451.86 C340.09,451.04 339.19,450.92 336.39,451.41 C330.65,452.43 329.00,453.03 329.00,454.07 C329.00,454.58 327.34,455.00 325.32,455.00 C321.75,455.00 313.60,458.22 312.45,460.09 C312.14,460.59 310.79,461.00 309.45,461.00 C308.03,461.00 304.50,463.02 301.01,465.83 C297.71,468.49 292.54,471.92 289.51,473.45 C286.48,474.98 284.00,476.85 284.00,477.60 C284.00,478.34 282.88,479.69 281.50,480.59 C280.12,481.49 279.00,482.81 279.00,483.52 C279.00,484.23 276.82,486.77 274.16,489.17 C271.37,491.68 268.80,495.06 268.12,497.14 C267.46,499.13 266.04,501.56 264.96,502.53 C263.88,503.51 263.00,505.52 263.00,506.99 C263.00,508.46 261.65,513.87 260.00,519.00 C258.35,524.13 257.00,528.88 257.00,529.54 C257.00,530.21 256.35,531.30 255.54,531.96 C254.39,532.92 254.14,535.64 254.35,545.06 C254.50,551.60 254.97,557.30 255.40,557.73 C255.83,558.15 257.03,558.50 258.07,558.50 C259.11,558.50 259.94,558.95 259.92,559.50 C259.89,560.05 259.11,560.38 258.18,560.23 C257.19,560.07 257.52,560.57 259.00,561.45 C260.38,562.26 263.23,562.95 265.35,562.96 C267.59,562.99 270.41,563.87 272.10,565.07 C274.44,566.74 276.83,567.21 284.26,567.45 C289.34,567.61 295.07,568.26 296.99,568.88 C298.91,569.49 303.05,570.00 306.17,570.00 C309.77,570.00 312.38,570.53 313.29,571.43 C314.08,572.22 316.47,573.04 318.61,573.26 ZM 760.85 421.47 C784.89,417.58 806.19,401.42 816.64,379.76 C813.92,386.06 810.68,391.96 808.05,395.00 C802.41,401.52 794.51,409.15 792.00,410.49 C788.70,412.26 783.40,417.99 782.75,420.50 C782.46,421.60 781.92,423.24 781.55,424.14 C781.02,425.42 781.93,426.17 785.68,427.56 C788.33,428.54 790.95,429.66 791.50,430.05 C792.05,430.44 796.78,432.44 802.00,434.50 C803.81,435.21 805.60,435.96 807.35,436.73 C798.99,433.18 790.02,430.37 780.50,428.37 C758.24,423.70 723.38,424.65 709.84,430.31 L 707.00 431.50 L 716.96 440.79 L 725.68 448.91 L 726.74 450.09 L 737.59 448.99 C748.38,447.89 757.86,448.24 765.50,450.02 C766.73,450.31 769.54,450.94 772.93,451.68 C768.56,451.05 763.79,450.70 759.00,450.72 C752.67,450.73 745.35,451.07 742.73,451.47 C739.79,451.92 737.47,451.80 736.70,451.17 C735.82,450.43 734.45,450.61 732.04,451.78 C729.52,453.00 728.54,453.11 728.24,452.21 C728.02,451.55 727.30,451.00 726.65,451.00 C726.00,451.00 723.83,450.12 721.82,449.05 C718.72,447.38 718.10,447.31 717.61,448.57 C717.25,449.52 718.38,451.01 720.77,452.72 C724.55,455.42 733.00,467.04 733.00,469.54 C733.00,470.29 734.58,472.10 736.50,473.57 C739.06,475.52 740.00,477.01 740.00,479.09 C740.00,482.07 743.63,490.00 744.99,490.00 C745.42,490.00 746.09,491.66 746.47,493.69 C746.85,495.72 748.42,499.88 749.96,502.94 C751.07,505.14 752.75,509.56 754.24,514.07 C752.53,508.94 750.54,504.13 748.25,499.50 C742.78,488.47 738.09,480.29 732.75,472.92 C716.62,449.55 696.93,433.12 670.50,420.40 C663.35,416.96 654.01,413.12 649.75,411.87 L 643.28 409.98 C645.83,409.79 648.60,410.30 651.89,411.46 C654.16,412.26 656.26,412.91 656.54,412.90 C656.82,412.89 660.08,414.32 663.78,416.07 C667.48,417.83 673.42,420.62 677.00,422.28 C680.58,423.93 684.57,426.12 685.88,427.14 C687.20,428.16 689.15,429.00 690.23,429.00 C691.31,429.00 693.39,429.82 694.85,430.82 C696.31,431.83 699.16,433.65 701.19,434.87 L 704.88 437.09 L 704.41 434.50 C703.90,431.68 705.10,430.09 709.10,428.33 C711.21,427.40 711.83,426.27 712.36,422.41 C712.91,418.35 712.69,417.30 710.83,415.32 C709.63,414.04 708.11,413.00 707.45,413.00 C706.78,413.00 701.80,408.61 696.37,403.25 C686.88,393.87 680.19,384.15 679.39,378.56 C679.26,377.66 678.71,375.68 678.06,373.73 C678.56,375.09 679.11,376.44 679.73,377.81 C681.19,381.07 682.84,384.18 684.67,387.14 C686.04,389.36 687.51,391.51 689.07,393.56 C692.90,398.56 697.31,403.02 702.20,406.85 L 702.20 406.85 C711.56,414.19 722.67,419.23 734.86,421.44 C745.02,423.28 749.71,423.28 760.85,421.47 ZM 414.55 355.36 C414.12,358.52 413.40,361.98 412.55,365.06 C407.80,380.37 394.12,393.13 377.37,397.49 C370.40,399.31 358.28,399.31 351.69,397.50 C337.84,393.69 326.19,383.77 320.21,371.27 C316.90,364.22 315.75,356.67 316.21,347.07 C316.63,338.41 317.08,336.54 320.49,329.46 C326.68,316.59 337.56,307.22 350.77,303.38 C354.36,302.34 358.36,301.96 365.06,302.09 C361.42,302.23 357.56,303.20 353.66,305.00 C350.09,306.65 346.74,308.00 346.21,308.00 C345.68,308.00 344.71,308.65 344.05,309.44 C343.40,310.23 341.66,311.15 340.18,311.48 C338.71,311.82 336.13,313.33 334.45,314.85 C330.82,318.14 326.76,324.43 327.68,325.35 C328.04,325.71 327.81,326.00 327.17,326.00 C326.52,326.00 326.00,326.47 326.00,327.04 C326.00,328.22 321.89,334.33 320.75,334.83 C320.34,335.02 320.00,335.83 320.00,336.64 C320.00,337.45 319.60,337.87 319.11,337.57 C316.62,336.03 316.84,358.82 319.37,363.50 C320.26,365.15 320.99,367.01 320.99,367.63 C321.00,368.25 321.66,369.31 322.47,369.98 C323.28,370.65 324.22,372.64 324.55,374.39 C324.90,376.28 326.01,377.98 327.25,378.54 C328.40,379.07 329.47,380.40 329.62,381.50 C329.91,383.70 336.71,389.96 338.84,389.99 C339.58,389.99 341.33,390.90 342.73,392.00 C344.55,393.43 346.78,394.00 350.59,394.00 C354.07,394.00 356.18,394.48 356.70,395.39 C357.14,396.15 358.40,396.99 359.50,397.26 C360.60,397.53 362.17,397.60 363.00,397.43 C363.83,397.26 366.75,396.84 369.50,396.50 C376.17,395.67 390.80,390.28 394.33,387.35 C395.88,386.06 397.56,385.00 398.06,385.00 C399.28,385.00 407.26,373.00 410.36,366.50 C411.64,363.83 412.50,352.99 412.13,344.39 C412.06,342.68 410.85,339.58 409.44,337.51 C408.04,335.44 407.13,333.10 407.44,332.31 C407.74,331.52 407.30,329.55 406.47,327.94 C404.54,324.20 390.10,310.04 388.05,309.87 C383.03,309.46 381.83,309.03 379.03,306.68 C375.94,304.08 372.22,302.57 368.15,302.18 C377.77,302.51 379.22,302.86 386.00,306.10 C392.03,308.97 397.79,313.26 402.31,318.10 C405.62,321.77 408.32,325.89 410.36,330.40 C412.01,334.30 413.39,338.85 414.20,342.98 C414.99,347.26 415.10,350.96 414.55,355.36 ZM 743.00 395.84 C744.92,396.39 747.40,396.66 748.50,396.43 C749.60,396.21 752.84,396.02 755.71,396.01 C759.67,396.00 761.38,395.51 762.83,393.95 C764.19,392.49 765.45,392.08 767.20,392.51 C768.81,392.92 770.09,392.59 770.95,391.56 C771.66,390.70 773.21,390.00 774.39,390.00 C777.85,390.00 789.96,377.50 789.99,373.90 C789.99,373.02 790.84,371.34 791.87,370.15 C795.51,365.95 797.51,342.97 794.62,338.52 C793.90,337.41 792.53,334.16 791.59,331.30 C790.50,328.00 789.16,325.87 787.94,325.48 C786.87,325.14 786.00,324.42 786.00,323.87 C786.00,322.34 775.86,311.98 772.81,310.40 C771.32,309.63 769.09,309.00 767.86,309.00 C766.63,309.00 764.70,308.18 763.56,307.17 C760.75,304.66 754.62,302.54 749.27,302.09 C757.63,301.91 759.53,302.29 765.70,304.54 C777.19,308.73 787.84,317.89 793.02,328.03 C795.83,333.54 797.44,340.67 797.78,347.89 C798.11,354.84 797.26,361.88 795.18,367.63 C794.99,368.06 794.80,368.46 794.59,368.85 C793.81,370.31 792.38,373.00 791.42,374.84 C786.35,384.60 773.46,394.34 761.54,397.45 C754.24,399.35 741.30,399.35 734.26,397.46 C724.15,394.73 715.47,388.88 709.19,380.84 C706.55,376.96 704.54,373.65 703.03,370.56 C702.19,368.66 701.45,366.68 700.83,364.65 C699.81,361.29 699.24,357.12 699.12,352.78 C699.11,351.32 699.16,349.79 699.25,348.15 C699.84,336.74 702.13,330.01 708.14,322.00 C708.81,321.10 709.50,320.23 710.22,319.39 C714.99,313.88 721.08,309.14 727.97,305.71 C733.51,302.96 735.06,302.53 743.92,302.24 C741.40,302.64 738.97,303.62 735.26,305.57 C731.54,307.54 728.07,309.56 727.55,310.07 C727.03,310.58 725.66,311.00 724.52,311.00 C722.07,311.00 711.12,321.93 708.50,327.00 C707.53,328.87 706.12,331.02 705.37,331.77 C704.62,332.52 703.71,334.35 703.35,335.82 C702.99,337.29 702.21,338.81 701.62,339.20 C701.04,339.58 700.63,341.83 700.71,344.20 C701.13,355.82 701.92,362.82 703.19,366.00 C705.71,372.34 708.89,377.74 710.46,378.35 C711.31,378.67 712.00,379.82 712.00,380.90 C712.00,382.79 715.63,386.00 719.25,387.31 C720.21,387.65 721.00,388.40 721.00,388.97 C721.00,389.54 721.69,390.00 722.54,390.00 C723.38,390.00 725.25,390.77 726.69,391.71 C728.12,392.66 731.60,393.75 734.40,394.14 C737.21,394.53 741.08,395.29 743.00,395.84 ZM 420.41 611.86 C421.00,612.81 424.92,612.61 428.75,611.44 C431.46,610.62 429.79,609.00 426.25,609.02 C421.98,609.03 419.43,610.27 420.41,611.86 ZM 674.63 614.75 C675.33,617.38 676.27,617.58 678.00,615.50 C678.99,614.30 678.99,613.70 678.00,612.50 C676.71,610.95 673.99,610.43 674.01,611.75 C674.02,612.16 674.30,613.51 674.63,614.75 ZM 486.42 459.39 C485.55,459.73 484.09,459.99 483.17,459.98 C481.89,459.96 482.08,459.50 484.00,458.00 C485.38,456.92 486.84,456.03 487.25,456.02 C488.68,455.98 487.99,458.79 486.42,459.39 ZM 268.00 515.00 C268.00,516.99 266.93,517.60 265.67,516.33 C264.45,515.12 264.98,513.00 266.50,513.00 C267.33,513.00 268.00,513.89 268.00,515.00 ZM 263.50 526.99 C262.69,528.30 261.29,528.28 260.46,526.93 C259.54,525.44 260.61,524.63 262.52,525.37 C263.40,525.71 263.85,526.44 263.50,526.99 ZM 822.22 361.59 C822.42,359.01 822.46,355.78 822.46,351.00 C822.47,346.33 822.37,342.79 822.14,339.86 C823.24,347.22 823.29,354.66 822.22,361.59 ZM 428.00 618.00 C428.00,618.55 428.67,619.00 429.50,619.00 C430.33,619.00 431.00,618.55 431.00,618.00 C431.00,617.45 430.33,617.00 429.50,617.00 C428.67,617.00 428.00,617.45 428.00,618.00 ZM 451.41 313.15 C449.38,301.89 449.72,289.65 452.19,277.68 C451.27,282.95 450.50,289.28 450.27,294.50 C450.07,299.15 450.25,303.86 450.79,308.55 C450.95,310.09 451.16,311.62 451.41,313.15 ZM 677.89 326.85 C679.53,321.66 681.69,316.94 684.48,312.50 C683.83,313.68 683.17,314.97 682.45,316.44 C680.88,319.63 679.61,322.48 678.57,325.17 C678.51,325.31 678.45,325.45 678.39,325.60 C678.22,326.01 678.05,326.43 677.89,326.85 ZM 514.32 204.74 C529.82,198.94 546.89,196.90 564.00,199.28 C547.37,196.97 530.00,198.99 514.32,204.74 ZM 439.68 346.88 C439.42,340.34 438.28,333.82 436.26,327.74 C439.31,336.81 440.37,345.49 439.52,355.48 C439.75,352.63 439.80,349.76 439.68,346.88 ZM 870.73 501.20 C869.01,496.60 867.01,492.16 864.73,487.90 C860.26,479.52 854.73,471.82 848.27,464.90 C856.29,473.40 862.77,483.03 867.63,493.67 C868.75,496.12 869.79,498.64 870.73,501.20 ZM 302.34 310.45 C309.59,299.21 320.02,290.33 332.82,284.65 C320.27,290.22 309.98,298.93 302.34,310.45 ZM 811.19 310.61 C807.91,305.54 804.05,300.98 799.65,296.99 C805.67,302.43 810.69,308.89 814.55,316.23 C815.30,317.66 816.01,319.13 816.66,320.63 C816.11,319.45 815.50,318.23 814.84,316.94 C814.09,315.46 813.29,314.02 812.44,312.61 L 812.44 312.61 C812.01,311.88 811.59,311.21 811.19,310.61 ZM 297.10 319.97 C297.94,318.02 298.86,316.18 299.86,314.46 C300.65,313.08 301.48,311.75 302.34,310.45 C300.42,313.43 298.72,316.57 297.26,319.87 C297.20,319.91 297.15,319.95 297.10,319.97 ZM 677.55 372.24 C675.87,367.61 674.76,360.45 674.43,353.43 C674.56,355.81 674.78,358.18 675.10,360.52 C675.56,364.84 676.34,368.59 677.55,372.24 ZM 435.37 325.23 C433.66,320.74 431.48,316.42 428.90,312.34 L 428.90 312.34 C428.31,311.40 427.71,310.49 427.10,309.62 C430.49,314.47 433.29,319.69 435.32,325.10 ZM 293.90 329.18 C294.40,327.33 294.97,325.52 295.60,323.76 C295.57,323.93 295.53,324.10 295.48,324.29 C294.90,325.89 294.37,327.52 293.90,329.18 ZM 695.85 298.79 C700.61,294.23 704.67,290.94 709.16,288.25 C704.64,290.96 700.55,294.28 695.70,298.94 C695.75,298.89 695.80,298.84 695.85,298.79 ZM 709.16 288.25 C713.08,285.90 717.31,284.02 722.65,282.14 C717.32,284.02 713.08,285.91 709.16,288.25 ZM 425.50 307.43 C425.09,306.89 424.68,306.35 424.26,305.82 C424.85,306.56 425.43,307.31 425.99,308.07 C425.83,307.86 425.66,307.64 425.50,307.43 ZM 635.17 244.65 L 635.12 244.58 C634.53,243.67 633.93,242.74 633.30,241.80 C633.95,242.77 634.57,243.72 635.17,244.65 Z" fill="rgb(249,227,172)"/>
<path d="M 0.00 512.00 L 0.00 0.00 L 512.00 0.00 L 1024.00 0.00 L 1024.00 512.00 L 1024.00 1024.00 L 512.00 1024.00 L 0.00 1024.00 L 0.00 512.00 ZM 585.71 658.01 C595.39,657.03 607.55,656.26 626.00,655.47 C645.92,654.62 663.76,652.73 666.68,651.17 C667.71,650.62 670.64,650.17 673.18,650.17 C675.72,650.17 680.20,649.48 683.15,648.65 C686.09,647.81 691.61,646.62 695.40,646.01 C703.88,644.64 706.03,643.55 713.00,637.08 C719.21,631.31 723.98,629.55 731.41,630.27 C738.67,630.96 754.21,626.99 758.86,623.24 C763.71,619.33 764.97,616.59 764.99,609.87 C765.00,603.04 764.68,603.19 781.50,601.97 C788.10,601.49 797.10,600.60 801.50,600.00 C805.90,599.39 811.53,598.76 814.00,598.58 C816.47,598.40 821.08,597.72 824.24,597.06 C827.40,596.40 830.85,596.13 831.90,596.47 C833.86,597.09 848.91,594.08 857.00,591.45 C859.47,590.65 863.21,589.99 865.30,590.00 C869.77,590.00 874.25,587.90 876.44,584.78 C878.63,581.65 878.68,536.74 876.50,523.32 C869.79,481.93 843.85,451.00 802.00,434.50 C796.78,432.44 792.05,430.44 791.50,430.05 C790.95,429.66 788.33,428.54 785.68,427.56 C781.93,426.17 781.02,425.42 781.55,424.14 C781.92,423.24 782.46,421.60 782.75,420.50 C783.40,417.99 788.70,412.26 792.00,410.49 C794.51,409.15 802.41,401.52 808.05,395.00 C812.49,389.86 818.71,376.52 821.14,366.93 C825.13,351.14 822.58,331.51 814.55,316.23 C805.21,298.45 789.01,285.83 768.50,280.37 C763.26,278.98 757.98,278.51 747.50,278.50 C734.78,278.50 732.72,278.76 725.00,281.34 C712.07,285.65 705.36,289.67 695.85,298.79 C683.51,310.63 677.34,322.93 674.87,340.61 C673.55,350.07 674.78,364.61 677.55,372.26 C678.40,374.59 679.23,377.43 679.39,378.56 C680.19,384.15 686.88,393.87 696.37,403.25 C701.80,408.61 706.78,413.00 707.45,413.00 C708.11,413.00 709.63,414.04 710.83,415.32 C712.69,417.30 712.91,418.35 712.36,422.41 C711.83,426.27 711.21,427.40 709.10,428.33 C705.10,430.09 703.90,431.68 704.41,434.50 L 704.88 437.09 L 701.19 434.87 C699.16,433.65 696.31,431.83 694.85,430.82 C693.39,429.82 691.31,429.00 690.23,429.00 C689.15,429.00 687.20,428.16 685.88,427.14 C684.57,426.12 680.58,423.93 677.00,422.28 C673.42,420.62 667.48,417.83 663.78,416.07 C660.08,414.32 656.82,412.89 656.54,412.90 C656.26,412.91 654.16,412.26 651.89,411.46 C644.67,408.91 639.95,409.51 634.65,413.65 C630.31,417.02 630.07,417.45 631.33,419.40 C633.10,422.13 632.42,424.30 630.17,423.09 C629.25,422.60 626.92,421.94 625.00,421.63 C620.88,420.96 609.99,416.43 604.94,413.29 C602.99,412.07 598.87,410.42 595.81,409.62 C587.35,407.42 584.27,405.50 583.49,401.96 C582.37,396.85 589.85,388.00 595.29,388.00 C596.05,388.00 599.48,385.75 602.90,383.00 C606.33,380.25 609.50,378.00 609.95,378.00 C610.40,378.00 614.02,374.96 618.00,371.25 C625.62,364.13 633.82,353.84 638.52,345.50 C640.07,342.75 641.86,339.83 642.50,339.00 C643.13,338.17 645.18,332.55 647.05,326.50 C650.34,315.87 650.45,314.95 650.44,299.00 C650.44,284.99 650.09,281.17 648.13,273.69 C645.06,261.97 641.12,253.50 633.27,241.76 C617.16,217.65 594.02,203.46 564.00,199.28 C525.58,193.93 487.41,210.88 466.54,242.56 C452.63,263.69 446.93,291.76 451.80,315.18 C453.99,325.70 458.91,339.17 462.89,345.50 C464.28,347.70 465.51,350.09 465.63,350.82 C466.16,354.04 481.09,370.75 488.00,375.85 C489.92,377.27 493.21,379.93 495.29,381.75 C497.38,383.58 499.48,384.82 499.97,384.52 C500.46,384.21 501.54,384.93 502.36,386.10 C503.18,387.27 505.23,389.07 506.92,390.10 C508.62,391.13 510.00,392.58 510.00,393.33 C510.00,394.08 510.90,395.50 512.00,396.50 C513.10,397.50 514.00,399.09 514.00,400.05 C514.00,401.00 514.67,402.05 515.50,402.36 C516.33,402.68 517.00,403.36 517.00,403.87 C517.00,405.48 508.29,410.00 505.19,410.00 C503.57,410.00 501.68,410.67 501.00,411.50 C500.30,412.34 498.12,413.00 496.01,413.00 C493.65,413.00 491.22,413.83 489.41,415.25 C486.99,417.15 481.01,419.28 471.38,421.66 C469.77,422.06 469.12,421.62 468.67,419.83 C468.35,418.53 465.79,415.73 463.00,413.60 L 457.92 409.72 L 451.21 411.51 C447.52,412.50 442.08,414.36 439.13,415.65 C436.17,416.94 433.14,418.00 432.40,418.00 C431.66,418.00 426.78,420.02 421.55,422.50 C416.33,424.98 411.43,427.00 410.67,427.00 C409.90,427.00 407.62,428.12 405.60,429.50 C401.48,432.29 400.07,432.60 399.85,430.75 C399.76,430.06 399.64,429.05 399.57,428.50 C399.50,427.95 399.14,427.00 398.76,426.40 C396.84,423.34 401.91,416.22 409.17,411.76 C410.73,410.81 412.00,409.42 412.00,408.67 C412.00,407.92 413.76,406.51 415.92,405.54 C418.23,404.49 420.06,402.88 420.38,401.61 C420.68,400.42 422.45,397.66 424.31,395.47 C431.25,387.34 435.80,377.65 437.97,366.41 C441.06,350.40 440.29,338.33 435.32,325.10 C429.15,308.68 416.02,294.08 400.30,286.15 C388.96,280.43 380.21,278.57 364.50,278.53 C351.42,278.50 349.84,278.71 340.50,281.72 C322.92,287.38 309.07,298.54 299.86,314.46 C292.44,327.27 289.17,347.17 292.03,362.11 C292.60,365.08 293.26,369.43 293.50,371.79 C293.75,374.21 295.96,379.98 298.58,385.05 C302.39,392.42 305.18,396.02 314.23,405.26 C320.28,411.44 325.91,418.06 326.72,419.96 C328.16,423.31 328.12,423.50 325.55,425.71 C324.08,426.97 321.89,428.00 320.68,428.00 C319.46,428.00 316.84,428.87 314.85,429.94 C312.85,431.01 307.01,433.51 301.86,435.50 C285.48,441.81 277.40,446.79 262.14,459.95 C242.78,476.65 228.05,508.72 228.01,534.25 C228.00,536.91 227.54,539.00 226.94,539.00 C226.23,539.00 225.99,545.87 226.19,560.42 C226.50,581.70 226.52,581.86 229.00,584.52 C232.23,587.97 236.18,590.00 239.70,590.01 C241.24,590.01 247.62,591.36 253.88,593.01 C260.15,594.65 267.30,596.00 269.78,596.00 C272.27,596.00 277.72,596.68 281.90,597.51 C288.61,598.84 307.05,600.94 314.00,601.15 C315.38,601.20 318.99,600.97 322.04,600.65 C331.51,599.65 335.98,604.26 335.99,615.06 C336.00,617.66 336.74,619.32 338.75,621.17 C345.20,627.15 353.07,629.45 366.00,629.13 C379.62,628.79 383.88,629.57 385.03,632.58 C385.95,635.01 391.01,639.99 395.77,643.16 C397.14,644.07 402.59,645.59 407.88,646.54 C413.17,647.49 419.19,648.87 421.26,649.59 C423.33,650.32 429.63,651.37 435.26,651.93 C454.88,653.87 479.61,655.94 496.50,657.07 C505.85,657.69 513.69,658.37 513.92,658.60 C514.80,659.45 576.43,658.95 585.71,658.01 ZM 499.00 628.90 C481.68,627.85 470.88,626.79 471.48,626.19 C472.90,624.77 466.46,623.42 462.84,624.39 C460.25,625.08 458.38,625.05 456.80,624.30 C455.53,623.71 452.48,622.68 450.00,622.02 C447.52,621.37 444.39,620.11 443.03,619.24 L 440.55 617.66 L 444.03 616.49 C448.80,614.89 449.07,612.34 444.66,610.50 C441.93,609.36 441.29,608.61 441.70,607.02 C442.00,605.88 441.75,605.00 441.12,605.00 C440.50,605.00 440.00,604.17 440.00,603.15 C440.00,600.68 436.40,597.35 435.72,599.19 C435.39,600.07 435.00,599.85 434.53,598.50 C432.25,592.05 431.97,591.86 425.55,592.12 L 419.50 592.36 L 419.50 577.78 C419.50,564.76 419.71,562.98 421.44,561.07 C423.10,559.23 423.50,559.14 424.23,560.45 C425.55,562.80 430.00,562.03 430.00,559.45 C430.00,554.47 427.67,545.91 426.45,546.38 C424.61,547.09 421.91,544.77 421.90,542.48 C421.89,541.39 422.20,536.83 422.58,532.35 C423.19,525.20 423.55,524.07 425.54,523.17 C427.12,522.44 428.01,520.92 428.48,518.10 C428.86,515.89 428.88,513.61 428.52,513.04 C428.17,512.47 428.36,512.00 428.94,512.00 C429.52,512.00 430.00,511.53 430.00,510.96 C430.00,509.77 431.51,507.79 434.75,504.75 C436.30,503.29 437.00,501.48 437.00,498.92 C437.00,495.73 437.50,494.90 440.50,493.13 C442.42,492.00 444.00,490.56 444.00,489.93 C444.00,489.31 446.08,486.71 448.62,484.15 C451.16,481.59 454.32,477.81 455.63,475.75 C456.95,473.69 458.47,472.00 459.01,472.00 C459.55,472.00 461.68,470.48 463.75,468.63 C465.81,466.78 468.49,464.96 469.70,464.58 C471.07,464.16 471.69,463.36 471.35,462.46 C471.00,461.56 471.95,460.37 473.89,459.26 C475.59,458.29 476.99,457.19 476.99,456.82 C477.01,455.42 480.21,453.00 482.05,453.00 C483.10,453.00 486.33,451.20 489.23,449.00 C492.13,446.81 495.62,445.00 497.00,444.99 C498.38,444.99 501.93,443.85 504.89,442.47 C508.78,440.66 511.19,440.13 513.55,440.58 C516.84,441.19 521.63,440.30 520.59,439.26 C520.29,438.95 521.04,437.83 522.27,436.76 C524.25,435.04 525.43,434.89 532.66,435.49 C538.28,435.95 541.52,435.79 543.06,434.97 C546.71,433.01 563.92,433.13 567.50,435.13 C569.39,436.18 574.19,437.06 580.50,437.51 C591.98,438.32 594.13,438.65 594.93,439.73 C595.24,440.15 597.19,441.28 599.25,442.23 C601.31,443.19 603.00,444.42 603.00,444.98 C603.00,445.54 603.92,446.00 605.05,446.00 C607.37,446.00 613.00,448.67 613.00,449.78 C613.00,450.17 615.03,451.78 617.50,453.34 C619.98,454.90 622.00,456.59 622.00,457.09 C622.00,457.59 622.63,458.00 623.41,458.00 C625.49,458.00 633.00,463.16 633.00,464.59 C633.00,465.27 635.06,466.82 637.59,468.04 C643.61,470.96 649.94,477.67 649.97,481.18 C650.00,484.13 651.92,486.52 655.05,487.51 C656.25,487.90 657.32,489.35 657.66,491.05 C657.98,492.65 659.08,494.21 660.12,494.54 C661.27,494.90 662.00,496.06 662.00,497.53 C662.00,499.00 662.87,500.39 664.25,501.11 C667.50,502.82 667.89,503.83 666.81,507.72 C666.29,509.63 666.00,511.26 666.18,511.34 C673.77,515.02 674.96,516.99 675.01,526.00 C675.05,533.46 676.41,540.30 677.95,540.82 C678.53,541.01 678.99,542.14 678.97,543.33 C678.94,545.34 678.84,545.37 677.62,543.77 C675.86,541.45 675.00,542.54 675.00,547.11 C675.00,549.18 674.60,551.13 674.11,551.43 C673.62,551.73 672.92,553.20 672.54,554.68 C672.17,556.16 671.00,558.60 669.93,560.09 C668.57,562.01 668.00,564.48 668.00,568.45 C668.00,571.83 667.32,575.38 666.31,577.30 C665.04,579.70 664.47,584.13 664.06,594.96 L 663.50 609.42 L 660.41 610.05 C653.09,611.54 654.02,614.35 662.19,615.43 L 667.35 616.11 L 662.42 618.39 C659.27,619.85 653.55,621.12 646.50,621.93 C640.45,622.63 634.15,623.79 632.50,624.51 C627.79,626.55 624.55,627.07 609.54,628.18 C593.65,629.35 514.98,629.86 499.00,628.90 ZM 486.42 459.39 C487.99,458.79 488.68,455.98 487.25,456.02 C486.84,456.03 485.38,456.92 484.00,458.00 C482.08,459.50 481.89,459.96 483.17,459.98 C484.09,459.99 485.55,459.73 486.42,459.39 ZM 428.00 618.00 C428.00,617.45 428.67,617.00 429.50,617.00 C430.33,617.00 431.00,617.45 431.00,618.00 C431.00,618.55 430.33,619.00 429.50,619.00 C428.67,619.00 428.00,618.55 428.00,618.00 ZM 674.63 614.75 C674.30,613.51 674.02,612.16 674.01,611.75 C673.99,610.43 676.71,610.95 678.00,612.50 C678.99,613.70 678.99,614.30 678.00,615.50 C676.27,617.58 675.33,617.38 674.63,614.75 ZM 420.41 611.86 C419.43,610.27 421.98,609.03 426.25,609.02 C429.79,609.00 431.46,610.62 428.75,611.44 C424.92,612.61 421.00,612.81 420.41,611.86 ZM 318.61 573.26 C316.47,573.04 314.08,572.22 313.29,571.43 C312.38,570.53 309.77,570.00 306.17,570.00 C303.05,570.00 298.91,569.49 296.99,568.88 C295.07,568.26 289.34,567.61 284.26,567.45 C276.83,567.21 274.44,566.74 272.10,565.07 C270.41,563.87 267.59,562.99 265.35,562.96 C263.23,562.95 260.38,562.26 259.00,561.45 C257.52,560.57 257.19,560.07 258.18,560.23 C259.11,560.38 259.89,560.05 259.92,559.50 C259.94,558.95 259.11,558.50 258.07,558.50 C257.03,558.50 255.83,558.15 255.40,557.73 C254.97,557.30 254.50,551.60 254.35,545.06 C254.14,535.64 254.39,532.92 255.54,531.96 C256.35,531.30 257.00,530.21 257.00,529.54 C257.00,528.88 258.35,524.13 260.00,519.00 C261.65,513.87 263.00,508.46 263.00,506.99 C263.00,505.52 263.88,503.51 264.96,502.53 C266.04,501.56 267.46,499.13 268.12,497.14 C268.80,495.06 271.37,491.68 274.16,489.17 C276.82,486.77 279.00,484.23 279.00,483.52 C279.00,482.81 280.12,481.49 281.50,480.59 C282.88,479.69 284.00,478.34 284.00,477.60 C284.00,476.85 286.48,474.98 289.51,473.45 C292.54,471.92 297.71,468.49 301.01,465.83 C304.50,463.02 308.03,461.00 309.45,461.00 C310.79,461.00 312.14,460.59 312.45,460.09 C313.60,458.22 321.75,455.00 325.32,455.00 C327.34,455.00 329.00,454.58 329.00,454.07 C329.00,453.03 330.65,452.43 336.39,451.41 C339.19,450.92 340.09,451.04 339.59,451.86 C339.17,452.53 339.54,453.00 340.50,453.00 C341.39,453.00 341.86,452.58 341.54,452.06 C339.79,449.23 358.21,450.13 366.44,453.28 C368.06,453.90 370.43,454.32 371.69,454.21 C374.66,453.97 374.61,454.73 371.50,457.18 C369.87,458.46 369.00,460.14 369.00,462.01 C369.00,463.59 368.57,465.15 368.05,465.47 C366.56,466.39 361.27,474.56 360.48,477.16 C360.09,478.45 358.92,480.90 357.89,482.62 C356.85,484.33 356.00,486.27 356.00,486.92 C356.00,487.57 354.20,490.81 352.00,494.12 C349.78,497.46 348.00,501.36 348.00,502.87 C348.00,504.37 347.60,506.03 347.10,506.55 C345.61,508.13 341.00,520.50 341.00,522.92 C341.00,524.17 340.28,527.66 339.41,530.68 C338.53,533.69 337.97,538.15 338.16,540.58 C338.36,543.01 338.23,545.00 337.88,545.00 C337.13,545.00 333.00,554.34 333.00,556.03 C333.00,556.66 331.84,560.46 330.41,564.47 C328.51,569.84 327.18,572.05 325.37,572.88 C324.01,573.50 322.81,573.92 322.70,573.83 C322.59,573.74 320.75,573.48 318.61,573.26 ZM 263.50 526.99 C263.85,526.44 263.40,525.71 262.52,525.37 C260.61,524.63 259.54,525.44 260.46,526.93 C261.29,528.28 262.69,528.30 263.50,526.99 ZM 268.00 515.00 C268.00,513.89 267.33,513.00 266.50,513.00 C264.98,513.00 264.45,515.12 265.67,516.33 C266.93,517.60 268.00,516.99 268.00,515.00 ZM 770.42 570.79 C767.32,569.38 764.09,559.36 762.06,544.89 C761.09,537.95 759.99,531.79 759.62,531.19 C759.25,530.60 757.56,525.25 755.86,519.30 C754.16,513.36 751.50,506.00 749.96,502.94 C748.42,499.88 746.85,495.72 746.47,493.69 C746.09,491.66 745.42,490.00 744.99,490.00 C743.63,490.00 740.00,482.07 740.00,479.09 C740.00,477.01 739.06,475.52 736.50,473.57 C734.58,472.10 733.00,470.29 733.00,469.54 C733.00,467.04 724.55,455.42 720.77,452.72 C718.38,451.01 717.25,449.52 717.61,448.57 C718.10,447.31 718.72,447.38 721.82,449.05 C723.83,450.12 726.00,451.00 726.65,451.00 C727.30,451.00 728.02,451.55 728.24,452.21 C728.54,453.11 729.52,453.00 732.04,451.78 C734.45,450.61 735.82,450.43 736.70,451.17 C737.47,451.80 739.79,451.92 742.73,451.47 C745.35,451.07 752.67,450.73 759.00,450.72 C771.98,450.68 784.79,453.29 790.04,457.03 C791.73,458.23 793.35,458.98 793.64,458.69 C794.64,457.69 800.00,460.20 800.00,461.66 C800.00,462.46 800.34,462.91 800.76,462.65 C801.17,462.39 804.04,464.05 807.13,466.34 C810.21,468.63 814.01,471.40 815.56,472.50 C817.11,473.60 819.49,475.74 820.85,477.25 C822.22,478.76 823.55,479.78 823.81,479.52 C824.08,479.25 825.39,480.27 826.72,481.77 C835.55,491.75 838.00,494.89 838.00,496.24 C838.00,497.07 838.67,498.32 839.50,499.00 C840.33,499.68 841.00,500.85 841.00,501.59 C841.00,503.19 843.94,509.88 845.58,512.00 C846.22,512.83 846.99,515.51 847.30,517.96 C847.61,520.42 848.46,522.90 849.18,523.46 C851.01,524.90 851.67,543.49 849.96,545.54 C849.13,546.55 848.89,549.28 849.23,553.98 C849.80,561.99 848.38,565.32 844.69,564.56 C843.49,564.31 840.33,563.83 837.68,563.48 C833.11,562.89 832.91,562.96 833.90,564.82 C834.89,566.66 834.51,566.82 827.73,567.41 C823.75,567.75 818.47,568.02 816.00,568.00 C813.53,567.97 807.22,568.68 802.00,569.56 C790.75,571.46 773.36,572.14 770.42,570.79 ZM 359.50 397.26 C358.40,396.99 357.14,396.15 356.70,395.39 C356.18,394.48 354.07,394.00 350.59,394.00 C346.78,394.00 344.55,393.43 342.73,392.00 C341.33,390.90 339.58,389.99 338.84,389.99 C336.71,389.96 329.91,383.70 329.62,381.50 C329.47,380.40 328.40,379.07 327.25,378.54 C326.01,377.98 324.90,376.28 324.55,374.39 C324.22,372.64 323.28,370.65 322.47,369.98 C321.66,369.31 321.00,368.25 320.99,367.63 C320.99,367.01 320.26,365.15 319.37,363.50 C316.84,358.82 316.62,336.03 319.11,337.57 C319.60,337.87 320.00,337.45 320.00,336.64 C320.00,335.83 320.34,335.02 320.75,334.83 C321.89,334.33 326.00,328.22 326.00,327.04 C326.00,326.47 326.52,326.00 327.17,326.00 C327.81,326.00 328.04,325.71 327.68,325.35 C326.76,324.43 330.82,318.14 334.45,314.85 C336.13,313.33 338.71,311.82 340.18,311.48 C341.66,311.15 343.40,310.23 344.05,309.44 C344.71,308.65 345.68,308.00 346.21,308.00 C346.74,308.00 350.09,306.65 353.66,305.00 C363.21,300.58 372.52,301.20 379.03,306.68 C381.83,309.03 383.03,309.46 388.05,309.87 C390.10,310.04 404.54,324.20 406.47,327.94 C407.30,329.55 407.74,331.52 407.44,332.31 C407.13,333.10 408.04,335.44 409.44,337.51 C410.85,339.58 412.06,342.68 412.13,344.39 C412.50,352.99 411.64,363.83 410.36,366.50 C407.26,373.00 399.28,385.00 398.06,385.00 C397.56,385.00 395.88,386.06 394.33,387.35 C390.80,390.28 376.17,395.67 369.50,396.50 C366.75,396.84 363.83,397.26 363.00,397.43 C362.17,397.60 360.60,397.53 359.50,397.26 ZM 743.00 395.84 C741.08,395.29 737.21,394.53 734.40,394.14 C731.60,393.75 728.12,392.66 726.69,391.71 C725.25,390.77 723.38,390.00 722.54,390.00 C721.69,390.00 721.00,389.54 721.00,388.97 C721.00,388.40 720.21,387.65 719.25,387.31 C715.63,386.00 712.00,382.79 712.00,380.90 C712.00,379.82 711.31,378.67 710.46,378.35 C708.89,377.74 705.71,372.34 703.19,366.00 C701.92,362.82 701.13,355.82 700.71,344.20 C700.63,341.83 701.04,339.58 701.62,339.20 C702.21,338.81 702.99,337.29 703.35,335.82 C703.71,334.35 704.62,332.52 705.37,331.77 C706.12,331.02 707.53,328.87 708.50,327.00 C711.12,321.93 722.07,311.00 724.52,311.00 C725.66,311.00 727.03,310.58 727.55,310.07 C728.07,309.56 731.54,307.54 735.26,305.57 C740.51,302.80 743.19,302.00 747.23,302.00 C752.98,302.00 760.38,304.34 763.56,307.17 C764.70,308.18 766.63,309.00 767.86,309.00 C769.09,309.00 771.32,309.63 772.81,310.40 C775.86,311.98 786.00,322.34 786.00,323.87 C786.00,324.42 786.87,325.14 787.94,325.48 C789.16,325.87 790.50,328.00 791.59,331.30 C792.53,334.16 793.90,337.41 794.62,338.52 C797.51,342.97 795.51,365.95 791.87,370.15 C790.84,371.34 789.99,373.02 789.99,373.90 C789.96,377.50 777.85,390.00 774.39,390.00 C773.21,390.00 771.66,390.70 770.95,391.56 C770.09,392.59 768.81,392.92 767.20,392.51 C765.45,392.08 764.19,392.49 762.83,393.95 C761.38,395.51 759.67,396.00 755.71,396.01 C752.84,396.02 749.60,396.21 748.50,396.43 C747.40,396.66 744.92,396.39 743.00,395.84 ZM 542.00 367.98 C540.08,367.55 536.15,366.36 533.27,365.35 C529.23,363.92 528.16,363.12 528.57,361.81 C528.89,360.78 528.35,359.72 527.18,359.10 C524.74,357.79 523.78,358.72 525.07,361.13 C525.94,362.75 525.70,363.00 523.29,362.97 C521.75,362.95 519.63,362.28 518.56,361.47 C517.49,360.66 515.60,360.00 514.36,360.00 C512.95,360.00 511.09,358.68 509.43,356.50 C507.96,354.58 506.25,352.99 505.63,352.98 C503.82,352.96 489.36,337.75 488.52,335.00 C488.11,333.62 487.09,331.73 486.27,330.80 C485.45,329.86 484.66,327.65 484.52,325.88 C484.38,324.12 483.53,322.13 482.63,321.47 C481.74,320.82 481.00,319.19 481.00,317.86 C481.00,316.53 480.25,314.37 479.33,313.06 C478.06,311.25 477.55,307.67 477.21,298.06 C476.76,285.61 476.78,285.41 479.38,282.33 C480.82,280.61 482.00,278.55 482.00,277.74 C482.00,276.93 482.92,275.10 484.05,273.66 C485.62,271.66 485.95,270.25 485.45,267.60 C484.92,264.76 485.18,263.91 486.90,262.83 C488.06,262.11 489.00,260.80 489.00,259.92 C489.00,259.05 490.24,257.16 491.75,255.74 C493.26,254.31 496.52,250.83 499.00,248.01 C507.57,238.24 510.17,236.00 512.98,236.00 C514.79,236.00 516.73,234.85 518.86,232.50 C521.10,230.04 523.01,228.94 525.27,228.81 C527.05,228.70 529.62,228.54 531.00,228.46 C535.46,228.21 540.00,226.87 540.00,225.81 C540.00,225.19 541.31,225.01 543.25,225.36 C545.04,225.68 551.56,226.01 557.75,226.09 C564.03,226.17 569.00,226.65 569.00,227.18 C569.00,227.69 569.40,227.87 569.88,227.57 C570.36,227.28 572.86,228.15 575.43,229.52 C578.00,230.88 580.67,232.00 581.37,232.00 C582.06,232.00 583.93,233.36 585.52,235.02 C587.33,236.91 589.84,238.27 592.21,238.65 C595.06,239.10 596.00,239.73 596.00,241.16 C596.00,243.02 597.23,243.92 600.41,244.38 C602.25,244.65 609.51,252.83 608.66,253.67 C608.03,254.30 615.50,269.43 617.81,272.20 C619.61,274.37 621.98,285.35 622.68,294.81 C623.09,300.26 622.80,303.23 621.57,306.46 C620.07,310.37 618.92,315.36 617.33,324.72 C616.99,326.75 616.05,328.17 614.80,328.56 C613.28,329.04 612.92,329.82 613.30,331.79 C613.68,333.80 613.08,335.03 610.65,337.19 C608.92,338.73 607.05,340.51 606.50,341.13 C601.91,346.38 592.43,355.00 591.26,355.00 C590.47,355.00 587.45,357.02 584.55,359.50 C579.13,364.13 577.22,364.82 575.27,362.87 C574.44,362.04 573.25,362.30 570.67,363.90 C568.75,365.08 565.91,365.98 564.34,365.91 C562.78,365.83 557.90,366.50 553.50,367.39 C549.10,368.27 545.50,368.95 545.50,368.88 C545.50,368.82 543.92,368.42 542.00,367.98 Z" fill="rgb(254,253,251)"/>
</g>
</svg>