<svg xmlns="http://www.w3.org/2000/svg" xmlns:xlink="http://www.w3.org/1999/xlink" id="Layer_1" width="100%" x="0" y="0" enable-background="new 0 0 1024 1024" version="1.1" viewBox="0 0 1024 1024" xml:space="preserve"><path fill="#FFF" stroke="none" d="M657.000000,1025.000000 C438.000000,1025.000000 219.500000,1025.000000 1.000000,1025.000000 C1.000000,683.666687 1.000000,342.333344 1.000000,1.000000 C342.333344,1.000000 683.666687,1.000000 1025.000000,1.000000 C1025.000000,342.333344 1025.000000,683.666687 1025.000000,1025.000000 C902.500000,1025.000000 780.000000,1025.000000 657.000000,1025.000000 M638.017822,360.981873 C638.017822,360.981873 638.095459,360.948395 637.797424,360.393463 C637.258118,360.127991 636.718811,359.862518 636.100159,359.726135 C636.100159,359.726135 636.250732,359.742950 635.854370,359.121002 C633.189453,358.415039 630.531433,357.130646 627.858398,357.098450 C612.317017,356.911072 596.771790,356.983124 581.228516,357.074432 C579.497192,357.084595 577.769775,357.770111 575.341553,358.130432 C571.006409,360.307617 567.426147,363.101318 566.281433,369.085602 C566.205261,369.409576 566.062317,369.733521 566.062256,370.057526 C566.041016,444.537628 566.017944,519.017700 566.097229,593.497742 C566.098938,595.103882 567.277832,596.708740 567.857361,599.004089 C569.924194,600.266235 571.991028,601.528320 574.973083,602.968384 C595.298218,602.919800 615.623413,602.871277 636.671082,602.911743 C641.738892,601.631287 644.064514,598.452148 644.059875,593.154297 C643.995544,519.675720 644.066406,446.196899 643.776978,372.719421 C643.762573,369.053772 640.759766,365.399963 638.940918,361.292450 C638.693970,361.049805 638.397644,360.920502 638.017822,360.981873 M736.615295,599.738281 C736.824890,599.112183 737.034485,598.486145 737.698669,597.563721 C737.803101,597.043762 737.907593,596.523743 738.398560,595.277100 C738.564209,593.463806 738.874268,591.650513 738.874695,589.837158 C738.893188,508.860443 738.900452,427.883759 738.865051,346.907043 C738.858215,331.249359 738.949585,315.582947 738.453735,299.937714 C738.198608,291.885986 732.335693,285.936340 724.432129,285.739990 C707.953247,285.330566 691.445862,285.236694 674.979309,285.826447 C671.458984,285.952545 668.062500,289.537415 664.611206,291.614563 C664.611206,291.614563 664.533081,291.649872 663.985535,291.972870 C663.376892,293.333069 662.768311,294.693237 661.771301,296.798340 C661.513428,299.412781 661.032288,302.027100 661.030457,304.641724 C660.987854,366.937592 660.978149,429.233521 661.003845,491.529419 C661.017761,525.338196 661.107788,559.147034 661.030090,593.726562 C661.410828,597.648926 662.580688,601.000793 667.649292,602.536499 C668.291931,602.678162 668.934326,602.942688 669.577148,602.943665 C689.479980,602.974121 709.383118,603.020996 729.285278,602.909424 C730.933838,602.900146 732.576172,601.790344 734.066711,601.201111 C734.066711,601.201111 734.125916,601.344360 734.754089,601.289185 C735.192322,600.871704 735.630493,600.454163 736.004761,600.005554 C736.004761,600.005554 736.036499,600.069214 736.615295,599.738281 M442.026428,465.167297 C441.691528,465.090942 441.356628,465.014587 440.459595,464.404480 C438.201782,463.935089 435.947021,463.076935 433.685699,463.059296 C418.762390,462.942993 403.836761,462.914490 388.913910,463.062347 C383.539276,463.115601 378.941925,465.176544 375.410614,470.337402 C375.120911,471.130249 374.831177,471.923096 374.643219,472.807159 C374.643219,472.807159 374.637756,472.670593 373.976379,473.093323 C373.633850,474.517456 372.994537,475.941162 372.992523,477.365784 C372.951965,506.243530 372.984497,535.121399 372.822235,564.658325 C372.882263,565.105774 372.942291,565.553162 372.844208,566.915649 C372.904266,570.942017 372.964355,574.968384 372.837341,579.815735 C372.899536,581.211670 372.961761,582.607666 372.864502,584.917053 C372.858459,587.378174 372.331329,589.986389 372.974152,592.264404 C373.838379,595.327087 375.605560,598.134888 377.233917,601.616272 C377.815308,601.758545 378.396698,601.900757 379.436829,602.509827 C380.284515,602.629028 381.132172,602.748169 382.735565,603.025085 C383.501831,602.975220 384.268097,602.925415 385.960510,602.997986 C404.629120,602.958069 423.297699,602.918152 442.711426,603.009766 C444.880249,601.397339 447.049042,599.784912 449.193176,598.012268 C449.193176,598.012268 449.187408,598.173584 449.748871,597.651184 C450.089722,595.538391 450.723389,593.426270 450.727814,591.312744 C450.804382,554.944092 450.836945,518.575195 450.744812,482.206604 C450.738525,479.741028 449.665833,477.278168 449.031799,474.213898 C448.991760,473.814667 448.951721,473.415405 449.001831,472.310211 C446.804382,470.086395 444.606964,467.862549 442.344757,465.667297 C442.344757,465.667297 442.317322,465.602051 442.026428,465.167297 M539.672607,602.958313 C543.779297,601.835266 547.136475,600.027771 547.194397,594.076904 C547.234741,593.413330 547.310059,592.749756 547.310425,592.086182 C547.340759,532.210449 547.368713,472.334778 547.370117,412.459076 C547.370178,410.980957 547.069885,409.502838 547.035706,407.253540 C545.147705,398.399017 540.354309,393.543396 531.479858,393.325378 C515.518005,392.933228 499.534576,393.010498 483.569641,393.345215 C477.262573,393.477448 472.132507,396.428284 469.450958,403.579529 C469.170197,406.878845 468.678040,410.176208 468.647766,413.477814 C468.551758,423.962524 468.638580,434.448853 468.635773,444.934540 C468.622864,493.366486 468.564575,541.798584 468.681549,590.230164 C468.688721,593.193298 470.064819,596.153198 471.088898,599.727844 C472.387512,600.500305 473.686127,601.272705 475.632874,602.577820 C496.735809,602.667908 517.838745,602.757996 539.672607,602.958313 M769.651672,685.839233 C777.713989,682.725647 779.975525,679.504578 780.011658,671.037048 C780.029297,666.905640 780.094360,662.772339 780.001404,658.642944 C779.831421,651.087097 776.281067,646.532715 768.013733,644.045898 C664.021240,644.024841 560.028687,643.987366 456.036194,643.991333 C418.375153,643.992798 380.714111,644.093628 342.201569,643.956116 C341.806793,642.343140 341.067169,640.730347 341.066376,639.117188 C341.006500,518.671753 341.005035,398.226288 340.998932,277.780853 C340.998840,276.331390 340.998901,274.881927 340.998901,273.008362 C344.778625,273.008362 348.071381,273.019196 351.364075,273.006378 C362.624420,272.962616 368.335968,267.097961 368.337769,255.589218 C368.339600,243.903320 362.709930,237.990677 351.550140,237.983994 C336.890106,237.975204 322.230103,237.978699 307.570068,237.980759 C296.300110,237.982346 291.810669,242.400299 291.807831,253.616394 C291.778381,370.228821 291.754608,486.841248 291.747467,603.453674 C291.746002,627.107178 291.697754,650.761841 291.932953,674.413391 C292.006378,681.794800 295.451141,684.918640 303.957001,686.019958 C305.122162,686.039307 306.287323,686.075439 307.452484,686.075562 C450.465424,686.085693 593.478333,686.099609 736.491272,686.087891 C747.305542,686.087036 758.119751,685.902893 769.651672,685.839233 z" opacity="1"/><path fill="#F28117" stroke="none" d="M768.923645,644.235840 C776.281067,646.532715 779.831421,651.087097 780.001404,658.642944 C780.094360,662.772339 780.029297,666.905640 780.011658,671.037048 C779.975525,679.504578 777.713989,682.725647 768.973999,685.566772 C766.476990,685.197876 764.657532,685.017029 762.838135,685.016846 C611.483887,685.003052 460.129700,685.000183 308.775482,685.038452 C306.861664,685.038940 304.947968,685.580505 303.034210,685.869507 C295.451141,684.918640 292.006378,681.794800 291.932953,674.413391 C291.697754,650.761841 291.746002,627.107178 291.747467,603.453674 C291.754608,486.841248 291.778381,370.228821 291.807831,253.616394 C291.810669,242.400299 296.300110,237.982346 307.570068,237.980759 C322.230103,237.978699 336.890106,237.975204 351.550140,237.983994 C362.709930,237.990677 368.339600,243.903320 368.337769,255.589218 C368.335968,267.097961 362.624420,272.962616 351.364075,273.006378 C348.071381,273.019196 344.778625,273.008362 340.998901,273.008362 C340.998901,274.881927 340.998840,276.331390 340.998932,277.780853 C341.005035,398.226288 341.006500,518.671753 341.066376,639.117188 C341.067169,640.730347 341.806793,642.343140 342.937805,644.320923 C345.159882,644.789612 346.645782,644.984436 348.131653,644.984619 C486.629211,644.999207 625.126770,645.001892 763.624329,644.968018 C765.390808,644.967590 767.157227,644.490417 768.923645,644.235840 M765.985046,657.026062 C765.985046,657.026062 765.947815,657.093079 765.919739,656.466736 C765.232666,656.367188 764.545593,656.267578 763.217285,656.121216 C762.795349,656.046814 762.373413,655.972473 761.796753,655.116943 C759.778015,654.747070 757.759460,654.054138 755.740601,654.053406 C615.546753,654.003479 475.352905,654.013245 335.159058,653.968201 C333.099548,653.967590 331.040192,653.343079 328.995331,652.070496 C328.996857,524.965271 329.002502,397.860077 328.960602,270.754883 C328.959961,268.854065 328.369781,266.953430 328.018463,264.168854 C328.113495,262.582764 328.208496,260.996674 328.341370,258.778961 C335.807281,258.778961 342.830475,258.875549 349.846588,258.695679 C351.215820,258.660614 352.557495,257.551849 354.007782,256.165833 C353.666809,254.210617 353.325867,252.255386 352.527130,249.559616 C352.068085,249.390106 351.609497,249.073807 351.149933,249.072418 C337.373962,249.030594 323.597809,248.990616 309.822296,249.069046 C308.886475,249.074371 307.955902,250.006561 306.866394,251.173279 C306.145111,253.153198 305.423798,255.133133 303.961273,257.281464 C303.641113,259.328003 303.041351,261.374451 303.040680,263.421082 C302.996185,395.717316 303.000275,528.013550 303.000214,660.309753 C303.000214,661.642517 302.898895,662.990234 303.085358,664.296631 C303.127350,664.591187 304.177673,664.741882 304.934082,665.597778 C304.992157,666.034058 305.050232,666.470337 305.024017,667.685303 C306.052307,669.238098 307.080566,670.790894 308.298065,673.066528 C310.181824,673.378479 312.065247,673.960388 313.949402,673.962769 C354.911713,674.014587 395.874115,674.001709 436.836517,674.001465 C544.071411,674.000916 651.306335,674.008301 758.541138,673.943665 C760.685486,673.942383 762.829346,673.099854 765.095520,671.938660 C765.423523,668.614136 765.751465,665.289551 766.101501,661.171814 C766.066772,660.115234 766.031982,659.058594 766.331665,657.808472 C766.190613,657.548767 766.049561,657.289001 765.985046,657.026062 z" opacity="1"/><path fill="#F18116" stroke="none" d="M667.009277,601.996643 C662.580688,601.000793 661.410828,597.648926 661.357422,593.041626 C662.121582,584.924255 662.872620,577.494568 662.935120,570.059082 C663.108398,549.420044 662.988159,528.778503 662.996277,508.138000 C663.024109,437.727783 663.057312,367.317566 663.460449,296.839905 C664.065979,295.064941 664.299500,293.357391 664.533081,291.649872 C664.533081,291.649872 664.611206,291.614563 664.988770,291.673004 C670.277100,289.472626 674.638733,286.862396 680.817749,287.248016 C693.223511,288.022339 705.731323,287.149017 718.197327,286.976471 C731.828857,286.787720 737.245178,293.430817 737.200806,306.987518 C736.892212,401.257935 737.035339,495.529877 737.084351,589.801331 C737.085449,591.868958 737.689331,593.936279 738.012085,596.003784 C737.907593,596.523743 737.803101,597.043762 737.188843,597.898132 C736.464844,598.844788 736.250671,599.456970 736.036499,600.069214 C736.036499,600.069214 736.004761,600.005554 735.710266,600.046387 C734.985779,600.506226 734.555847,600.925293 734.125916,601.344360 C734.125916,601.344360 734.066711,601.201111 733.703491,601.146484 C731.054749,601.395264 728.770264,601.951965 726.483398,601.961853 C709.174255,602.036499 691.864685,602.004333 674.555237,602.004517 C672.039917,602.004517 669.524597,601.999390 667.009277,601.996643 M675.970520,301.010071 C675.970520,301.010071 675.948059,300.935150 675.448853,301.149475 C675.236267,301.443054 675.023743,301.736603 674.045593,302.233002 C673.696228,303.598022 673.041748,304.962860 673.041016,306.328033 C672.993591,398.792999 672.991882,491.257965 673.062500,583.722900 C673.063538,585.142212 674.012878,586.560669 675.174744,588.569946 C677.772827,588.707581 680.370972,588.845215 683.909729,589.017700 C697.599854,589.010193 711.290039,589.002686 725.456055,588.794434 C725.660095,588.521057 725.864197,588.247681 726.639160,587.372925 C726.760132,586.225647 726.986816,585.078369 726.987000,583.931091 C727.004456,490.837280 727.009460,397.743500 726.960388,304.649719 C726.959595,303.108246 726.284546,301.567139 725.993286,300.047150 C725.993286,300.047150 725.928467,300.079315 725.870178,299.360382 C725.106384,298.939453 724.342590,298.518524 722.906250,298.138641 C722.234131,298.138977 721.562073,298.139343 719.976257,298.048492 C707.240784,298.020142 694.502930,297.864166 681.772217,298.097382 C679.804626,298.133484 677.869751,299.954712 675.970520,301.010071 z" opacity="1"/><path fill="#F28117" stroke="none" d="M639.148376,361.740631 C640.759766,365.399963 643.762573,369.053772 643.776978,372.719421 C644.066406,446.196899 643.995544,519.675720 644.059875,593.154297 C644.064514,598.452148 641.738892,601.631287 635.992920,602.607178 C615.485657,602.208862 595.656494,602.108337 575.827271,602.053772 C575.238098,602.052124 574.647644,602.533997 574.057861,602.790405 C571.991028,601.528320 569.924194,600.266235 567.899963,598.214783 C567.626404,593.807617 567.037964,590.190063 567.034363,586.571899 C566.962158,513.854797 566.957153,441.137665 566.938660,368.420502 C567.426147,363.101318 571.006409,360.307617 575.991577,358.400879 C581.218384,358.448853 585.803650,357.928131 590.370422,358.058350 C605.667419,358.494537 620.957825,359.163269 636.250732,359.742950 C636.250732,359.742950 636.100159,359.726135 636.211182,359.991638 C636.913330,360.487549 637.504395,360.717987 638.095459,360.948395 C638.095459,360.948395 638.017822,360.981873 638.033936,361.200317 C638.416138,361.526062 638.782227,361.633331 639.148376,361.740631 M582.223877,369.017365 C581.503967,369.863831 580.784119,370.710297 580.216003,371.732574 C580.216003,371.732574 580.145508,371.953888 579.327881,372.123108 C578.885925,373.597595 578.058716,375.071747 578.057373,376.546631 C577.994934,445.598419 577.995300,514.650269 578.067261,583.702087 C578.068726,585.129700 578.995972,586.556396 580.149353,588.575500 C582.765564,588.716492 585.381836,588.857483 588.499084,589.003113 C588.666138,589.002380 588.833130,589.001648 589.937073,589.029053 C601.761353,589.036926 613.593567,588.796875 625.406128,589.172668 C630.244995,589.326660 631.094727,587.600281 631.082886,583.213806 C630.945496,532.419617 631.013000,481.624878 630.995239,430.830292 C630.988831,412.512756 630.899475,394.195251 630.827393,375.188660 C629.198853,373.482788 627.570312,371.776917 625.166504,369.977509 C624.136536,369.846191 623.106506,369.714874 622.619690,369.209045 C623.717163,368.974945 624.814697,368.740845 625.912170,368.506714 C612.743713,368.001251 599.698181,367.974854 586.653137,368.044769 C585.435425,368.051300 584.220947,368.667114 582.223877,369.017365 z" opacity="1"/><path fill="#F18116" stroke="none" d="M546.952087,594.986389 C547.136475,600.027771 543.779297,601.835266 538.997192,602.635132 C520.047363,602.208862 501.772980,602.101929 483.498505,602.006714 C480.660736,601.991943 477.822662,602.031006 474.984741,602.045166 C473.686127,601.272705 472.387512,600.500305 471.234009,599.211304 C470.918793,596.006226 470.060059,593.318176 470.056732,590.629150 C469.982269,530.590820 470.002472,470.552429 470.002747,410.514038 C470.002777,408.004761 469.984070,405.495514 469.974091,402.986237 C472.132507,396.428284 477.262573,393.477448 483.569641,393.345215 C499.534576,393.010498 515.518005,392.933228 531.479858,393.325378 C540.354309,393.543396 545.147705,398.399017 546.692993,407.944000 C546.234375,409.615753 546.017456,410.596985 546.017212,411.578308 C545.999329,471.314850 545.992676,531.051392 546.037292,590.787964 C546.038330,592.187622 546.633850,593.586914 546.952087,594.986389 M530.785706,405.091217 C530.264099,404.749054 529.744019,404.110535 529.220764,404.107941 C514.844177,404.037415 500.467255,404.024414 486.090698,404.075653 C485.843903,404.076569 485.600342,404.984192 484.842041,405.962585 C483.960846,409.619171 483.079620,413.275757 482.050018,417.867554 C482.050018,474.751495 482.050018,531.635437 482.050018,588.983521 C485.423889,588.983521 488.201813,588.983521 491.920807,589.009216 C504.243866,589.017456 516.571228,588.843567 528.887695,589.132996 C533.183594,589.233887 534.114197,587.766663 534.098938,583.734497 C533.956970,546.266174 534.030884,508.797089 534.003906,471.328217 C533.989624,451.513580 533.899658,431.698975 533.897766,411.169678 C532.882202,409.510529 531.866577,407.851349 530.900208,406.004425 C530.900208,406.004425 531.017456,405.849670 530.785706,405.091217 z" opacity="1"/><path fill="#F28117" stroke="none" d="M373.023956,584.003601 C372.961761,582.607666 372.899536,581.211670 373.222046,579.113892 C373.405243,574.274841 373.203766,570.137756 373.002319,566.000610 C372.942291,565.553162 372.882263,565.105774 373.211304,564.036560 C373.734406,561.603882 373.983215,559.793152 373.985138,557.982117 C374.011353,533.322144 373.976654,508.662140 374.032135,484.002289 C374.040649,480.224609 374.426453,476.447815 374.637756,472.670593 C374.637756,472.670593 374.643219,472.807159 374.934601,472.763855 C375.462280,471.799255 375.698578,470.877991 375.934845,469.956696 C378.941925,465.176544 383.539276,463.115601 388.913910,463.062347 C403.836761,462.914490 418.762390,462.942993 433.685699,463.059296 C435.947021,463.076935 438.201782,463.935089 440.886414,464.897369 C441.647919,465.460846 441.982605,465.531433 442.317322,465.602051 C442.317322,465.602051 442.344757,465.667297 442.294556,466.005676 C444.466797,468.568085 446.689240,470.792145 448.911682,473.016174 C448.951721,473.415405 448.991760,473.814667 449.050140,474.995056 C449.108124,516.575317 449.147766,557.374451 449.187408,598.173584 C449.187408,598.173584 449.193176,598.012268 448.844238,598.088135 C446.361359,599.441223 444.227386,600.718445 441.618927,601.998474 C424.185883,602.002502 407.227295,601.978455 390.269012,602.042969 C388.523071,602.049622 386.779205,602.585388 385.034363,602.875610 C384.268097,602.925415 383.501831,602.975220 382.311523,602.629639 C380.917664,602.170532 379.947876,602.106750 378.978088,602.043030 C378.396698,601.900757 377.815308,601.758545 377.107666,600.947937 C375.969452,595.412720 374.976349,590.541809 373.921387,585.684265 C373.791718,585.087219 373.331177,584.562073 373.023956,584.003601 M387.418762,476.107941 C386.972473,476.766937 386.526184,477.425903 386.182037,478.126404 C386.182037,478.126404 386.230743,478.225281 385.511597,478.624359 C385.351166,479.087219 385.050659,479.549988 385.050232,480.013000 C385.017456,515.615967 385.028290,551.218994 384.964783,586.821838 C384.958771,590.203613 386.616699,591.047119 389.630188,591.033020 C404.769623,590.962341 419.910065,590.934143 435.048920,591.050659 C438.120850,591.074280 439.053711,589.994568 439.047363,586.992920 C438.972900,551.888794 439.023590,516.784363 438.908569,481.680389 C438.904602,480.468933 437.514587,479.262024 436.402954,477.864868 C436.173950,477.687988 436.023315,477.459442 435.878082,476.387390 C434.198700,475.590393 432.529755,474.128998 430.838318,474.102478 C418.345978,473.906830 405.847992,473.915100 393.355072,474.090363 C391.571167,474.115356 389.804749,475.384583 388.059052,476.011902 C388.059052,476.011902 388.090668,476.076752 387.418762,476.107941 z" opacity="1"/><path fill="#F38B35" stroke="none" d="M738.205322,595.640442 C737.689331,593.936279 737.085449,591.868958 737.084351,589.801331 C737.035339,495.529877 736.892212,401.257935 737.200806,306.987518 C737.245178,293.430817 731.828857,286.787720 718.197327,286.976471 C705.731323,287.149017 693.223511,288.022339 680.817749,287.248016 C674.638733,286.862396 670.277100,289.472626 664.987671,291.630157 C668.062500,289.537415 671.458984,285.952545 674.979309,285.826447 C691.445862,285.236694 707.953247,285.330566 724.432129,285.739990 C732.335693,285.936340 738.198608,291.885986 738.453735,299.937714 C738.949585,315.582947 738.858215,331.249359 738.865051,346.907043 C738.900452,427.883759 738.893188,508.860443 738.874695,589.837158 C738.874268,591.650513 738.564209,593.463806 738.205322,595.640442 z" opacity="1"/><path fill="#EF6F0F" stroke="none" d="M663.088379,296.907349 C663.057312,367.317566 663.024109,437.727783 662.996277,508.138000 C662.988159,528.778503 663.108398,549.420044 662.935120,570.059082 C662.872620,577.494568 662.121582,584.924255 661.424194,592.656250 C661.107788,559.147034 661.017761,525.338196 661.003845,491.529419 C660.978149,429.233521 660.987854,366.937592 661.030457,304.641724 C661.032288,302.027100 661.513428,299.412781 662.161255,296.519714 C662.800537,296.406525 662.979614,296.628601 663.088379,296.907349 z" opacity="1"/><path fill="#ED6006" stroke="none" d="M303.495605,685.944702 C304.947968,685.580505 306.861664,685.038940 308.775482,685.038452 C460.129700,685.000183 611.483887,685.003052 762.838135,685.016846 C764.657532,685.017029 766.476990,685.197876 768.615234,685.549133 C758.119751,685.902893 747.305542,686.087036 736.491272,686.087891 C593.478333,686.099609 450.465424,686.085693 307.452484,686.075562 C306.287323,686.075439 305.122162,686.039307 303.495605,685.944702 z" opacity="1"/><path fill="#ED6006" stroke="none" d="M768.468689,644.140869 C767.157227,644.490417 765.390808,644.967590 763.624329,644.968018 C625.126770,645.001892 486.629211,644.999207 348.131653,644.984619 C346.645782,644.984436 345.159882,644.789612 343.363525,644.417358 C380.714111,644.093628 418.375153,643.992798 456.036194,643.991333 C560.028687,643.987366 664.021240,644.024841 768.468689,644.140869 z" opacity="1"/><path fill="#EF6F0F" stroke="none" d="M469.712524,403.282898 C469.984070,405.495514 470.002777,408.004761 470.002747,410.514038 C470.002472,470.552429 469.982269,530.590820 470.056732,590.629150 C470.060059,593.318176 470.918793,596.006226 471.091553,598.904663 C470.064819,596.153198 468.688721,593.193298 468.681549,590.230164 C468.564575,541.798584 468.622864,493.366486 468.635773,444.934540 C468.638580,434.448853 468.551758,423.962524 468.647766,413.477814 C468.678040,410.176208 469.170197,406.878845 469.712524,403.282898 z" opacity="1"/><path fill="#F38B35" stroke="none" d="M449.468140,597.912354 C449.147766,557.374451 449.108124,516.575317 449.078796,475.295105 C449.665833,477.278168 450.738525,479.741028 450.744812,482.206604 C450.836945,518.575195 450.804382,554.944092 450.727814,591.312744 C450.723389,593.426270 450.089722,595.538391 449.468140,597.912354 z" opacity="1"/><path fill="#ED6006" stroke="none" d="M566.610046,368.753052 C566.957153,441.137665 566.962158,513.854797 567.034363,586.571899 C567.037964,590.190063 567.626404,593.807617 567.925110,597.869873 C567.277832,596.708740 566.098938,595.103882 566.097229,593.497742 C566.017944,519.017700 566.041016,444.537628 566.062256,370.057526 C566.062317,369.733521 566.205261,369.409576 566.610046,368.753052 z" opacity="1"/><path fill="#EF6F0F" stroke="none" d="M547.073242,594.531616 C546.633850,593.586914 546.038330,592.187622 546.037292,590.787964 C545.992676,531.051392 545.999329,471.314850 546.017212,411.578308 C546.017456,410.596985 546.234375,409.615753 546.629944,408.329590 C547.069885,409.502838 547.370178,410.980957 547.370117,412.459076 C547.368713,472.334778 547.340759,532.210449 547.310425,592.086182 C547.310059,592.749756 547.234741,593.413330 547.073242,594.531616 z" opacity="1"/><path fill="#EF6F0F" stroke="none" d="M374.307068,472.881958 C374.426453,476.447815 374.040649,480.224609 374.032135,484.002289 C373.976654,508.662140 374.011353,533.322144 373.985138,557.982117 C373.983215,559.793152 373.734406,561.603882 373.301361,563.707031 C372.984497,535.121399 372.951965,506.243530 372.992523,477.365784 C372.994537,475.941162 373.633850,474.517456 374.307068,472.881958 z" opacity="1"/><path fill="#EF6905" stroke="none" d="M636.052551,359.431976 C620.957825,359.163269 605.667419,358.494537 590.370422,358.058350 C585.803650,357.928131 581.218384,358.448853 576.341064,358.406921 C577.769775,357.770111 579.497192,357.084595 581.228516,357.074432 C596.771790,356.983124 612.317017,356.911072 627.858398,357.098450 C630.531433,357.130646 633.189453,358.415039 636.052551,359.431976 z" opacity="1"/><path fill="#ED6006" stroke="none" d="M667.329285,602.266602 C669.524597,601.999390 672.039917,602.004517 674.555237,602.004517 C691.864685,602.004333 709.174255,602.036499 726.483398,601.961853 C728.770264,601.951965 731.054749,601.395264 733.780884,601.141907 C732.576172,601.790344 730.933838,602.900146 729.285278,602.909424 C709.383118,603.020996 689.479980,602.974121 669.577148,602.943665 C668.934326,602.942688 668.291931,602.678162 667.329285,602.266602 z" opacity="1"/><path fill="#ED6006" stroke="none" d="M475.308807,602.311523 C477.822662,602.031006 480.660736,601.991943 483.498505,602.006714 C501.772980,602.101929 520.047363,602.208862 538.631714,602.579956 C517.838745,602.757996 496.735809,602.667908 475.308807,602.311523 z" opacity="1"/><path fill="#ED6006" stroke="none" d="M574.515503,602.879395 C574.647644,602.533997 575.238098,602.052124 575.827271,602.053772 C595.656494,602.108337 615.485657,602.208862 635.631714,602.562622 C615.623413,602.871277 595.298218,602.919800 574.515503,602.879395 z" opacity="1"/><path fill="#ED6006" stroke="none" d="M385.497437,602.936768 C386.779205,602.585388 388.523071,602.049622 390.269012,602.042969 C407.227295,601.978455 424.185883,602.002502 441.590607,602.219727 C442.036804,602.438171 441.966309,602.878235 441.966309,602.878235 C423.297699,602.918152 404.629120,602.958069 385.497437,602.936768 z" opacity="1"/><path fill="#EF6F0F" stroke="none" d="M372.944214,584.460327 C373.331177,584.562073 373.791718,585.087219 373.921387,585.684265 C374.976349,590.541809 375.969452,595.412720 376.983276,600.665894 C375.605560,598.134888 373.838379,595.327087 372.974152,592.264404 C372.331329,589.986389 372.858459,587.378174 372.944214,584.460327 z" opacity="1"/><path fill="#F38B35" stroke="none" d="M448.956757,472.663208 C446.689240,470.792145 444.466797,468.568085 442.326935,465.991394 C444.606964,467.862549 446.804382,470.086395 448.956757,472.663208 z" opacity="1"/><path fill="#F38B35" stroke="none" d="M442.338867,602.943970 C441.966309,602.878235 442.036804,602.438171 442.065125,602.216919 C444.227386,600.718445 446.361359,599.441223 448.856567,598.168335 C447.049042,599.784912 444.880249,601.397339 442.338867,602.943970 z" opacity="1"/><path fill="#EF6F0F" stroke="none" d="M372.923279,566.458130 C373.203766,570.137756 373.405243,574.274841 373.315582,578.703369 C372.964355,574.968384 372.904266,570.942017 372.923279,566.458130 z" opacity="1"/><path fill="#F38B35" stroke="none" d="M663.460449,296.839905 C662.979614,296.628601 662.800537,296.406525 662.355408,296.147278 C662.768311,294.693237 663.376892,293.333069 664.259277,291.811371 C664.299500,293.357391 664.065979,295.064941 663.460449,296.839905 z" opacity="1"/><path fill="#ED6006" stroke="none" d="M379.207458,602.276428 C379.947876,602.106750 380.917664,602.170532 381.933655,602.550781 C381.132172,602.748169 380.284515,602.629028 379.207458,602.276428 z" opacity="1"/><path fill="#EF6F0F" stroke="none" d="M375.672729,470.147034 C375.698578,470.877991 375.462280,471.799255 374.883728,472.718262 C374.831177,471.923096 375.120911,471.130249 375.672729,470.147034 z" opacity="1"/><path fill="#ED6006" stroke="none" d="M734.440002,601.316772 C734.555847,600.925293 734.985779,600.506226 735.742249,600.061951 C735.630493,600.454163 735.192322,600.871704 734.440002,601.316772 z" opacity="1"/><path fill="#ED6006" stroke="none" d="M736.325928,599.903748 C736.250671,599.456970 736.464844,598.844788 736.961548,598.046326 C737.034485,598.486145 736.824890,599.112183 736.325928,599.903748 z" opacity="1"/><path fill="#EF6905" stroke="none" d="M637.946411,360.670929 C637.504395,360.717987 636.913330,360.487549 636.250854,359.927094 C636.718811,359.862518 637.258118,360.127991 637.946411,360.670929 z" opacity="1"/><path fill="#EF6905" stroke="none" d="M639.044678,361.516541 C638.782227,361.633331 638.416138,361.526062 638.050903,361.161652 C638.397644,360.920502 638.693970,361.049805 639.044678,361.516541 z" opacity="1"/><path fill="#F38B35" stroke="none" d="M442.171875,465.384674 C441.982605,465.531433 441.647919,465.460846 441.167450,465.164246 C441.356628,465.014587 441.691528,465.090942 442.171875,465.384674 z" opacity="1"/><path fill="#FEB422" stroke="none" d="M353.911865,256.938293 C352.557495,257.551849 351.215820,258.660614 349.846588,258.695679 C342.830475,258.875549 335.807281,258.778961 328.341370,258.778961 C328.208496,260.996674 328.113495,262.582764 328.015747,265.072998 C328.009247,343.385315 327.992859,420.793518 328.006104,498.201721 C328.014923,549.806274 328.066010,601.410889 328.082977,653.326294 C328.382233,654.390991 328.696655,655.144958 328.709747,655.962280 C327.918671,656.347717 327.428986,656.669739 326.646240,657.151855 C325.439026,658.925293 322.201050,660.432861 326.208496,662.632080 C328.329071,663.330994 330.368744,663.955322 332.408630,663.955994 C474.166779,664.001709 615.924927,663.992676 757.683044,664.038757 C760.120483,664.039551 762.557739,664.656494 764.996948,665.387695 C765.100342,671.388550 761.156921,671.007874 757.380493,671.007385 C664.438904,670.995361 571.497253,670.997681 478.555664,670.997559 C425.588928,670.997498 372.622192,670.980530 319.655609,671.068848 C317.784760,671.071960 315.915649,672.122009 313.782288,672.758789 C313.022156,672.683167 312.525452,672.532959 312.129883,672.039551 C312.152344,670.129272 312.073608,668.562256 312.022339,666.712524 C312.300568,665.951294 312.551361,665.472717 313.141022,664.739746 C313.652039,662.853149 313.974609,661.221069 313.974915,659.588928 C313.999298,528.479126 314.002136,397.369354 313.960541,266.259583 C313.959991,264.527313 313.372131,262.795227 313.186646,260.710938 C315.171967,259.562927 317.000702,258.158417 318.890594,258.070557 C330.556702,257.528198 342.236572,257.282562 353.911865,256.938293 z" opacity="1"/><path fill="#FDCC58" stroke="none" d="M311.994873,666.995178 C312.073608,668.562256 312.152344,670.129272 311.735626,671.995728 C310.196411,672.311279 309.152649,672.327454 308.108856,672.343689 C307.080566,670.790894 306.052307,669.238098 305.353302,667.008423 C305.793549,664.848877 306.001556,663.366333 306.001709,661.883728 C306.015045,528.645264 306.016205,395.406860 305.969025,262.168427 C305.968414,260.445862 305.338623,258.723480 304.936890,257.054199 C304.871307,257.107391 304.702515,257.113068 304.702515,257.113068 C305.423798,255.133133 306.145111,253.153198 307.403778,250.722778 C322.955750,250.281586 337.970306,250.290878 352.984894,250.300171 C353.325867,252.255386 353.666809,254.210617 353.959839,256.552063 C342.236572,257.282562 330.556702,257.528198 318.890594,258.070557 C317.000702,258.158417 315.171967,259.562927 313.161102,261.115540 C312.897827,262.949707 312.788391,264.027191 312.316376,265.198792 C311.636719,269.304443 311.176758,273.312958 311.091431,277.329437 C311.066437,278.504852 312.106964,279.702881 312.750610,281.343750 C312.769592,284.560028 312.697144,287.323090 312.257751,290.083374 C311.288330,291.544769 310.182007,293.009308 310.182953,294.473083 C310.185303,298.093292 310.960205,301.713074 310.961639,305.333252 C311.007050,417.871185 310.990967,530.409180 311.040344,642.947144 C311.041229,644.994873 311.721069,647.042358 312.114197,649.474609 C312.130127,650.887451 312.115967,651.915710 311.699280,653.039673 C309.158356,657.874756 308.934753,662.517700 311.994873,666.995178 z" opacity="1"/><path fill="#FED25C" stroke="none" d="M326.127716,662.266479 C322.201050,660.432861 325.439026,658.925293 327.121307,657.154968 C468.824921,656.999817 609.760437,657.005005 750.695923,656.966858 C752.439514,656.966370 754.182922,656.411865 756.351379,656.053955 C758.203186,656.040527 759.630127,656.089111 761.135986,656.286316 C761.478943,656.347717 761.742920,656.260437 761.974426,656.108154 C761.942017,656.043091 761.951477,655.898132 761.951477,655.898132 C762.373413,655.972473 762.795349,656.046814 763.750732,656.348694 C764.838684,656.748474 765.393250,656.920776 765.947815,657.093079 C765.947815,657.093079 765.985046,657.026062 765.945190,657.273193 C765.905334,657.520264 765.997192,658.002014 765.997192,658.002014 C766.031982,659.058594 766.066772,660.115234 765.867493,661.643250 C765.335510,662.248169 765.115967,662.462158 764.639648,662.796997 C763.227478,662.585449 762.150513,662.333557 760.778687,661.770508 C759.012268,661.306335 757.540833,661.019226 756.069397,661.018982 C615.385559,660.997742 474.701752,660.994324 334.017944,661.044434 C332.310120,661.045044 330.602539,661.751526 328.546814,662.141357 C327.508392,662.191589 326.818054,662.229004 326.127716,662.266479 z" opacity="1"/><path fill="#FFC726" stroke="none" d="M764.974915,662.756653 C765.115967,662.462158 765.335510,662.248169 765.856445,662.039856 C765.751465,665.289551 765.423523,668.614136 764.572266,672.379822 C762.717896,672.853882 761.386719,672.915405 760.055542,672.915405 C612.879089,672.913940 465.702606,672.908569 318.526123,672.893127 C317.032654,672.893005 315.539215,672.756836 314.045746,672.684204 C315.915649,672.122009 317.784760,671.071960 319.655609,671.068848 C372.622192,670.980530 425.588928,670.997498 478.555664,670.997559 C571.497253,670.997681 664.438904,670.995361 757.380493,671.007385 C761.156921,671.007874 765.100342,671.388550 765.000000,665.017700 C764.992432,663.749512 764.983643,663.253052 764.974915,662.756653 z" opacity="1"/><path fill="#EF6905" stroke="none" d="M761.057007,656.137634 C759.630127,656.089111 758.203186,656.040527 755.890930,656.012817 C685.006042,656.022827 615.006592,656.020691 545.007080,655.998413 C473.008423,655.975464 401.009766,655.932861 329.011108,655.898865 C328.696655,655.144958 328.382233,654.390991 328.303162,653.322510 C328.538544,653.007935 328.980774,653.009766 328.980774,653.009766 C331.040192,653.343079 333.099548,653.967590 335.159058,653.968201 C475.352905,654.013245 615.546753,654.003479 755.740601,654.053406 C757.759460,654.054138 759.778015,654.747070 761.874146,655.507568 C761.951477,655.898132 761.942017,656.043091 761.738037,656.070374 C761.534119,656.097656 761.057007,656.137634 761.057007,656.137634 z" opacity="1"/><path fill="#EF6905" stroke="none" d="M304.763794,664.958801 C304.177673,664.741882 303.127350,664.591187 303.085358,664.296631 C302.898895,662.990234 303.000214,661.642517 303.000214,660.309753 C303.000275,528.013550 302.996185,395.717316 303.040680,263.421082 C303.041351,261.374451 303.641113,259.328003 304.331909,257.197266 C304.702515,257.113068 304.871307,257.107391 304.897980,257.521423 C304.909027,358.985046 304.901581,460.034607 304.873260,561.084167 C304.863556,595.709045 304.801758,630.333923 304.763794,664.958801 z" opacity="1"/><path fill="#EF6905" stroke="none" d="M313.782288,672.758789 C315.539215,672.756836 317.032654,672.893005 318.526123,672.893127 C465.702606,672.908569 612.879089,672.913940 760.055542,672.915405 C761.386719,672.915405 762.717896,672.853882 764.511230,672.735352 C762.829346,673.099854 760.685486,673.942383 758.541138,673.943665 C651.306335,674.008301 544.071411,674.000916 436.836517,674.001465 C395.874115,674.001709 354.911713,674.014587 313.949402,673.962769 C312.065247,673.960388 310.181824,673.378479 308.203461,672.705078 C309.152649,672.327454 310.196411,672.311279 311.634460,672.338867 C312.525452,672.532959 313.022156,672.683167 313.782288,672.758789 z" opacity="1"/><path fill="#FEEB6E" stroke="none" d="M304.848938,665.278320 C304.801758,630.333923 304.863556,595.709045 304.873260,561.084167 C304.901581,460.034607 304.909027,358.985046 304.963562,257.468262 C305.338623,258.723480 305.968414,260.445862 305.969025,262.168427 C306.016205,395.406860 306.015045,528.645264 306.001709,661.883728 C306.001556,663.366333 305.793549,664.848877 305.395447,666.619019 C305.050232,666.470337 304.992157,666.034058 304.848938,665.278320 z" opacity="1"/><path fill="#EF6F0F" stroke="none" d="M328.988037,652.540161 C328.980774,653.009766 328.538544,653.007935 328.318359,653.011719 C328.066010,601.410889 328.014923,549.806274 328.006104,498.201721 C327.992859,420.793518 328.009247,343.385315 328.033875,265.514893 C328.369781,266.953430 328.959961,268.854065 328.960602,270.754883 C329.002502,397.860077 328.996857,524.965271 328.988037,652.540161 z" opacity="1"/><path fill="#ED6006" stroke="none" d="M352.756012,249.929901 C337.970306,250.290878 322.955750,250.281586 307.482025,250.389984 C307.955902,250.006561 308.886475,249.074371 309.822296,249.069046 C323.597809,248.990616 337.373962,249.030594 351.149933,249.072418 C351.609497,249.073807 352.068085,249.390106 352.756012,249.929901 z" opacity="1"/><path fill="#EF6905" stroke="none" d="M765.933777,656.779907 C765.393250,656.920776 764.838684,656.748474 764.071289,656.372070 C764.545593,656.267578 765.232666,656.367188 765.933777,656.779907 z" opacity="1"/><path fill="#EF6905" stroke="none" d="M766.164429,657.905273 C765.997192,658.002014 765.905334,657.520264 765.906921,657.274780 C766.049561,657.289001 766.190613,657.548767 766.164429,657.905273 z" opacity="1"/><path fill="#FECE5A" stroke="none" d="M720.889954,298.139709 C721.562073,298.139343 722.234131,298.138977 723.398438,298.415497 C724.569885,299.154663 725.249146,299.616974 725.928467,300.079315 C725.928467,300.079315 725.993286,300.047150 725.880737,300.409637 C725.733093,301.780090 725.697937,302.788025 725.263916,303.862732 C716.322937,304.642853 707.759033,305.167938 699.248047,306.150970 C695.143188,306.625122 691.137939,307.961426 686.753784,308.939240 C685.608093,309.313354 684.796204,309.655579 683.589355,310.091614 C682.795898,311.852753 682.049744,313.519867 682.048706,315.187408 C681.992676,403.412628 681.993774,491.637909 682.042908,579.863159 C682.043884,581.584900 682.687012,583.306335 683.057495,585.390259 C683.140625,586.474426 683.196716,587.196228 683.167236,587.941040 C683.081787,587.963928 682.910400,588.007751 682.473755,588.008118 C680.129211,587.893372 678.221252,587.778320 676.000000,587.644348 C676.000000,585.060242 676.000305,583.081604 675.999939,581.102966 C675.982666,487.713684 675.965393,394.324432 675.948059,300.935150 C675.948059,300.935150 675.970520,301.010071 676.339355,300.961487 C679.903870,300.276062 683.088013,299.168152 686.297302,299.090057 C696.249268,298.848053 706.211060,299.034698 716.168274,298.956909 C717.744202,298.944611 719.316162,298.424835 720.889954,298.139709 z" opacity="1"/><path fill="#EF6905" stroke="none" d="M674.519653,587.979553 C674.012878,586.560669 673.063538,585.142212 673.062500,583.722900 C672.991882,491.257965 672.993591,398.792999 673.041016,306.328033 C673.041748,304.962860 673.696228,303.598022 674.451416,302.597412 C674.834717,384.830383 674.823547,466.698914 674.778015,548.567444 C674.770691,561.704895 674.609619,574.842163 674.519653,587.979553 z" opacity="1"/><path fill="#FEBE39" stroke="none" d="M724.980164,588.995117 C711.290039,589.002686 697.599854,589.010193 683.435913,588.755859 C682.962097,588.494019 682.910400,588.007751 682.910400,588.007751 C682.910400,588.007751 683.081787,587.963928 683.453369,587.957642 C684.211670,587.962646 684.598450,587.973999 685.454712,587.992920 C696.566711,588.004456 707.222046,587.699402 717.846069,588.143982 C723.065918,588.362427 724.147949,586.676270 724.124817,581.728271 C723.927979,539.658325 723.989563,497.587036 724.091003,455.516418 C724.095398,453.697083 725.244141,451.880463 725.890442,450.526245 C725.669373,496.573669 725.417725,542.157471 725.104614,588.052490 C725.022156,588.574280 725.001160,588.784729 724.980164,588.995117 z" opacity="1"/><path fill="#EF6F0F" stroke="none" d="M725.166016,587.741272 C725.417725,542.157471 725.669373,496.573669 725.940063,450.052338 C725.962158,401.998627 725.967651,354.882446 725.955383,307.766266 C725.955017,306.442810 725.764587,305.119415 725.662842,303.795990 C725.697937,302.788025 725.733093,301.780090 725.846191,300.398987 C726.284546,301.567139 726.959595,303.108246 726.960388,304.649719 C727.009460,397.743500 727.004456,490.837280 726.987000,583.931091 C726.986816,585.078369 726.760132,586.225647 726.126343,587.620972 C725.613586,587.869080 725.166016,587.741272 725.166016,587.741272 z" opacity="1"/><path fill="#FEEB6E" stroke="none" d="M682.473755,588.008118 C682.910400,588.007751 682.962097,588.494019 682.965576,588.738403 C680.370972,588.845215 677.772827,588.707581 674.847168,588.274780 C674.609619,574.842163 674.770691,561.704895 674.778015,548.567444 C674.823547,466.698914 674.834717,384.830383 674.834229,302.496002 C675.023743,301.736603 675.236267,301.443054 675.698486,301.042297 C675.965393,394.324432 675.982666,487.713684 675.999939,581.102966 C676.000305,583.081604 676.000000,585.060242 676.000000,587.644348 C678.221252,587.778320 680.129211,587.893372 682.473755,588.008118 z" opacity="1"/><path fill="#FEEB6E" stroke="none" d="M720.433105,298.094086 C719.316162,298.424835 717.744202,298.944611 716.168274,298.956909 C706.211060,299.034698 696.249268,298.848053 686.297302,299.090057 C683.088013,299.168152 679.903870,300.276062 676.313965,300.931610 C677.869751,299.954712 679.804626,298.133484 681.772217,298.097382 C694.502930,297.864166 707.240784,298.020142 720.433105,298.094086 z" opacity="1"/><path fill="#EF6F0F" stroke="none" d="M725.899292,299.719849 C725.249146,299.616974 724.569885,299.154663 723.734741,298.394958 C724.342590,298.518524 725.106384,298.939453 725.899292,299.719849 z" opacity="1"/><path fill="#FFB323" stroke="none" d="M725.104614,588.052490 C725.166016,587.741272 725.613586,587.869080 725.840942,587.921753 C725.864197,588.247681 725.660095,588.521057 725.218140,588.894775 C725.001160,588.784729 725.022156,588.574280 725.104614,588.052490 z" opacity="1"/><path fill="#FFB323" stroke="none" d="M630.848022,375.877716 C630.899475,394.195251 630.988831,412.512756 630.995239,430.830292 C631.013000,481.624878 630.945496,532.419617 631.082886,583.213806 C631.094727,587.600281 630.244995,589.326660 625.406128,589.172668 C613.593567,588.796875 601.761353,589.036926 589.470215,588.748047 C589.014160,588.289551 589.025024,588.112061 589.332092,587.650391 C589.750854,586.387329 589.980286,585.408569 589.980530,584.429749 C589.997131,519.381287 590.001099,454.332794 589.956543,389.284332 C589.955627,387.882874 589.380066,386.481842 589.087524,384.714966 C591.063354,382.589905 592.862671,379.554932 595.011780,379.282806 C606.910156,377.776184 618.893677,376.942169 630.848022,375.877716 z" opacity="1"/><path fill="#FECE5A" stroke="none" d="M630.837708,375.533203 C618.893677,376.942169 606.910156,377.776184 595.011780,379.282806 C592.862671,379.554932 591.063354,382.589905 589.026611,384.694092 C588.950562,385.038818 588.838501,384.978363 588.462524,385.096313 C587.725098,386.903717 587.049072,388.592865 587.047607,390.282623 C586.992371,453.818512 586.991028,517.354431 587.041748,580.890259 C587.043091,582.608887 587.697815,584.327026 588.081726,586.355042 C588.184021,587.072632 588.252441,587.480530 588.240173,587.916809 C588.159485,587.945190 587.997559,588.000183 587.567383,588.002930 C583.356995,588.344727 580.903870,587.829346 580.913696,582.839783 C581.048523,514.253906 581.024719,445.667633 580.955383,377.081573 C580.950745,372.517212 582.858398,370.892731 587.274963,370.952972 C598.426453,371.105103 609.581726,371.041077 620.734680,370.958527 C622.472473,370.945679 624.206238,370.380707 625.941833,370.071045 C627.570312,371.776917 629.198853,373.482788 630.837708,375.533203 z" opacity="1"/><path fill="#EF6905" stroke="none" d="M579.491333,587.983521 C578.995972,586.556396 578.068726,585.129700 578.067261,583.702087 C577.995300,514.650269 577.994934,445.598419 578.057373,376.546631 C578.058716,375.071747 578.885925,373.597595 579.677734,372.509644 C579.946106,375.388092 579.794556,377.879974 579.793335,380.371948 C579.769348,428.620331 579.787292,476.868774 579.741638,525.117126 C579.721802,546.072632 579.578552,567.028076 579.491333,587.983521 z" opacity="1"/><path fill="#FEEB6E" stroke="none" d="M579.820374,588.279541 C579.578552,567.028076 579.721802,546.072632 579.741638,525.117126 C579.787292,476.868774 579.769348,428.620331 579.793335,380.371948 C579.794556,377.879974 579.946106,375.388092 580.086548,372.425018 C580.145508,371.953888 580.216003,371.732574 580.446289,371.497986 C581.442139,370.803558 582.207642,370.343750 583.312805,369.916687 C584.083557,369.819336 584.514648,369.689209 585.413086,369.616882 C597.945801,369.644318 610.011169,369.613953 622.076538,369.583557 C623.106506,369.714874 624.136536,369.846191 625.554199,370.024292 C624.206238,370.380707 622.472473,370.945679 620.734680,370.958527 C609.581726,371.041077 598.426453,371.105103 587.274963,370.952972 C582.858398,370.892731 580.950745,372.517212 580.955383,377.081573 C581.024719,445.667633 581.048523,514.253906 580.913696,582.839783 C580.903870,587.829346 583.356995,588.344727 587.569153,588.252441 C588.001099,588.499207 587.998047,588.998413 587.998047,588.998413 C585.381836,588.857483 582.765564,588.716492 579.820374,588.279541 z" opacity="1"/><path fill="#ED6006" stroke="none" d="M622.348145,369.396301 C610.011169,369.613953 597.945801,369.644318 585.209595,369.457947 C584.025818,369.158905 583.512939,369.076660 583.000000,368.997192 C583.000000,369.000000 583.005005,369.000000 583.005005,369.000000 C584.220947,368.667114 585.435425,368.051300 586.653137,368.044769 C599.698181,367.974854 612.743713,368.001251 625.912170,368.506714 C624.814697,368.740845 623.717163,368.974945 622.348145,369.396301 z" opacity="1"/><path fill="#EF6905" stroke="none" d="M582.973083,369.883911 C582.207642,370.343750 581.442139,370.803558 580.370422,371.410095 C580.784119,370.710297 581.503967,369.863831 582.614441,369.008667 C583.005005,369.000000 583.000000,369.000000 582.996338,369.219696 C582.992676,369.439392 582.973083,369.883911 582.973083,369.883911 z" opacity="1"/><path fill="#FEBE39" stroke="none" d="M588.248535,589.000732 C587.998047,588.998413 588.001099,588.499207 587.999329,588.249695 C587.997559,588.000183 588.159485,587.945190 588.417358,587.930908 C588.675232,587.916565 589.035828,587.934570 589.035828,587.934570 C589.025024,588.112061 589.014160,588.289551 589.001709,588.734009 C588.833130,589.001648 588.666138,589.002380 588.248535,589.000732 z" opacity="1"/><path fill="#FED25C" stroke="none" d="M490.979767,588.983521 C488.201813,588.983521 485.423889,588.983521 482.050018,588.983521 C482.050018,531.635437 482.050018,474.751495 482.486755,417.318146 C483.274597,415.908447 483.869751,415.067047 483.938202,414.184845 C484.478760,407.218201 484.667145,407.002869 491.622314,406.997833 C502.610535,406.989899 513.599060,407.032715 524.586731,406.953644 C526.676514,406.938629 528.763000,406.457977 530.851013,406.192200 C531.866577,407.851349 532.882202,409.510529 533.662842,411.554321 C533.427856,411.938965 533.007324,411.965881 532.557129,411.952850 C520.896667,412.978271 509.671692,413.882294 498.482208,415.110107 C492.600983,415.755432 491.017212,417.994537 491.014679,424.695435 C490.994324,479.130432 491.003998,533.565430 490.997040,588.246155 C490.989563,588.491882 490.979767,588.983521 490.979767,588.983521 z" opacity="1"/><path fill="#FFC726" stroke="none" d="M491.450287,588.996338 C490.979767,588.983521 490.989563,588.491882 491.465210,588.249390 C502.749390,588.005493 513.557922,588.003906 524.366455,588.002441 C532.998108,588.001282 532.999390,588.001343 532.999817,579.082275 C533.002686,523.376831 533.004883,467.671356 533.007324,411.965881 C533.007324,411.965881 533.427856,411.938965 533.635864,411.911682 C533.899658,431.698975 533.989624,451.513580 534.003906,471.328217 C534.030884,508.797089 533.956970,546.266174 534.098938,583.734497 C534.114197,587.766663 533.183594,589.233887 528.887695,589.132996 C516.571228,588.843567 504.243866,589.017456 491.450287,588.996338 z" opacity="1"/><path fill="#FEEB6E" stroke="none" d="M530.875610,406.098328 C528.763000,406.457977 526.676514,406.938629 524.586731,406.953644 C513.599060,407.032715 502.610535,406.989899 491.622314,406.997833 C484.667145,407.002869 484.478760,407.218201 483.938202,414.184845 C483.869751,415.067047 483.274597,415.908447 482.560913,416.850555 C483.079620,413.275757 483.960846,409.619171 485.534515,405.645569 C501.157135,405.502228 516.087280,405.675964 531.017456,405.849670 C531.017456,405.849670 530.900208,406.004425 530.875610,406.098328 z" opacity="1"/><path fill="#ED6006" stroke="none" d="M530.901611,405.470459 C516.087280,405.675964 501.157135,405.502228 485.791138,405.398621 C485.600342,404.984192 485.843903,404.076569 486.090698,404.075653 C500.467255,404.024414 514.844177,404.037415 529.220764,404.107941 C529.744019,404.110535 530.264099,404.749054 530.901611,405.470459 z" opacity="1"/><path fill="#EF6F0F" stroke="none" d="M436.770599,478.053009 C437.514587,479.262024 438.904602,480.468933 438.908569,481.680389 C439.023590,516.784363 438.972900,551.888794 439.047363,586.992920 C439.053711,589.994568 438.120850,591.074280 435.048920,591.050659 C419.910065,590.934143 404.769623,590.962341 389.630188,591.033020 C386.616699,591.047119 384.958771,590.203613 384.964783,586.821838 C385.028290,551.218994 385.017456,515.615967 385.050232,480.013000 C385.050659,479.549988 385.351166,479.087219 385.875214,478.875549 C386.238831,515.698853 386.238831,552.270996 386.238831,588.962830 C388.663391,589.118652 390.305298,589.224182 392.067505,589.442871 C392.187775,589.556030 392.654938,589.614624 392.654938,589.614624 C392.654938,589.614624 393.055786,589.341858 393.399292,589.307434 C394.199982,589.220642 394.657104,589.168335 395.571594,589.103088 C409.608032,589.090210 423.187134,589.090210 437.114044,589.090210 C437.114044,555.593872 437.114044,522.350891 437.358154,488.802673 C437.454590,485.985321 437.306915,483.473145 437.130035,480.594910 C436.990784,479.503540 436.880676,478.778290 436.770599,478.053009 z" opacity="1"/><path fill="#FED25C" stroke="none" d="M391.947235,589.329651 C390.305298,589.224182 388.663391,589.118652 386.238831,588.962830 C386.238831,552.270996 386.238831,515.698853 386.234802,478.675995 C386.230743,478.225281 386.182037,478.126404 386.459595,478.111542 C387.188324,477.423370 387.639496,476.750061 388.090698,476.076782 C388.090668,476.076752 388.059052,476.011902 388.512207,476.083557 C403.221893,476.068939 417.478394,475.946136 431.734833,475.953430 C433.140442,475.954132 434.545654,476.751556 435.951050,477.179199 C436.023315,477.459442 436.173950,477.687988 436.586792,477.958923 C436.880676,478.778290 436.990784,479.503540 437.059570,480.832642 C437.018311,481.436462 436.958130,481.928131 436.563416,481.953979 C435.113983,481.996277 434.059235,482.012726 433.003082,481.593750 C433.316193,478.346710 432.516083,476.893188 429.229279,476.942383 C418.236176,477.106934 407.238007,476.912964 396.243988,477.043915 C390.721252,477.109680 388.003113,480.160828 388.002686,485.722931 C388.000092,517.876648 388.002045,550.030334 388.002411,582.184082 C388.002441,583.961304 388.002441,585.738525 388.002441,588.197876 C390.849182,587.710449 392.907684,587.357971 394.996857,587.356262 C395.056458,588.176697 395.085358,588.646301 395.114258,589.115967 C394.657104,589.168335 394.199982,589.220642 393.122742,589.248535 C392.317505,589.259277 392.132385,589.294495 391.947235,589.329651 z" opacity="1"/><path fill="#EF6F0F" stroke="none" d="M435.914551,476.783295 C434.545654,476.751556 433.140442,475.954132 431.734833,475.953430 C417.478394,475.946136 403.221893,476.068939 388.497803,476.116638 C389.804749,475.384583 391.571167,474.115356 393.355072,474.090363 C405.847992,473.915100 418.345978,473.906830 430.838318,474.102478 C432.529755,474.128998 434.198700,475.590393 435.914551,476.783295 z" opacity="1"/><path fill="#EF6F0F" stroke="none" d="M387.754730,476.092346 C387.639496,476.750061 387.188324,477.423370 386.408508,478.090759 C386.526184,477.425903 386.972473,476.766937 387.754730,476.092346 z" opacity="1"/><path fill="#FFA507" stroke="none" d="M312.678955,265.104675 C312.788391,264.027191 312.897827,262.949707 313.032837,261.467651 C313.372131,262.795227 313.959991,264.527313 313.960541,266.259583 C314.002136,397.369354 313.999298,528.479126 313.974915,659.588928 C313.974609,661.221069 313.652039,662.853149 313.161835,664.296753 C312.596466,660.386719 312.349152,656.665344 312.101807,652.943909 C312.115967,651.915710 312.130127,650.887451 312.127991,648.995667 C312.113708,625.540405 312.116089,602.948792 312.117584,580.357117 C312.118622,564.091492 312.116089,547.825928 312.119415,531.560303 C312.123535,511.463715 312.043121,491.366608 312.166626,471.270752 C312.267792,454.812164 312.770447,438.355591 312.819611,421.897308 C312.926086,386.277283 312.870331,350.656708 312.847321,315.036377 C312.841949,306.719604 312.702484,298.402893 312.624695,290.086151 C312.697144,287.323090 312.769592,284.560028 312.828003,280.893494 C312.768982,275.028229 312.723969,270.066467 312.678955,265.104675 z" opacity="1"/><path fill="#FFA507" stroke="none" d="M764.639648,662.796997 C764.983643,663.253052 764.992432,663.749512 764.998108,664.615906 C762.557739,664.656494 760.120483,664.039551 757.683044,664.038757 C615.924927,663.992676 474.166779,664.001709 332.408630,663.955994 C330.368744,663.955322 328.329071,663.330994 326.208496,662.632080 C326.818054,662.229004 327.508392,662.191589 328.895752,662.371338 C331.579956,662.682800 333.567078,662.859192 335.554291,662.859558 C397.660492,662.872559 459.766846,662.967041 521.872803,662.842224 C601.606628,662.682007 681.340027,662.343445 761.073608,662.081665 C762.150513,662.333557 763.227478,662.585449 764.639648,662.796997 z" opacity="1"/><path fill="#FEEB6E" stroke="none" d="M328.709747,655.962280 C401.009766,655.932861 473.008423,655.975464 545.007080,655.998413 C615.006592,656.020691 685.006042,656.022827 755.466003,656.074829 C754.182922,656.411865 752.439514,656.966370 750.695923,656.966858 C609.760437,657.005005 468.824921,656.999817 327.414368,656.994873 C327.428986,656.669739 327.918671,656.347717 328.709747,655.962280 z" opacity="1"/><path fill="#FED96E" stroke="none" d="M311.699280,653.039673 C312.349152,656.665344 312.596466,660.386719 312.822968,664.551147 C312.551361,665.472717 312.300568,665.951294 312.022339,666.712524 C308.934753,662.517700 309.158356,657.874756 311.699280,653.039673 z" opacity="1"/><path fill="#FED96E" stroke="none" d="M312.257751,290.083374 C312.702484,298.402893 312.841949,306.719604 312.847321,315.036377 C312.870331,350.656708 312.926086,386.277283 312.819611,421.897308 C312.770447,438.355591 312.267792,454.812164 312.166626,471.270752 C312.043121,491.366608 312.123535,511.463715 312.119415,531.560303 C312.116089,547.825928 312.118622,564.091492 312.117584,580.357117 C312.116089,602.948792 312.113708,625.540405 312.097900,648.611023 C311.721069,647.042358 311.041229,644.994873 311.040344,642.947144 C310.990967,530.409180 311.007050,417.871185 310.961639,305.333252 C310.960205,301.713074 310.185303,298.093292 310.182953,294.473083 C310.182007,293.009308 311.288330,291.544769 312.257751,290.083374 z" opacity="1"/><path fill="#FED96E" stroke="none" d="M312.316406,265.198792 C312.723969,270.066467 312.768982,275.028229 312.736572,280.440308 C312.106964,279.702881 311.066437,278.504852 311.091431,277.329437 C311.176758,273.312958 311.636719,269.304443 312.316406,265.198792 z" opacity="1"/><path fill="#FED96E" stroke="none" d="M760.778687,661.770569 C681.340027,662.343445 601.606628,662.682007 521.872803,662.842224 C459.766846,662.967041 397.660492,662.872559 335.554291,662.859558 C333.567078,662.859192 331.579956,662.682800 329.243835,662.358521 C330.602539,661.751526 332.310120,661.045044 334.017944,661.044434 C474.701752,660.994324 615.385559,660.997742 756.069397,661.018982 C757.540833,661.019226 759.012268,661.306335 760.778687,661.770569 z" opacity="1"/><path fill="#FEEB6E" stroke="none" d="M761.135986,656.286316 C761.057007,656.137634 761.534119,656.097656 761.770508,656.135376 C761.742920,656.260437 761.478943,656.347717 761.135986,656.286316 z" opacity="1"/><path fill="#FFB323" stroke="none" d="M725.263916,303.862732 C725.764587,305.119415 725.955017,306.442810 725.955383,307.766266 C725.967651,354.882446 725.962158,401.998627 725.909546,449.588684 C725.244141,451.880463 724.095398,453.697083 724.091003,455.516418 C723.989563,497.587036 723.927979,539.658325 724.124817,581.728271 C724.147949,586.676270 723.065918,588.362427 717.846069,588.143982 C707.222046,587.699402 696.566711,588.004456 685.456055,587.526001 C684.988647,498.863739 684.958435,410.676086 685.079468,322.488586 C685.085693,317.960602 686.388489,313.434387 687.087585,308.907349 C691.137939,307.961426 695.143188,306.625122 699.248047,306.150970 C707.759033,305.167938 716.322937,304.642853 725.263916,303.862732 z" opacity="1"/><path fill="#FFA507" stroke="none" d="M686.753784,308.939240 C686.388489,313.434387 685.085693,317.960602 685.079468,322.488586 C684.958435,410.676086 684.988647,498.863739 684.986511,587.518311 C684.598450,587.973999 684.211670,587.962646 683.538818,587.934692 C683.196716,587.196228 683.140625,586.474426 683.084900,584.919067 C683.097412,497.351227 683.096252,410.616943 683.158264,323.882690 C683.161560,319.254181 683.696716,314.626068 683.984314,309.997772 C684.796204,309.655579 685.608093,309.313354 686.753784,308.939240 z" opacity="1"/><path fill="#FED96E" stroke="none" d="M683.589355,310.091614 C683.696716,314.626068 683.161560,319.254181 683.158264,323.882690 C683.096252,410.616943 683.097412,497.351227 683.057861,584.556702 C682.687012,583.306335 682.043884,581.584900 682.042908,579.863159 C681.993774,491.637909 681.992676,403.412628 682.048706,315.187408 C682.049744,313.519867 682.795898,311.852753 683.589355,310.091614 z" opacity="1"/><path fill="#FFA507" stroke="none" d="M589.332092,587.650391 C589.035828,587.934570 588.675232,587.916565 588.498047,587.902466 C588.252441,587.480530 588.184021,587.072632 588.108887,585.881714 C588.116455,571.619568 588.096008,558.140259 588.150818,544.661194 C588.367249,491.433563 588.607239,438.205963 588.838501,384.978363 C588.838501,384.978363 588.950562,385.038818 589.011536,385.059692 C589.380066,386.481842 589.955627,387.882874 589.956543,389.284332 C590.001099,454.332794 589.997131,519.381287 589.980530,584.429749 C589.980286,585.408569 589.750854,586.387329 589.332092,587.650391 z" opacity="1"/><path fill="#FED96E" stroke="none" d="M588.462524,385.096313 C588.607239,438.205963 588.367249,491.433563 588.150818,544.661194 C588.096008,558.140259 588.116455,571.619568 588.075073,585.572021 C587.697815,584.327026 587.043091,582.608887 587.041748,580.890259 C586.991028,517.354431 586.992371,453.818512 587.047607,390.282623 C587.049072,388.592865 587.725098,386.903717 588.462524,385.096313 z" opacity="1"/><path fill="#F28117" stroke="none" d="M583.312805,369.916687 C582.973083,369.883911 582.992676,369.439392 582.996338,369.216888 C583.512939,369.076660 584.025818,369.158905 584.742188,369.400146 C584.514648,369.689209 584.083557,369.819336 583.312805,369.916687 z" opacity="1"/><path fill="#FFB322" stroke="none" d="M532.557129,411.952850 C533.004883,467.671356 533.002686,523.376831 532.999817,579.082275 C532.999390,588.001343 532.998108,588.001282 524.366455,588.002441 C513.557922,588.003906 502.749390,588.005493 491.472687,588.003662 C491.003998,533.565430 490.994324,479.130432 491.014679,424.695435 C491.017212,417.994537 492.600983,415.755432 498.482208,415.110107 C509.671692,413.882294 520.896667,412.978271 532.557129,411.952850 z" opacity="1"/><path fill="#FFB323" stroke="none" d="M433.004517,482.029175 C434.059235,482.012726 435.113983,481.996277 436.579529,482.403320 C437.031586,484.920471 437.072815,487.014160 437.114044,489.107849 C437.114044,522.350891 437.114044,555.593872 437.114044,589.090210 C423.187134,589.090210 409.608032,589.090210 395.571594,589.103088 C395.085358,588.646301 395.056458,588.176697 395.014893,586.887146 C395.016510,555.607727 395.028198,525.148193 395.047119,494.688690 C395.051361,487.867737 397.338898,485.440826 404.042969,485.012482 C409.168060,484.684998 414.302490,484.430695 419.409210,483.911804 C423.957794,483.449707 428.473999,482.669159 433.004517,482.029175 z" opacity="1"/><path fill="#FBA11D" stroke="none" d="M437.358154,488.802673 C437.072815,487.014160 437.031586,484.920471 436.974243,482.377441 C436.958130,481.928131 437.018311,481.436462 437.088745,481.198730 C437.306915,483.473145 437.454590,485.985321 437.358154,488.802673 z" opacity="1"/><path fill="#FBA11D" stroke="none" d="M392.067505,589.442871 C392.132385,589.294495 392.317505,589.259277 392.779236,589.282959 C393.055786,589.341858 392.654938,589.614624 392.654938,589.614624 C392.654938,589.614624 392.187775,589.556030 392.067505,589.442871 z" opacity="1"/><path fill="#FECE5A" stroke="none" d="M433.003082,481.593750 C428.473999,482.669159 423.957794,483.449707 419.409210,483.911804 C414.302490,484.430695 409.168060,484.684998 404.042969,485.012482 C397.338898,485.440826 395.051361,487.867737 395.047119,494.688690 C395.028198,525.148193 395.016510,555.607727 394.984192,586.536377 C392.907684,587.357971 390.849182,587.710449 388.002441,588.197876 C388.002441,585.738525 388.002441,583.961304 388.002411,582.184082 C388.002045,550.030334 388.000092,517.876648 388.002686,485.722931 C388.003113,480.160828 390.721252,477.109680 396.243988,477.043915 C407.238007,476.912964 418.236176,477.106934 429.229279,476.942383 C432.516083,476.893188 433.316193,478.346710 433.003082,481.593750 z" opacity="1"/></svg>